{"glyphs":{"0":{"ha":757,"x_min":57,"x_max":700,"o":"m 247 708 q 222 664 247 708 q 196 457 196 619 q 247 205 196 294 q 380 115 297 115 q 511 204 463 115 q 560 458 560 293 q 509 709 560 622 q 378 796 458 796 q 247 708 299 796 m 380 -11 q 304 -11 380 -11 q 142 117 228 -11 q 57 458 57 244 q 142 797 57 671 q 378 922 228 922 q 614 797 528 922 q 700 458 700 672 q 616 117 700 244 q 380 -11 532 -11 z "},"1":{"ha":472,"x_min":22,"x_max":372,"o":"m 372 908 l 372 0 l 238 0 l 238 760 l 22 628 l 22 774 l 249 908 l 372 908 z "},"2":{"ha":689,"x_min":50,"x_max":632,"o":"m 632 118 l 632 0 l 50 0 l 50 113 q 345 377 225 240 q 465 626 465 514 q 419 748 465 706 q 293 790 374 790 q 75 707 182 790 l 75 842 q 308 918 175 918 q 524 847 440 918 q 607 643 607 775 q 238 118 607 399 l 632 118 z "},"3":{"ha":654,"x_min":50,"x_max":589,"o":"m 271 918 q 488 849 410 918 q 567 676 567 781 q 530 545 567 601 q 421 460 493 489 q 544 386 500 440 q 589 250 589 332 q 508 65 589 138 q 286 -8 428 -8 q 50 39 144 -8 l 50 172 q 275 117 153 117 q 403 158 357 117 q 450 264 450 199 q 399 365 450 329 q 244 401 347 401 l 189 401 l 189 518 l 244 518 q 373 556 321 518 q 425 661 425 594 q 383 761 425 728 q 256 794 340 794 q 79 736 172 794 l 79 868 q 271 918 165 918 z "},"4":{"ha":758,"x_min":53,"x_max":728,"o":"m 728 331 l 728 213 l 600 213 l 600 0 l 464 0 l 464 213 l 53 213 l 53 331 l 379 910 l 600 910 l 600 331 l 728 331 m 464 331 l 464 826 l 190 331 l 464 331 z "},"5":{"ha":704,"x_min":72,"x_max":647,"o":"m 250 792 l 250 553 q 344 564 301 564 q 567 490 486 564 q 647 284 647 415 q 558 72 647 153 q 317 -10 468 -10 q 72 38 165 -10 l 72 169 q 286 115 161 115 q 506 293 506 115 q 456 403 506 364 q 313 443 407 443 q 115 394 218 443 l 115 910 l 586 910 l 586 792 l 250 792 z "},"6":{"ha":735,"x_min":65,"x_max":689,"o":"m 497 807 q 301 720 375 807 q 208 497 228 633 q 422 585 299 585 q 617 506 546 585 q 689 292 689 426 q 608 69 689 157 q 392 -18 528 -18 q 149 100 233 -18 q 65 413 65 218 q 181 786 65 640 q 492 932 297 932 q 624 911 561 932 l 624 779 q 497 807 569 807 m 204 375 q 262 173 210 240 q 390 106 314 106 q 507 158 465 106 q 549 292 549 210 q 507 419 549 374 q 396 465 465 465 q 204 375 288 465 z "},"7":{"ha":638,"x_min":19,"x_max":618,"o":"m 19 908 l 618 908 l 618 790 l 249 0 l 103 0 l 474 790 l 19 790 l 19 908 z "},"8":{"ha":747,"x_min":64,"x_max":683,"o":"m 683 242 q 594 57 683 126 q 371 -12 506 -12 q 150 55 236 -12 q 64 235 64 122 q 218 456 64 396 q 116 536 153 483 q 79 660 79 589 q 164 851 79 782 q 372 921 249 921 q 579 853 494 921 q 664 653 664 786 q 528 457 664 521 q 683 242 683 404 m 525 658 q 525 691 525 658 q 487 764 525 724 q 374 804 449 804 q 258 763 299 804 q 218 656 218 721 q 262 553 218 590 q 373 517 306 517 q 483 555 440 517 q 525 658 525 593 m 203 243 q 203 213 203 243 q 246 143 203 182 q 372 104 289 104 q 501 146 456 104 q 546 249 546 188 q 501 351 546 310 q 372 392 457 393 q 245 348 288 392 q 203 243 203 304 z "},"9":{"ha":711,"x_min":43,"x_max":656,"o":"m 240 115 q 515 399 479 115 q 326 322 449 322 q 123 403 203 322 q 43 615 43 483 q 122 833 43 747 q 347 919 201 919 q 574 805 493 919 q 656 508 656 690 q 551 125 656 261 q 250 -11 446 -11 q 90 15 161 -11 l 90 147 q 240 115 161 115 m 350 439 q 521 521 456 439 q 474 722 518 647 q 351 796 431 796 q 228 748 271 796 q 185 617 185 700 q 230 487 185 535 q 350 439 275 439 z "},"\u0000":{"ha":0,"x_min":0,"x_max":0,"o":""},"\r":{"ha":0,"x_min":0,"x_max":0,"o":""}," ":{"ha":342,"x_min":0,"x_max":0,"o":""},"!":{"ha":364,"x_min":86,"x_max":276,"o":"m 113 16 q 100 30 113 16 q 86 83 86 43 q 113 151 86 124 q 180 179 140 179 q 248 151 219 179 q 276 83 276 122 q 249 16 276 43 q 181 -11 221 -11 q 113 16 140 -11 m 115 297 l 115 936 l 249 936 l 249 297 l 115 297 z "},"\"":{"ha":447,"x_min":60,"x_max":388,"o":"m 269 607 l 269 946 l 388 946 l 388 607 l 269 607 m 60 607 l 60 946 l 178 946 l 178 607 l 60 607 z "},"#":{"ha":1004,"x_min":71,"x_max":935,"o":"m 935 593 l 767 593 l 713 338 l 869 338 l 869 229 l 690 229 l 642 0 l 521 0 l 569 229 l 339 229 l 290 0 l 171 0 l 219 229 l 71 229 l 71 338 l 242 338 l 294 593 l 138 593 l 138 704 l 318 704 l 367 936 l 489 936 l 440 704 l 671 704 l 719 936 l 839 936 l 790 704 l 935 704 l 935 593 m 593 338 l 647 593 l 417 593 l 363 338 l 593 338 z "},"$":{"ha":704,"x_min":65,"x_max":640,"o":"m 381 815 q 261 781 304 815 q 218 692 218 747 q 278 592 218 631 q 388 533 318 564 q 492 483 458 501 q 564 432 525 464 q 640 256 640 369 q 569 74 640 143 q 381 -7 499 6 l 381 -156 l 264 -156 l 264 -7 q 71 50 150 4 l 71 199 q 325 117 181 117 q 447 152 401 117 q 492 250 492 188 q 481 300 492 283 q 463 326 469 317 q 440 345 456 335 q 415 362 424 356 q 384 378 406 368 q 353 394 363 389 q 317 410 343 399 q 125 525 185 465 q 65 690 65 585 q 139 863 65 794 q 333 942 213 931 l 333 1090 l 451 1090 l 451 939 q 592 899 535 926 l 592 757 q 381 815 500 815 z "},"%":{"ha":1228,"x_min":67,"x_max":1161,"o":"m 846 306 q 828 288 846 306 q 811 222 811 271 q 846 139 811 174 q 929 104 881 104 q 1012 139 978 104 q 1046 222 1046 174 q 1012 306 1046 271 q 929 340 978 340 q 846 306 881 340 m 299 839 q 274 839 299 839 q 216 804 250 839 q 182 722 182 769 q 216 639 182 674 q 299 604 250 604 q 382 639 347 604 q 417 722 417 674 q 382 805 417 771 q 299 839 347 839 m 299 489 q 251 489 299 489 q 135 557 203 489 q 67 722 67 625 q 135 886 67 818 q 299 954 203 954 q 464 886 396 954 q 532 722 532 818 q 464 557 532 625 q 299 489 396 489 m 928 -10 q 880 -10 928 -10 q 764 58 832 -10 q 696 222 696 125 q 764 387 696 318 q 928 456 832 456 q 1093 387 1025 456 q 1161 222 1161 318 q 1093 58 1161 125 q 928 -10 1025 -10 m 294 -1 l 800 940 l 929 940 l 422 -1 l 294 -1 z "},"&":{"ha":993,"x_min":85,"x_max":989,"o":"m 729 76 q 449 -11 615 -11 q 184 63 283 -11 q 85 247 85 136 q 300 488 85 411 q 181 719 181 611 q 256 893 181 828 q 453 958 331 958 q 652 890 576 958 q 728 711 728 821 q 678 567 728 631 q 514 450 629 503 l 719 253 q 756 385 751 311 l 883 385 q 813 165 878 263 q 916 68 853 128 q 989 0 979 8 l 811 0 l 729 76 m 589 707 q 553 802 589 765 q 455 839 517 839 q 357 807 393 839 q 321 726 321 775 q 347 634 321 676 q 432 529 374 592 q 589 707 589 606 m 382 404 q 263 338 300 374 q 225 244 225 303 q 288 147 225 186 q 453 108 350 108 q 638 163 556 108 l 382 404 z "},"'":{"ha":238,"x_min":60,"x_max":178,"o":"m 60 607 l 60 946 l 178 946 l 178 607 l 60 607 z "},"(":{"ha":442,"x_min":86,"x_max":460,"o":"m 311 -272 q 86 360 86 10 q 301 982 86 710 l 449 982 q 287 680 342 843 q 232 358 232 517 q 290 35 232 200 q 460 -272 349 -131 l 311 -272 z "},")":{"ha":442,"x_min":-18,"x_max":356,"o":"m 142 982 q 356 361 356 711 q 132 -272 356 11 l -18 -272 q 152 35 93 -131 q 211 358 211 201 q 156 678 211 515 q -6 982 100 842 l 142 982 z "},"*":{"ha":607,"x_min":40,"x_max":567,"o":"m 383 654 l 376 654 q 422 610 401 639 l 500 500 l 411 435 l 332 543 q 304 599 315 567 q 276 543 299 574 l 196 435 l 106 500 l 186 608 q 232 653 206 635 l 224 653 q 168 661 193 653 l 40 704 l 74 810 l 203 768 q 260 736 238 756 q 247 801 247 768 l 247 936 l 358 936 l 358 801 q 347 739 358 765 q 404 769 372 758 l 532 810 l 567 704 l 439 663 q 383 654 414 654 z "},"+":{"ha":783,"x_min":74,"x_max":708,"o":"m 708 533 l 708 410 l 451 410 l 451 151 l 325 151 l 325 410 l 74 410 l 74 533 l 325 533 l 325 793 l 451 793 l 451 533 l 708 533 z "},",":{"ha":340,"x_min":-11,"x_max":290,"o":"m -11 -172 l 122 153 l 290 153 l 108 -172 l -11 -172 z "},"-":{"ha":486,"x_min":74,"x_max":413,"o":"m 74 313 l 74 429 l 413 429 l 413 313 l 74 313 z "},".":{"ha":268,"x_min":40,"x_max":228,"o":"m 67 17 q 54 31 67 17 q 40 83 40 44 q 67 149 40 122 q 134 176 94 176 q 201 149 174 176 q 228 83 228 122 q 201 17 228 44 q 134 -11 174 -11 q 67 17 94 -11 z "},"/":{"ha":585,"x_min":-10,"x_max":635,"o":"m -10 -142 l 494 982 l 635 982 l 131 -142 l -10 -142 z "},":":{"ha":347,"x_min":81,"x_max":267,"o":"m 107 26 q 94 39 107 26 q 81 92 81 53 q 108 158 81 131 q 174 185 135 185 q 240 158 213 185 q 267 92 267 131 q 240 26 267 53 q 173 -1 213 -1 q 107 26 133 -1 m 173 450 q 153 450 173 450 q 107 476 133 450 q 81 542 81 503 q 108 609 81 582 q 174 636 135 636 q 240 609 213 636 q 267 543 267 582 q 240 477 267 504 q 173 450 213 450 z "},";":{"ha":340,"x_min":-11,"x_max":290,"o":"m -11 -172 l 122 153 l 290 153 l 108 -172 l -11 -172 m 191 450 q 171 450 191 450 q 125 476 151 450 q 99 542 99 503 q 125 609 99 582 q 191 636 151 636 q 258 608 231 636 q 285 542 285 581 q 258 476 285 503 q 191 450 231 450 z "},"<":{"ha":757,"x_min":74,"x_max":690,"o":"m 74 407 l 74 539 l 690 796 l 690 657 q 215 474 288 508 q 690 289 271 446 l 690 150 l 74 407 z "},"=":{"ha":783,"x_min":74,"x_max":708,"o":"m 74 268 l 74 386 l 708 386 l 708 268 l 74 268 m 74 560 l 74 676 l 708 676 l 708 560 l 74 560 z "},">":{"ha":757,"x_min":67,"x_max":682,"o":"m 682 539 l 682 407 l 67 150 l 67 289 q 542 474 467 438 q 67 657 475 504 l 67 796 l 682 539 z "},"?":{"ha":631,"x_min":71,"x_max":581,"o":"m 185 16 q 172 30 185 16 q 158 83 158 43 q 186 151 158 124 q 253 179 214 179 q 321 151 293 179 q 349 83 349 124 q 321 16 349 43 q 253 -11 293 -11 q 185 16 213 -11 m 71 896 q 291 947 161 947 q 501 880 421 947 q 581 694 581 813 q 500 510 581 575 q 321 438 419 444 l 319 297 l 190 297 l 189 521 q 440 683 440 521 q 399 788 440 749 q 265 828 357 828 q 71 761 174 828 l 71 896 z "},"@":{"ha":1286,"x_min":75,"x_max":1226,"o":"m 796 494 q 801 582 796 515 l 913 582 q 889 272 889 339 q 975 129 889 129 q 1070 194 1032 129 q 1108 363 1108 258 q 990 658 1108 554 q 679 761 872 761 q 344 619 486 761 q 201 278 201 478 q 317 -30 201 78 q 599 -137 432 -137 q 854 -76 739 -137 l 849 -203 q 597 -253 744 -253 q 215 -103 356 -253 q 75 274 75 46 q 159 582 75 443 q 385 798 243 721 q 693 875 526 875 q 1072 737 917 875 q 1226 371 1226 599 q 1149 116 1226 211 q 969 21 1071 21 q 792 150 831 21 q 585 18 725 18 q 418 94 479 18 q 357 293 357 171 q 436 501 357 415 q 629 588 515 588 q 796 494 743 588 m 483 288 q 483 248 483 288 q 520 166 483 208 q 613 124 557 124 q 715 162 668 124 q 781 268 761 200 q 785 339 783 301 q 643 482 763 482 q 528 424 574 482 q 483 288 483 367 z "},"A":{"ha":917,"x_min":43,"x_max":874,"o":"m 721 0 l 647 229 l 269 229 l 194 0 l 43 0 l 367 936 l 554 936 l 874 0 l 721 0 m 308 349 l 608 349 q 460 828 488 722 q 308 349 450 788 z "},"B":{"ha":807,"x_min":101,"x_max":750,"o":"m 101 936 l 408 936 q 640 867 556 936 q 725 686 725 799 q 681 550 725 608 q 569 475 638 492 q 698 404 646 461 q 750 244 750 347 q 674 70 750 140 q 461 0 599 0 l 101 0 l 101 936 m 244 818 l 244 531 l 374 531 q 528 573 478 531 q 579 679 579 615 q 534 781 579 743 q 397 818 489 818 l 244 818 m 244 118 l 428 118 q 604 264 604 118 q 556 374 604 335 q 414 414 508 414 l 244 414 l 244 118 z "},"C":{"ha":840,"x_min":64,"x_max":779,"o":"m 542 817 q 308 722 401 817 q 214 468 214 626 q 307 215 214 310 q 544 121 400 121 q 779 190 688 121 l 779 46 q 540 -11 693 -11 q 197 119 331 -11 q 64 466 64 250 q 198 815 64 682 q 538 949 332 949 q 778 897 688 949 l 778 757 q 667 803 717 790 q 542 817 618 817 z "},"D":{"ha":926,"x_min":101,"x_max":868,"o":"m 101 936 l 393 936 q 735 807 601 936 q 868 474 868 678 q 742 135 868 269 q 396 0 617 0 l 101 0 l 101 936 m 247 121 l 394 121 q 638 221 554 121 q 721 472 721 321 q 631 718 721 622 q 390 814 540 814 l 247 814 l 247 121 z "},"E":{"ha":714,"x_min":101,"x_max":642,"o":"m 244 119 l 642 119 l 642 0 l 101 0 l 101 936 l 635 936 l 635 817 l 244 817 l 244 528 l 590 528 l 590 408 l 244 408 l 244 119 z "},"F":{"ha":686,"x_min":101,"x_max":632,"o":"m 632 817 l 244 817 l 244 510 l 585 510 l 585 390 l 244 390 l 244 0 l 101 0 l 101 936 l 632 936 l 632 817 z "},"G":{"ha":946,"x_min":64,"x_max":854,"o":"m 854 535 l 854 86 l 853 86 l 854 76 q 551 -11 733 -11 q 198 118 332 -11 q 64 466 64 247 q 199 819 64 685 q 543 953 335 953 q 815 890 706 953 l 815 743 q 547 818 696 818 q 306 722 399 818 q 214 467 214 626 q 305 215 214 308 q 556 122 396 122 q 714 153 639 122 l 714 411 l 524 411 l 524 535 l 854 535 z "},"H":{"ha":911,"x_min":101,"x_max":808,"o":"m 665 936 l 808 936 l 808 0 l 665 0 l 665 410 l 244 410 l 244 0 l 101 0 l 101 936 l 244 936 l 244 533 l 665 533 l 665 936 z "},"I":{"ha":367,"x_min":113,"x_max":254,"o":"m 113 0 l 113 936 l 254 936 l 254 0 l 113 0 z "},"J":{"ha":511,"x_min":42,"x_max":413,"o":"m 156 126 q 269 247 269 126 l 269 936 l 413 936 l 413 253 q 349 62 413 124 q 190 0 286 0 q 42 29 93 0 l 42 161 q 156 126 99 126 z "},"K":{"ha":832,"x_min":101,"x_max":797,"o":"m 433 464 l 797 0 l 617 0 l 263 463 l 603 936 l 776 936 l 433 464 m 101 0 l 101 936 l 244 936 l 244 0 l 101 0 z "},"L":{"ha":667,"x_min":101,"x_max":628,"o":"m 244 126 l 628 126 l 628 0 l 101 0 l 101 936 l 244 936 l 244 126 z "},"M":{"ha":1206,"x_min":89,"x_max":1117,"o":"m 89 0 l 161 936 l 331 936 q 590 203 529 392 q 861 936 663 417 l 1031 936 l 1117 0 l 975 0 l 942 367 l 913 742 q 646 18 836 528 l 533 18 l 407 367 l 281 736 q 231 0 281 660 l 89 0 z "},"N":{"ha":944,"x_min":101,"x_max":843,"o":"m 101 0 l 101 936 l 271 936 q 708 172 631 325 q 700 543 700 299 l 700 936 l 843 936 l 843 0 l 674 0 q 233 765 319 596 q 244 392 244 626 l 244 0 l 101 0 z "},"O":{"ha":988,"x_min":64,"x_max":924,"o":"m 288 727 q 251 680 288 727 q 214 472 214 633 q 290 217 214 311 q 497 122 367 122 q 700 215 626 122 q 774 472 774 308 q 699 728 774 635 q 494 821 625 821 q 288 727 363 821 m 495 -11 q 397 -11 495 -11 q 181 121 299 -11 q 64 472 64 253 q 181 822 64 690 q 495 954 297 954 q 808 823 693 954 q 924 472 924 692 q 808 121 924 253 q 495 -11 692 -11 z "},"P":{"ha":764,"x_min":101,"x_max":719,"o":"m 101 936 l 369 936 q 625 851 531 936 q 719 632 719 765 q 624 415 719 499 q 378 332 529 332 l 244 332 l 244 0 l 101 0 l 101 936 m 244 450 l 382 450 q 524 504 472 453 q 575 634 575 556 q 522 765 575 713 q 374 818 468 817 l 244 818 l 244 450 z "},"Q":{"ha":999,"x_min":64,"x_max":971,"o":"m 494 -11 q 181 121 299 -11 q 64 472 64 253 q 181 822 64 690 q 495 954 297 954 q 808 823 693 954 q 924 472 924 692 q 863 200 924 315 q 690 31 801 85 l 971 -137 l 813 -200 l 539 -10 q 494 -11 524 -11 m 288 727 q 251 680 288 727 q 214 472 214 633 q 290 217 214 311 q 497 122 367 122 q 700 215 626 122 q 774 472 774 308 q 699 728 774 635 q 494 821 625 821 q 288 727 363 821 z "},"R":{"ha":789,"x_min":101,"x_max":758,"o":"m 244 356 l 244 0 l 101 0 l 101 936 l 363 936 q 611 858 524 936 q 699 644 699 779 q 649 477 697 546 q 514 378 600 408 l 758 0 l 588 0 l 368 356 l 244 356 m 244 817 l 244 475 l 374 475 q 508 522 463 475 q 554 646 554 568 q 367 817 554 817 l 244 817 z "},"S":{"ha":724,"x_min":81,"x_max":656,"o":"m 396 815 q 276 781 319 815 q 232 692 232 747 q 275 603 232 636 q 392 538 318 569 q 498 488 465 506 q 572 436 531 469 q 656 253 656 374 q 568 61 656 132 q 334 -10 481 -10 q 86 50 188 -10 l 86 199 q 340 117 196 117 q 461 152 417 117 q 506 250 506 188 q 479 319 506 288 q 422 366 453 350 q 343 404 392 382 q 280 433 294 426 q 232 458 265 440 q 183 489 199 476 q 143 524 167 501 q 108 568 119 546 q 81 685 81 629 q 167 874 81 804 q 386 943 254 943 q 607 899 518 943 l 607 757 q 396 815 514 815 z "},"T":{"ha":694,"x_min":31,"x_max":664,"o":"m 664 936 l 664 817 l 418 817 l 418 0 l 275 0 l 275 817 l 31 817 l 31 936 l 664 936 z "},"U":{"ha":906,"x_min":99,"x_max":807,"o":"m 664 356 l 664 936 l 807 936 l 807 358 q 713 82 807 176 q 453 -12 618 -12 q 193 80 288 -12 q 99 347 99 172 l 99 936 l 242 936 l 242 349 q 299 174 242 229 q 451 119 357 119 q 664 356 664 119 z "},"V":{"ha":893,"x_min":43,"x_max":851,"o":"m 851 936 l 528 0 l 358 0 l 43 936 l 196 936 q 444 128 390 331 q 578 564 489 294 l 699 936 l 851 936 z "},"W":{"ha":1315,"x_min":43,"x_max":1274,"o":"m 600 922 l 726 922 l 825 589 l 951 149 q 1129 936 1001 396 l 1274 936 l 1044 0 l 874 0 l 785 296 l 664 714 q 461 0 639 611 l 289 0 l 43 936 l 192 936 l 279 590 l 382 151 q 600 922 440 367 z "},"X":{"ha":872,"x_min":49,"x_max":822,"o":"m 432 351 l 219 0 l 49 0 l 349 474 l 65 936 l 231 936 l 429 600 l 625 936 l 796 936 l 513 472 l 822 0 l 654 0 l 432 351 z "},"Y":{"ha":844,"x_min":32,"x_max":813,"o":"m 492 0 l 349 0 l 349 349 l 32 936 l 196 936 q 419 465 394 525 q 581 799 432 507 l 649 936 l 813 936 l 492 349 l 492 0 z "},"Z":{"ha":811,"x_min":75,"x_max":736,"o":"m 717 936 l 717 826 l 243 118 l 736 118 l 736 0 l 75 0 l 75 113 l 547 818 l 82 818 l 82 936 l 717 936 z "},"[":{"ha":451,"x_min":101,"x_max":443,"o":"m 443 861 l 235 861 l 235 -137 l 443 -137 l 443 -258 l 101 -258 l 101 982 l 443 982 l 443 861 z "},"\\":{"ha":583,"x_min":-51,"x_max":594,"o":"m 90 982 l 594 -143 l 454 -143 l -51 982 l 90 982 z "},"]":{"ha":451,"x_min":10,"x_max":350,"o":"m 350 982 l 350 -258 l 10 -258 l 10 -137 l 218 -137 l 218 861 l 10 861 l 10 982 l 350 982 z "},"^":{"ha":653,"x_min":57,"x_max":594,"o":"m 594 461 l 463 461 l 328 725 l 190 461 l 57 461 l 258 825 l 397 825 l 594 461 z "},"_":{"ha":774,"x_min":36,"x_max":738,"o":"m 36 -165 l 36 -49 l 738 -49 l 738 -165 l 36 -165 z "},"`":{"ha":617,"x_min":168,"x_max":451,"o":"m 319 1108 l 451 883 l 335 883 l 168 1108 l 319 1108 z "},"a":{"ha":693,"x_min":60,"x_max":606,"o":"m 329 715 q 606 447 606 715 l 606 0 l 471 0 l 471 83 q 281 -6 417 -6 q 120 52 181 -6 q 60 205 60 110 q 136 356 60 300 q 350 413 213 413 l 467 413 l 467 453 q 432 562 467 525 q 317 599 397 599 q 113 536 204 599 l 113 668 q 329 715 194 715 m 467 314 l 361 314 q 244 283 283 314 q 204 205 204 253 q 235 129 204 157 q 328 101 265 101 q 428 138 390 101 q 467 235 467 175 l 467 314 z "},"b":{"ha":808,"x_min":99,"x_max":751,"o":"m 236 982 l 236 597 q 447 714 311 714 q 667 614 582 714 q 751 357 751 514 q 671 95 751 200 q 450 -10 590 -10 q 236 107 310 -10 l 236 0 l 99 0 l 99 982 l 236 982 m 236 355 q 236 293 236 355 q 292 171 236 232 q 426 110 347 110 q 558 176 506 110 q 611 353 611 242 q 558 530 611 465 q 428 594 506 594 q 294 536 351 594 q 236 355 236 478 z "},"c":{"ha":654,"x_min":57,"x_max":593,"o":"m 438 104 q 593 150 521 104 l 593 28 q 419 -14 525 -14 q 156 90 254 -14 q 57 348 57 194 q 156 609 57 501 q 425 717 256 717 q 593 678 517 717 l 593 553 q 427 596 525 596 q 263 526 329 596 q 197 349 197 457 q 263 173 200 242 q 438 104 325 104 z "},"d":{"ha":806,"x_min":57,"x_max":710,"o":"m 572 982 l 710 982 l 710 0 l 572 0 l 572 107 q 358 -10 499 -10 q 138 95 218 -10 q 57 357 57 200 q 142 614 57 514 q 362 714 226 714 q 572 597 497 714 l 572 982 m 197 353 q 197 297 197 353 q 249 175 197 240 q 381 110 301 110 q 517 171 461 110 q 572 355 572 232 q 515 536 572 478 q 380 594 457 594 q 250 530 303 594 q 197 353 197 465 z "},"e":{"ha":729,"x_min":57,"x_max":665,"o":"m 415 -7 q 154 92 251 -7 q 57 355 57 190 q 146 616 57 519 q 371 713 235 713 q 586 628 507 713 q 665 386 665 544 q 657 296 665 343 l 194 296 q 272 156 208 204 q 441 107 336 107 q 621 160 546 107 l 621 38 q 415 -7 543 -7 m 533 403 l 533 428 q 490 553 531 507 q 378 600 450 600 q 256 549 306 600 q 193 403 206 499 l 533 403 z "},"f":{"ha":464,"x_min":42,"x_max":458,"o":"m 392 878 q 290 757 290 878 l 290 704 l 439 704 l 439 599 l 290 599 l 290 0 l 154 0 l 154 599 l 42 599 l 42 704 l 154 704 l 154 758 q 213 931 154 868 q 379 994 272 994 q 458 983 418 994 l 458 864 q 392 878 426 878 z "},"g":{"ha":776,"x_min":60,"x_max":689,"o":"m 553 704 l 689 704 l 689 60 q 597 -185 689 -103 q 364 -268 504 -268 q 131 -222 224 -268 l 131 -85 q 346 -143 219 -143 q 553 61 553 -143 l 553 133 q 357 19 485 19 q 144 108 229 19 q 60 354 60 196 q 139 613 60 513 q 353 714 218 714 q 553 594 489 714 l 553 704 m 203 358 q 203 304 203 358 q 253 193 203 250 q 375 136 304 136 q 499 192 446 136 q 553 362 553 249 q 502 535 553 475 q 374 594 451 594 q 250 530 297 594 q 203 358 203 465 z "},"h":{"ha":765,"x_min":96,"x_max":678,"o":"m 232 982 l 232 583 q 450 714 292 714 q 615 650 553 714 q 678 472 678 586 l 678 0 l 542 0 l 542 444 q 505 556 542 517 q 403 596 468 596 q 285 543 339 596 q 232 382 232 490 l 232 0 l 96 0 l 96 982 l 232 982 z "},"i":{"ha":340,"x_min":85,"x_max":256,"o":"m 109 859 q 97 871 109 859 q 85 919 85 883 q 109 981 85 956 q 169 1006 133 1006 q 231 981 206 1006 q 256 920 256 956 q 231 860 256 885 q 169 835 206 835 q 109 859 133 835 m 101 0 l 101 704 l 239 704 l 239 0 l 101 0 z "},"j":{"ha":336,"x_min":-61,"x_max":257,"o":"m 111 859 q 99 871 111 859 q 86 919 86 883 q 110 981 86 956 q 171 1006 135 1006 q 232 981 207 1006 q 257 920 257 956 q 232 860 257 885 q 172 835 207 835 q 111 859 136 835 m 28 -158 q 104 -60 104 -158 l 104 704 l 240 704 l 240 -62 q 188 -217 240 -161 q 40 -272 136 -272 q -61 -251 -4 -272 l -61 -136 q 28 -158 -17 -158 z "},"k":{"ha":694,"x_min":96,"x_max":671,"o":"m 394 368 l 671 0 l 508 0 l 238 368 l 503 704 l 663 704 l 394 368 m 96 0 l 96 972 l 232 972 l 232 0 l 96 0 z "},"l":{"ha":340,"x_min":101,"x_max":239,"o":"m 101 0 l 101 982 l 239 982 l 239 0 l 101 0 z "},"m":{"ha":1153,"x_min":96,"x_max":1064,"o":"m 232 704 l 232 592 q 431 714 292 714 q 633 578 589 714 q 718 678 663 643 q 843 714 774 714 q 1008 650 951 714 q 1064 474 1064 586 l 1064 0 l 928 0 l 928 444 q 806 596 928 596 q 697 542 744 596 q 649 382 649 488 l 649 0 l 513 0 l 513 444 q 389 596 513 596 q 281 542 329 596 q 232 382 232 488 l 232 0 l 96 0 l 96 704 l 232 704 z "},"n":{"ha":765,"x_min":96,"x_max":678,"o":"m 232 704 l 232 583 q 451 714 294 714 q 617 650 556 714 q 678 476 678 586 l 678 0 l 542 0 l 542 444 q 505 557 542 518 q 401 596 468 596 q 283 540 335 596 q 232 382 232 483 l 232 0 l 96 0 l 96 704 l 232 704 z "},"o":{"ha":783,"x_min":57,"x_max":726,"o":"m 583 350 q 583 404 583 350 q 536 528 583 458 q 394 599 489 599 q 249 527 299 599 q 199 351 199 456 q 250 174 199 246 q 393 103 301 103 q 534 172 485 103 q 583 350 583 242 m 726 351 q 726 272 726 351 q 637 90 726 193 q 391 -12 547 -12 q 146 89 235 -12 q 57 347 57 190 q 149 609 57 504 q 396 714 240 714 q 639 612 551 714 q 726 351 726 510 z "},"p":{"ha":806,"x_min":96,"x_max":749,"o":"m 232 704 l 232 596 q 446 714 304 714 q 668 613 588 714 q 749 355 749 513 q 666 94 749 197 q 444 -10 583 -10 q 232 107 306 -10 l 232 -269 l 96 -269 l 96 704 l 232 704 m 232 356 q 232 294 232 356 q 290 171 232 232 q 425 110 347 110 q 556 174 503 110 q 608 352 608 239 q 557 530 608 465 q 426 594 506 594 q 290 537 347 594 q 232 356 232 479 z "},"q":{"ha":806,"x_min":57,"x_max":710,"o":"m 572 704 l 710 704 l 710 -269 l 572 -269 l 572 108 q 360 -10 497 -10 q 140 94 222 -10 q 57 355 57 197 q 138 613 57 513 q 358 714 219 714 q 572 599 497 714 l 572 704 m 197 352 q 197 296 197 352 q 251 175 197 240 q 382 110 304 110 q 516 171 460 110 q 572 356 572 232 q 515 537 572 479 q 380 594 458 594 q 249 529 301 594 q 197 352 197 464 z "},"r":{"ha":471,"x_min":96,"x_max":460,"o":"m 232 704 l 232 581 q 417 711 283 711 q 460 707 436 711 l 460 574 q 394 586 431 586 q 278 524 324 586 q 232 375 232 461 l 232 0 l 96 0 l 96 704 l 232 704 z "},"s":{"ha":582,"x_min":76,"x_max":536,"o":"m 322 597 q 245 575 274 597 q 217 517 217 553 q 253 451 217 474 q 270 440 264 444 q 291 428 276 435 q 313 417 306 421 q 388 383 333 407 q 490 315 443 360 q 536 185 536 269 q 469 47 536 100 q 283 -7 403 -7 q 81 35 164 -7 l 81 164 q 282 104 178 104 q 366 126 336 104 q 396 182 396 149 q 372 240 396 215 q 324 276 349 264 q 242 313 300 288 q 76 513 76 381 q 146 658 76 606 q 324 711 215 711 q 497 681 433 711 l 497 557 q 322 597 429 597 z "},"t":{"ha":519,"x_min":25,"x_max":465,"o":"m 272 599 l 272 211 q 369 110 272 110 q 465 140 426 110 l 465 18 q 353 -7 419 -7 q 135 214 135 -7 l 135 599 l 25 599 l 25 704 l 135 704 l 135 876 l 272 876 l 272 704 l 457 704 l 457 599 l 272 599 z "},"u":{"ha":765,"x_min":88,"x_max":669,"o":"m 533 704 l 669 704 l 669 0 l 533 0 l 533 121 q 314 -8 478 -8 q 149 53 210 -8 q 88 224 88 115 l 88 704 l 225 704 l 225 257 q 260 147 225 185 q 367 108 296 108 q 485 164 438 108 q 533 321 533 219 l 533 704 z "},"v":{"ha":714,"x_min":26,"x_max":688,"o":"m 276 0 l 26 704 l 169 704 q 356 107 338 181 q 447 407 368 175 l 546 704 l 688 704 l 432 0 l 276 0 z "},"w":{"ha":1106,"x_min":26,"x_max":1079,"o":"m 247 0 l 26 704 l 171 704 q 324 132 308 214 q 483 704 343 226 l 615 704 q 778 131 750 254 q 942 704 794 213 l 1079 704 l 856 0 l 700 0 q 550 556 575 440 q 401 0 532 469 l 247 0 z "},"x":{"ha":683,"x_min":31,"x_max":651,"o":"m 417 357 l 651 0 l 497 0 l 343 258 l 181 0 l 31 0 l 271 358 l 46 706 l 200 706 l 347 457 l 499 706 l 651 706 l 417 357 z "},"y":{"ha":700,"x_min":10,"x_max":682,"o":"m 118 -251 q 54 -244 81 -251 l 54 -128 q 101 -133 76 -133 q 290 15 236 -133 l 10 704 l 161 704 l 249 475 l 358 178 q 538 704 376 236 l 682 704 l 428 19 q 118 -251 326 -251 z "},"z":{"ha":640,"x_min":60,"x_max":581,"o":"m 563 704 l 563 607 l 217 115 l 581 115 l 581 0 l 60 0 l 60 104 l 401 590 l 72 590 l 72 704 l 563 704 z "},"{":{"ha":483,"x_min":64,"x_max":460,"o":"m 64 294 l 64 428 q 99 429 83 428 q 188 479 156 435 q 219 583 219 524 q 207 674 219 613 q 194 771 194 736 q 250 929 194 868 q 386 990 306 990 q 460 978 422 990 l 460 847 q 406 860 436 860 q 353 833 375 860 q 332 770 332 807 q 344 667 332 733 q 357 563 357 601 q 312 428 357 483 q 190 361 267 372 q 312 294 267 350 q 357 158 357 238 q 344 53 357 119 q 332 -49 332 -12 q 353 -112 332 -85 q 406 -139 375 -139 q 460 -126 436 -139 l 460 -257 q 386 -269 422 -269 q 250 -208 306 -269 q 194 -50 194 -147 q 207 47 194 -15 q 219 138 219 108 q 189 242 219 197 q 64 294 151 294 z "},"|":{"ha":338,"x_min":106,"x_max":232,"o":"m 106 -269 l 106 965 l 232 965 l 232 -269 l 106 -269 z "},"}":{"ha":483,"x_min":24,"x_max":419,"o":"m 96 990 q 233 930 178 990 q 288 771 288 869 q 275 674 288 736 q 263 583 263 613 q 294 479 263 524 q 385 429 326 435 q 419 428 399 428 l 419 294 q 297 246 331 294 q 263 138 263 197 q 275 47 263 108 q 288 -50 288 -15 q 233 -209 288 -149 q 96 -269 178 -269 q 24 -257 61 -269 l 24 -126 q 76 -139 44 -139 q 129 -112 107 -139 q 151 -49 151 -85 q 139 53 151 -12 q 126 158 126 119 q 171 294 126 238 q 292 361 215 350 q 171 428 215 372 q 126 563 126 483 q 139 667 126 601 q 151 769 151 733 q 129 833 151 806 q 76 860 107 860 q 24 847 44 860 l 24 978 q 96 990 61 990 z "},"~":{"ha":854,"x_min":47,"x_max":807,"o":"m 596 267 q 430 313 525 267 q 294 360 335 360 q 139 268 207 360 l 47 346 q 269 483 143 483 q 389 460 332 483 q 492 415 446 438 q 576 392 539 392 q 708 474 653 392 l 807 400 q 596 267 719 267 z "}," ":{"ha":342,"x_min":0,"x_max":0,"o":""},"¡":{"ha":364,"x_min":86,"x_max":276,"o":"m 115 -229 l 115 410 l 249 410 l 249 -229 l 115 -229 m 113 556 q 100 569 113 556 q 86 624 86 583 q 113 691 86 664 q 181 718 140 718 q 249 691 221 718 q 276 624 276 664 q 248 556 276 583 q 180 528 219 528 q 113 556 140 528 z "},"¢":{"ha":639,"x_min":57,"x_max":583,"o":"m 442 593 q 265 524 332 593 q 197 349 199 456 q 265 175 200 243 q 442 107 329 107 q 583 146 517 107 l 583 24 q 474 -8 536 1 l 474 -154 l 357 -154 l 357 -7 q 138 114 219 15 q 58 349 57 213 q 138 585 58 485 q 357 707 218 685 l 357 857 l 474 857 l 474 710 q 583 678 532 703 l 583 556 q 442 593 517 593 z "},"£":{"ha":732,"x_min":78,"x_max":681,"o":"m 347 396 l 349 347 q 246 118 349 183 l 681 118 l 681 0 l 78 0 l 78 114 q 178 202 150 150 q 206 347 206 254 q 203 396 206 363 l 83 396 l 83 500 l 192 500 q 182 613 182 571 q 258 836 182 757 q 476 915 335 915 q 639 878 572 915 l 639 744 q 497 786 572 786 q 328 613 328 786 q 336 500 328 578 l 581 500 l 581 396 l 347 396 z "},"¤":{"ha":765,"x_min":44,"x_max":721,"o":"m 248 569 q 221 541 248 569 q 194 433 194 514 q 248 298 194 353 q 384 243 301 243 q 519 297 467 243 q 572 433 572 351 q 519 569 572 514 q 383 624 465 624 q 248 569 301 624 m 126 261 q 78 426 78 331 q 128 600 78 522 l 44 683 l 129 765 l 213 682 q 383 733 288 733 q 557 686 478 733 l 638 765 l 721 683 l 640 603 q 689 434 689 526 q 636 264 689 342 l 721 181 l 638 99 l 551 182 q 380 133 479 133 q 210 179 281 133 l 129 99 l 44 181 l 126 261 z "},"¥":{"ha":833,"x_min":36,"x_max":793,"o":"m 731 503 l 731 408 l 515 408 l 485 353 l 485 296 l 731 296 l 731 201 l 485 201 l 485 0 l 342 0 l 342 201 l 97 201 l 97 296 l 342 296 l 342 353 l 311 408 l 97 408 l 97 503 l 258 503 l 36 908 l 200 908 l 413 492 l 631 908 l 793 908 l 568 503 l 731 503 z "},"¦":{"ha":338,"x_min":106,"x_max":232,"o":"m 232 -222 l 106 -222 l 106 240 l 232 240 l 232 -222 m 232 510 l 106 510 l 106 972 l 232 972 l 232 510 z "},"§":{"ha":746,"x_min":74,"x_max":665,"o":"m 393 817 q 274 788 315 817 q 232 706 232 758 q 272 631 232 658 q 362 582 307 607 q 456 538 417 557 q 528 500 496 519 q 597 450 561 481 q 665 285 665 389 q 607 117 665 182 q 660 -25 660 54 q 574 -210 660 -144 q 342 -275 489 -275 q 93 -215 194 -275 l 93 -67 q 347 -149 203 -149 q 470 -117 426 -149 q 514 -31 514 -86 q 472 58 514 25 q 314 142 431 90 q 135 252 197 193 q 74 407 74 311 q 133 572 74 503 q 83 701 83 625 q 168 881 83 817 q 384 944 253 944 q 604 900 515 944 l 604 758 q 393 817 507 817 m 243 499 q 213 408 213 460 q 256 322 213 356 q 381 254 300 289 q 501 197 461 219 q 528 284 528 232 q 488 368 528 336 q 397 425 449 400 q 335 456 346 450 q 243 499 301 469 z "},"¨":{"ha":617,"x_min":71,"x_max":546,"o":"m 401 940 q 390 952 401 940 q 378 999 378 964 q 401 1058 378 1033 q 461 1082 425 1082 q 522 1058 497 1082 q 546 999 546 1035 q 522 939 546 963 q 461 915 497 915 q 401 940 425 915 m 94 939 q 83 951 94 939 q 71 999 71 963 q 94 1058 71 1035 q 155 1082 118 1082 q 215 1058 192 1082 q 239 999 239 1033 q 215 940 239 964 q 155 915 192 915 q 94 939 118 915 z "},"©":{"ha":1072,"x_min":57,"x_max":1015,"o":"m 424 467 q 425 433 424 467 q 467 355 425 399 q 572 311 508 311 q 685 346 636 311 l 685 243 q 563 214 635 214 q 381 286 451 214 q 310 465 310 358 q 379 647 310 572 q 567 721 449 721 q 685 692 632 721 l 685 590 q 574 621 638 621 q 467 578 510 621 q 424 467 424 536 m 270 733 q 216 678 270 733 q 161 467 161 624 q 270 201 161 310 q 537 92 379 92 q 803 201 694 92 q 911 467 911 310 q 802 733 911 624 q 536 843 693 843 q 270 733 379 843 m 198 129 q 127 200 198 129 q 57 468 57 271 q 198 806 57 665 q 536 947 339 947 q 874 806 733 947 q 1015 468 1015 665 q 874 129 1015 271 q 536 -12 733 -12 q 198 129 339 -12 z "},"ª":{"ha":507,"x_min":6,"x_max":465,"o":"m 50 1107 q 236 1147 121 1147 q 465 922 465 1147 l 465 544 l 351 544 l 351 618 q 192 539 297 539 q 56 586 107 539 q 6 715 6 633 q 70 846 6 797 q 251 894 135 894 l 349 894 l 349 925 q 319 1017 349 986 q 208 1049 290 1049 q 50 997 125 1049 l 50 1107 m 349 808 l 269 808 q 163 785 200 808 q 125 719 125 761 q 151 653 125 676 q 229 631 178 631 q 315 662 281 631 q 349 738 349 693 l 349 808 z "},"«":{"ha":711,"x_min":38,"x_max":665,"o":"m 665 576 l 463 351 l 665 126 l 518 126 l 308 351 l 518 576 l 665 576 m 394 576 l 190 351 l 394 126 l 246 126 l 38 351 l 246 576 l 394 576 z "},"¬":{"ha":785,"x_min":43,"x_max":731,"o":"m 731 213 l 610 213 l 610 458 l 43 458 l 43 575 l 731 575 l 731 213 z "},"­":{"ha":486,"x_min":74,"x_max":413,"o":"m 74 313 l 74 429 l 413 429 l 413 313 l 74 313 z "},"®":{"ha":642,"x_min":14,"x_max":628,"o":"m 101 1007 q 144 1050 101 1007 q 321 1093 188 1093 q 541 1007 454 1093 q 628 788 628 921 q 541 568 628 654 q 321 482 454 482 q 101 568 188 482 q 14 788 14 654 q 101 1007 14 921 m 86 788 q 86 735 86 788 q 151 617 86 682 q 322 551 215 551 q 492 617 428 551 q 557 788 557 682 q 492 959 557 893 q 322 1025 428 1025 q 151 959 215 1025 q 86 788 86 893 m 226 950 l 315 950 q 432 853 432 950 q 382 767 432 792 l 460 644 l 382 644 l 315 756 l 292 756 l 292 644 l 226 644 l 226 950 m 292 896 l 292 808 l 325 808 q 365 852 365 808 q 321 896 365 896 l 292 896 z "},"¯":{"ha":617,"x_min":97,"x_max":519,"o":"m 519 946 l 97 946 l 97 1040 l 519 1040 l 519 946 z "},"°":{"ha":528,"x_min":42,"x_max":486,"o":"m 179 809 q 163 791 179 809 q 146 724 146 774 q 181 638 146 674 q 265 603 215 603 q 349 638 315 603 q 382 724 382 674 q 347 809 382 774 q 263 844 313 844 q 179 809 213 844 m 263 504 q 215 504 263 504 q 105 566 168 504 q 42 722 42 628 q 106 879 42 815 q 265 943 171 943 q 423 881 360 943 q 486 724 486 818 q 422 567 486 631 q 263 504 357 504 z "},"±":{"ha":783,"x_min":74,"x_max":708,"o":"m 451 575 l 708 575 l 708 457 l 451 457 l 451 235 l 325 235 l 325 457 l 74 457 l 74 575 l 325 575 l 325 797 l 451 797 l 451 575 m 74 42 l 74 158 l 708 158 l 708 42 l 74 42 z "},"²":{"ha":507,"x_min":60,"x_max":454,"o":"m 60 544 l 60 624 q 324 954 324 819 q 297 1024 324 1000 q 224 1049 269 1049 q 78 993 153 1049 l 78 1103 q 235 1149 151 1149 q 377 1100 319 1149 q 435 967 435 1051 q 371 797 435 882 q 203 635 307 711 l 454 635 l 454 544 l 60 544 z "},"³":{"ha":463,"x_min":49,"x_max":414,"o":"m 146 892 l 175 892 q 257 913 225 892 q 289 975 289 935 q 197 1054 289 1054 q 67 1008 133 1054 l 67 1111 q 211 1149 126 1149 q 347 1102 296 1149 q 399 993 399 1056 q 289 849 399 872 q 378 804 342 843 q 414 699 414 765 q 361 585 414 632 q 213 539 308 539 q 49 574 118 539 l 49 671 q 186 632 122 632 q 306 715 306 632 q 175 801 306 801 l 146 801 l 146 892 z "},"´":{"ha":617,"x_min":168,"x_max":451,"o":"m 168 883 l 300 1108 l 451 1108 l 285 883 l 168 883 z "},"µ":{"ha":774,"x_min":96,"x_max":678,"o":"m 542 704 l 678 704 l 678 0 l 542 0 l 542 100 q 368 -8 492 -8 q 232 32 289 -8 l 232 -249 l 96 -249 l 96 704 l 232 704 l 232 257 q 277 147 232 186 q 392 108 322 108 q 501 163 461 108 q 542 321 542 218 l 542 704 z "},"¶":{"ha":776,"x_min":29,"x_max":678,"o":"m 678 936 l 678 -206 l 563 -206 l 564 936 l 678 936 m 413 936 l 413 -206 l 299 -206 l 299 464 q 100 531 171 464 q 29 697 29 599 q 101 866 29 796 q 308 936 172 936 l 413 936 z "},"·":{"ha":336,"x_min":75,"x_max":263,"o":"m 103 350 q 89 364 103 350 q 75 417 75 378 q 102 483 75 456 q 169 510 129 510 q 235 483 208 510 q 263 417 263 456 q 235 350 263 378 q 169 322 208 322 q 103 350 131 322 z "},"¸":{"ha":617,"x_min":197,"x_max":418,"o":"m 393 -71 q 418 -177 418 -106 q 361 -302 418 -249 q 197 -357 304 -356 l 197 -262 q 311 -167 311 -256 q 276 -71 311 -122 l 393 -71 z "},"¹":{"ha":358,"x_min":14,"x_max":269,"o":"m 269 1143 l 269 544 l 165 544 l 165 1025 l 14 942 l 14 1046 l 183 1143 l 269 1143 z "},"º":{"ha":549,"x_min":-1,"x_max":550,"o":"m 429 842 q 429 889 429 842 q 392 994 429 935 q 276 1054 354 1054 q 158 993 199 1054 q 118 842 118 932 q 160 692 118 753 q 276 632 201 632 q 390 691 350 632 q 429 842 429 750 m 550 844 q 550 777 550 844 q 477 623 550 710 q 274 536 404 536 q 72 622 144 536 q -1 840 -1 707 q 74 1062 -1 974 q 278 1150 149 1150 q 478 1064 407 1150 q 550 844 550 978 z "},"»":{"ha":714,"x_min":46,"x_max":674,"o":"m 465 576 l 674 351 l 465 126 l 318 126 l 521 351 l 318 576 l 465 576 m 193 576 l 403 351 l 193 126 l 46 126 l 249 351 l 46 576 l 193 576 z "},"¿":{"ha":631,"x_min":71,"x_max":581,"o":"m 466 691 q 480 677 466 691 q 493 624 493 664 q 466 556 493 583 q 399 529 439 529 q 331 556 358 529 q 303 624 303 583 q 331 691 303 664 q 399 718 358 718 q 466 691 439 718 m 581 -189 q 358 -240 486 -240 q 150 -173 229 -240 q 71 14 71 -106 q 114 156 71 96 q 331 271 192 261 l 332 411 l 461 411 l 463 186 q 211 25 211 186 q 252 -80 211 -40 q 386 -119 293 -119 q 581 -54 479 -119 l 581 -189 z "},"À":{"ha":917,"x_min":43,"x_max":874,"o":"m 721 0 l 647 229 l 269 229 l 194 0 l 43 0 l 367 936 l 554 936 l 874 0 l 721 0 m 308 349 l 608 349 q 460 828 488 722 q 308 349 450 788 m 513 1007 l 396 1007 l 229 1232 l 381 1232 l 513 1007 z "},"Á":{"ha":917,"x_min":43,"x_max":874,"o":"m 721 0 l 647 229 l 269 229 l 194 0 l 43 0 l 367 936 l 554 936 l 874 0 l 721 0 m 308 349 l 608 349 q 460 828 488 722 q 308 349 450 788 m 697 1232 l 531 1007 l 414 1007 l 546 1232 l 697 1232 z "},"Â":{"ha":917,"x_min":43,"x_max":874,"o":"m 721 0 l 647 229 l 269 229 l 194 0 l 43 0 l 367 936 l 554 936 l 874 0 l 721 0 m 308 349 l 608 349 q 460 828 488 722 q 308 349 450 788 m 461 1149 l 347 1007 l 213 1007 l 400 1232 l 525 1232 l 713 1007 l 578 1007 l 461 1149 z "},"Ã":{"ha":917,"x_min":43,"x_max":874,"o":"m 721 0 l 647 229 l 269 229 l 194 0 l 43 0 l 367 936 l 554 936 l 874 0 l 721 0 m 308 349 l 608 349 q 460 828 488 722 q 308 349 450 788 m 556 1044 q 459 1073 515 1044 q 375 1101 403 1101 q 283 1038 326 1101 l 215 1100 q 274 1173 235 1143 q 360 1203 314 1203 q 464 1174 406 1203 q 549 1146 522 1146 q 629 1206 600 1146 l 707 1147 q 556 1044 658 1044 z "},"Ä":{"ha":917,"x_min":43,"x_max":874,"o":"m 721 0 l 647 229 l 269 229 l 194 0 l 43 0 l 367 936 l 554 936 l 874 0 l 721 0 m 308 349 l 608 349 q 460 828 488 722 q 308 349 450 788 m 396 1121 q 396 1103 396 1121 q 372 1062 396 1086 q 311 1038 347 1038 q 251 1061 275 1038 q 228 1121 228 1085 q 251 1181 228 1157 q 311 1204 275 1204 q 372 1180 347 1204 q 396 1121 396 1156 m 703 1121 q 703 1103 703 1121 q 678 1061 703 1085 q 619 1038 654 1038 q 559 1062 583 1038 q 535 1121 535 1086 q 559 1180 535 1156 q 619 1204 583 1204 q 678 1181 654 1204 q 703 1121 703 1157 z "},"Å":{"ha":917,"x_min":43,"x_max":874,"o":"m 721 0 l 647 229 l 269 229 l 194 0 l 43 0 l 367 936 l 554 936 l 874 0 l 721 0 m 308 349 l 608 349 q 460 828 488 722 q 308 349 450 788 m 624 1152 q 624 1119 624 1152 q 576 1040 624 1086 q 463 993 529 993 q 351 1040 397 993 q 304 1152 304 1086 q 351 1265 304 1218 q 463 1313 397 1313 q 576 1265 529 1313 q 624 1152 624 1218 m 538 1154 q 538 1169 538 1154 q 516 1207 538 1185 q 463 1229 494 1229 q 410 1207 432 1229 q 389 1154 389 1185 q 410 1101 389 1124 q 463 1078 432 1078 q 516 1101 494 1078 q 538 1154 538 1124 z "},"Æ":{"ha":1246,"x_min":26,"x_max":1174,"o":"m 776 119 l 1174 119 l 1174 0 l 638 0 l 638 229 l 303 229 l 176 0 l 26 0 l 535 936 l 1167 936 l 1167 817 l 776 817 l 776 528 l 1122 528 l 1122 408 l 776 408 l 776 119 m 638 349 l 638 844 q 369 349 567 701 l 638 349 z "},"Ç":{"ha":840,"x_min":64,"x_max":779,"o":"m 542 817 q 308 722 401 817 q 214 468 214 626 q 307 215 214 310 q 544 121 400 121 q 779 190 688 121 l 779 46 q 540 -11 693 -11 q 197 119 331 -11 q 64 466 64 250 q 198 815 64 682 q 538 949 332 949 q 778 897 688 949 l 778 757 q 667 803 717 790 q 542 817 618 817 m 572 -71 q 597 -177 597 -106 q 540 -302 597 -249 q 376 -357 483 -356 l 376 -262 q 490 -167 490 -256 q 456 -71 490 -122 l 572 -71 z "},"È":{"ha":714,"x_min":101,"x_max":642,"o":"m 244 119 l 642 119 l 642 0 l 101 0 l 101 936 l 635 936 l 635 817 l 244 817 l 244 528 l 590 528 l 590 408 l 244 408 l 244 119 m 454 1007 l 338 1007 l 171 1232 l 322 1232 l 454 1007 z "},"É":{"ha":714,"x_min":101,"x_max":642,"o":"m 244 119 l 642 119 l 642 0 l 101 0 l 101 936 l 635 936 l 635 817 l 244 817 l 244 528 l 590 528 l 590 408 l 244 408 l 244 119 m 614 1232 l 447 1007 l 331 1007 l 463 1232 l 614 1232 z "},"Ê":{"ha":714,"x_min":101,"x_max":642,"o":"m 244 119 l 642 119 l 642 0 l 101 0 l 101 936 l 635 936 l 635 817 l 244 817 l 244 528 l 590 528 l 590 408 l 244 408 l 244 119 m 378 1149 l 264 1007 l 129 1007 l 317 1232 l 442 1232 l 629 1007 l 494 1007 l 378 1149 z "},"Ë":{"ha":714,"x_min":101,"x_max":642,"o":"m 244 119 l 642 119 l 642 0 l 101 0 l 101 936 l 635 936 l 635 817 l 244 817 l 244 528 l 590 528 l 590 408 l 244 408 l 244 119 m 304 1119 q 304 1101 304 1119 q 280 1060 304 1083 q 219 1036 256 1036 q 160 1060 183 1036 q 136 1119 136 1083 q 160 1179 136 1156 q 219 1203 183 1203 q 280 1179 256 1203 q 304 1119 304 1156 m 611 1119 q 611 1101 611 1119 q 587 1060 611 1083 q 527 1036 563 1036 q 467 1060 492 1036 q 443 1119 443 1083 q 467 1179 443 1156 q 527 1203 492 1203 q 587 1179 563 1203 q 611 1119 611 1156 z "},"Ì":{"ha":367,"x_min":-49,"x_max":254,"o":"m 103 1232 l 235 1007 l 118 1007 l -49 1232 l 103 1232 m 113 0 l 113 936 l 254 936 l 254 0 l 113 0 z "},"Í":{"ha":367,"x_min":113,"x_max":414,"o":"m 131 1007 l 263 1232 l 414 1232 l 247 1007 l 131 1007 m 113 0 l 113 936 l 254 936 l 254 0 l 113 0 z "},"Î":{"ha":367,"x_min":-65,"x_max":435,"o":"m 113 0 l 113 936 l 254 936 l 254 0 l 113 0 m 122 1232 l 247 1232 l 435 1007 l 300 1007 l 183 1149 l 69 1007 l -65 1007 l 122 1232 z "},"Ï":{"ha":367,"x_min":-50,"x_max":425,"o":"m 281 1062 q 269 1074 281 1062 q 257 1121 257 1086 q 281 1180 257 1156 q 341 1204 306 1204 q 401 1181 376 1204 q 425 1121 425 1157 q 401 1061 425 1085 q 341 1038 376 1038 q 281 1062 306 1038 m -26 1061 q -38 1073 -26 1061 q -50 1121 -50 1085 q -26 1181 -50 1157 q 33 1204 -3 1204 q 94 1180 69 1204 q 118 1121 118 1156 q 94 1062 118 1086 q 33 1038 69 1038 q -26 1061 -3 1038 m 113 0 l 113 936 l 254 936 l 254 0 l 113 0 z "},"Ð":{"ha":1022,"x_min":86,"x_max":963,"o":"m 197 936 l 488 936 q 829 807 696 936 q 963 474 963 678 q 837 135 963 269 q 490 0 711 0 l 197 0 l 197 408 l 86 408 l 86 525 l 197 525 l 197 936 m 342 121 l 489 121 q 733 221 650 121 q 817 472 817 321 q 726 718 817 622 q 485 814 635 814 l 342 814 l 342 525 l 569 525 l 569 408 l 342 408 l 342 121 z "},"Ñ":{"ha":944,"x_min":101,"x_max":843,"o":"m 578 1044 q 481 1073 538 1044 q 397 1101 425 1101 q 306 1038 349 1101 l 238 1100 q 297 1173 257 1143 q 382 1203 336 1203 q 486 1174 428 1203 q 571 1146 544 1146 q 651 1206 622 1146 l 729 1147 q 578 1044 681 1044 m 101 0 l 101 936 l 271 936 q 708 172 631 325 q 700 543 700 299 l 700 936 l 843 936 l 843 0 l 674 0 q 233 765 319 596 q 244 392 244 626 l 244 0 l 101 0 z "},"Ò":{"ha":988,"x_min":64,"x_max":924,"o":"m 433 1232 l 565 1007 l 449 1007 l 282 1232 l 433 1232 m 288 727 q 251 680 288 727 q 214 472 214 633 q 290 217 214 311 q 497 122 367 122 q 700 215 626 122 q 774 472 774 308 q 699 728 774 635 q 494 821 625 821 q 288 727 363 821 m 495 -11 q 397 -11 495 -11 q 181 121 299 -11 q 64 472 64 253 q 181 822 64 690 q 495 954 297 954 q 808 823 693 954 q 924 472 924 692 q 808 121 924 253 q 495 -11 692 -11 z "},"Ó":{"ha":988,"x_min":64,"x_max":924,"o":"m 288 727 q 251 680 288 727 q 214 472 214 633 q 290 217 214 311 q 497 122 367 122 q 700 215 626 122 q 774 472 774 308 q 699 728 774 635 q 494 821 625 821 q 288 727 363 821 m 495 -11 q 397 -11 495 -11 q 181 121 299 -11 q 64 472 64 253 q 181 822 64 690 q 495 954 297 954 q 808 823 693 954 q 924 472 924 692 q 808 121 924 253 q 495 -11 692 -11 m 444 1007 l 576 1232 l 728 1232 l 561 1007 l 444 1007 z "},"Ô":{"ha":988,"x_min":64,"x_max":924,"o":"m 440 1232 l 565 1232 l 753 1007 l 618 1007 l 501 1149 l 388 1007 l 253 1007 l 440 1232 m 495 -11 q 397 -11 495 -11 q 181 121 299 -11 q 64 472 64 253 q 181 822 64 690 q 495 954 297 954 q 808 823 693 954 q 924 472 924 692 q 808 121 924 253 q 495 -11 692 -11 m 288 727 q 251 680 288 727 q 214 472 214 633 q 290 217 214 311 q 497 122 367 122 q 700 215 626 122 q 774 472 774 308 q 699 728 774 635 q 494 821 625 821 q 288 727 363 821 z "},"Õ":{"ha":988,"x_min":64,"x_max":924,"o":"m 590 1046 q 494 1074 550 1046 q 411 1103 438 1103 q 318 1039 361 1103 l 250 1101 q 309 1174 269 1144 q 394 1204 349 1204 q 499 1176 440 1204 q 583 1147 557 1147 q 664 1207 635 1147 l 742 1149 q 590 1046 693 1046 m 288 727 q 251 680 288 727 q 214 472 214 633 q 290 217 214 311 q 497 122 367 122 q 700 215 626 122 q 774 472 774 308 q 699 728 774 635 q 494 821 625 821 q 288 727 363 821 m 495 -11 q 397 -11 495 -11 q 181 121 299 -11 q 64 472 64 253 q 181 822 64 690 q 495 954 297 954 q 808 823 693 954 q 924 472 924 692 q 808 121 924 253 q 495 -11 692 -11 z "},"Ö":{"ha":988,"x_min":64,"x_max":924,"o":"m 288 727 q 251 680 288 727 q 214 472 214 633 q 290 217 214 311 q 497 122 367 122 q 700 215 626 122 q 774 472 774 308 q 699 728 774 635 q 494 821 625 821 q 288 727 363 821 m 495 -11 q 397 -11 495 -11 q 181 121 299 -11 q 64 472 64 253 q 181 822 64 690 q 495 954 297 954 q 808 823 693 954 q 924 472 924 692 q 808 121 924 253 q 495 -11 692 -11 m 595 1062 q 583 1074 595 1062 q 571 1121 571 1086 q 595 1180 571 1156 q 655 1204 619 1204 q 715 1181 690 1204 q 739 1121 739 1157 q 715 1061 739 1085 q 655 1038 690 1038 q 595 1062 619 1038 m 288 1061 q 276 1073 288 1061 q 264 1121 264 1085 q 288 1181 264 1157 q 347 1204 311 1204 q 408 1180 383 1204 q 432 1121 432 1156 q 408 1062 432 1086 q 347 1038 383 1038 q 288 1061 311 1038 z "},"×":{"ha":699,"x_min":75,"x_max":621,"o":"m 621 656 l 436 472 l 618 292 l 531 204 l 349 385 l 168 206 l 79 293 l 260 474 l 75 657 l 163 744 l 347 561 l 532 744 l 621 656 z "},"Ø":{"ha":953,"x_min":56,"x_max":918,"o":"m 813 810 q 917 466 917 679 q 801 121 917 253 q 488 -11 685 -11 q 250 56 351 -11 l 200 -11 l 56 -11 l 163 133 q 56 477 56 264 q 172 822 56 690 q 486 954 289 954 q 725 889 622 954 l 774 953 l 918 953 l 813 810 m 486 826 q 278 731 354 826 q 203 489 203 636 q 253 253 203 342 l 644 781 q 486 826 582 826 m 488 117 q 695 212 621 117 q 769 472 769 307 q 722 690 769 603 l 331 164 q 488 117 397 117 z "},"Ù":{"ha":906,"x_min":99,"x_max":807,"o":"m 385 1232 l 517 1007 l 400 1007 l 233 1232 l 385 1232 m 664 356 l 664 936 l 807 936 l 807 358 q 713 82 807 176 q 453 -12 618 -12 q 193 80 288 -12 q 99 347 99 172 l 99 936 l 242 936 l 242 349 q 299 174 242 229 q 451 119 357 119 q 664 356 664 119 z "},"Ú":{"ha":906,"x_min":99,"x_max":807,"o":"m 664 356 l 664 936 l 807 936 l 807 358 q 713 82 807 176 q 453 -12 618 -12 q 193 80 288 -12 q 99 347 99 172 l 99 936 l 242 936 l 242 349 q 299 174 242 229 q 451 119 357 119 q 664 356 664 119 m 413 1007 l 544 1232 l 696 1232 l 529 1007 l 413 1007 z "},"Û":{"ha":906,"x_min":99,"x_max":807,"o":"m 392 1232 l 517 1232 l 704 1007 l 569 1007 l 453 1149 l 339 1007 l 204 1007 l 392 1232 m 664 356 l 664 936 l 807 936 l 807 358 q 713 82 807 176 q 453 -12 618 -12 q 193 80 288 -12 q 99 347 99 172 l 99 936 l 242 936 l 242 349 q 299 174 242 229 q 451 119 357 119 q 664 356 664 119 z "},"Ü":{"ha":906,"x_min":99,"x_max":807,"o":"m 664 356 l 664 936 l 807 936 l 807 358 q 713 82 807 176 q 453 -12 618 -12 q 193 80 288 -12 q 99 347 99 172 l 99 936 l 242 936 l 242 349 q 299 174 242 229 q 451 119 357 119 q 664 356 664 119 m 549 1062 q 537 1074 549 1062 q 525 1121 525 1086 q 549 1180 525 1156 q 608 1204 572 1204 q 669 1181 644 1204 q 693 1121 693 1157 q 669 1061 693 1085 q 608 1038 644 1038 q 549 1062 572 1038 m 242 1061 q 230 1073 242 1061 q 218 1121 218 1085 q 242 1181 218 1157 q 302 1204 265 1204 q 363 1180 339 1204 q 386 1121 386 1156 q 363 1062 386 1086 q 302 1038 339 1038 q 242 1061 265 1038 z "},"Ý":{"ha":844,"x_min":32,"x_max":813,"o":"m 492 0 l 349 0 l 349 349 l 32 936 l 196 936 q 419 465 394 525 q 581 799 432 507 l 649 936 l 813 936 l 492 349 l 492 0 m 669 1232 l 503 1007 l 386 1007 l 518 1232 l 669 1232 z "},"Þ":{"ha":756,"x_min":101,"x_max":713,"o":"m 244 769 l 363 769 q 620 685 528 769 q 713 466 713 601 q 619 249 713 331 q 371 167 526 167 l 244 167 l 244 0 l 101 0 l 101 936 l 244 936 l 244 769 m 244 285 l 368 285 q 518 334 468 285 q 568 465 568 383 q 517 599 568 547 q 360 651 467 651 l 244 651 l 244 285 z "},"ß":{"ha":775,"x_min":99,"x_max":738,"o":"m 367 136 q 485 103 426 103 q 574 128 543 103 q 606 190 606 153 q 585 256 606 228 q 533 308 564 285 q 472 356 503 331 q 400 489 400 413 q 451 614 400 544 q 503 731 503 683 q 469 806 503 778 q 381 835 436 835 q 233 681 233 835 l 233 0 l 99 0 l 99 675 q 174 886 99 814 q 372 958 249 958 q 569 894 496 958 q 642 738 642 829 q 617 634 642 679 q 567 558 592 589 q 543 500 543 526 q 574 444 543 474 q 640 390 604 415 q 707 313 676 364 q 738 199 738 263 q 674 47 738 106 q 499 -11 610 -11 q 367 11 417 -11 l 367 136 z "},"à":{"ha":693,"x_min":60,"x_max":606,"o":"m 329 715 q 606 447 606 715 l 606 0 l 471 0 l 471 83 q 281 -6 417 -6 q 120 52 181 -6 q 60 205 60 110 q 136 356 60 300 q 350 413 213 413 l 467 413 l 467 453 q 432 562 467 525 q 317 599 397 599 q 113 536 204 599 l 113 668 q 329 715 194 715 m 467 314 l 361 314 q 244 283 283 314 q 204 205 204 253 q 235 129 204 157 q 328 101 265 101 q 428 138 390 101 q 467 235 467 175 l 467 314 m 418 775 l 301 775 l 135 1000 l 286 1000 l 418 775 z "},"á":{"ha":693,"x_min":60,"x_max":606,"o":"m 329 715 q 606 447 606 715 l 606 0 l 471 0 l 471 83 q 281 -6 417 -6 q 120 52 181 -6 q 60 205 60 110 q 136 356 60 300 q 350 413 213 413 l 467 413 l 467 453 q 432 562 467 525 q 317 599 397 599 q 113 536 204 599 l 113 668 q 329 715 194 715 m 467 314 l 361 314 q 244 283 283 314 q 204 205 204 253 q 235 129 204 157 q 328 101 265 101 q 428 138 390 101 q 467 235 467 175 l 467 314 m 582 1000 l 415 775 l 299 775 l 431 1000 l 582 1000 z "},"â":{"ha":693,"x_min":60,"x_max":606,"o":"m 329 715 q 606 447 606 715 l 606 0 l 471 0 l 471 83 q 281 -6 417 -6 q 120 52 181 -6 q 60 205 60 110 q 136 356 60 300 q 350 413 213 413 l 467 413 l 467 453 q 432 562 467 525 q 317 599 397 599 q 113 536 204 599 l 113 668 q 329 715 194 715 m 467 314 l 361 314 q 244 283 283 314 q 204 205 204 253 q 235 129 204 157 q 328 101 265 101 q 428 138 390 101 q 467 235 467 175 l 467 314 m 353 917 l 239 775 l 104 775 l 292 1000 l 417 1000 l 604 775 l 469 775 l 353 917 z "},"ã":{"ha":693,"x_min":60,"x_max":606,"o":"m 329 715 q 606 447 606 715 l 606 0 l 471 0 l 471 83 q 281 -6 417 -6 q 120 52 181 -6 q 60 205 60 110 q 136 356 60 300 q 350 413 213 413 l 467 413 l 467 453 q 432 562 467 525 q 317 599 397 599 q 113 536 204 599 l 113 668 q 329 715 194 715 m 467 314 l 361 314 q 244 283 283 314 q 204 205 204 253 q 235 129 204 157 q 328 101 265 101 q 428 138 390 101 q 467 235 467 175 l 467 314 m 444 813 q 348 841 404 813 q 264 869 292 869 q 172 806 215 869 l 104 868 q 163 941 124 911 q 249 971 203 971 q 353 942 294 971 q 438 914 411 914 q 518 974 489 914 l 596 915 q 444 813 547 813 z "},"ä":{"ha":693,"x_min":60,"x_max":606,"o":"m 329 715 q 606 447 606 715 l 606 0 l 471 0 l 471 83 q 281 -6 417 -6 q 120 52 181 -6 q 60 205 60 110 q 136 356 60 300 q 350 413 213 413 l 467 413 l 467 453 q 432 562 467 525 q 317 599 397 599 q 113 536 204 599 l 113 668 q 329 715 194 715 m 467 314 l 361 314 q 244 283 283 314 q 204 205 204 253 q 235 129 204 157 q 328 101 265 101 q 428 138 390 101 q 467 235 467 175 l 467 314 m 286 886 q 286 868 286 886 q 263 826 286 850 q 202 803 239 803 q 142 826 165 803 q 118 886 118 850 q 142 946 118 922 q 202 969 165 969 q 263 946 239 969 q 286 886 286 922 m 569 826 q 557 815 569 826 q 508 803 544 803 q 449 826 472 803 q 425 886 425 850 q 449 946 425 922 q 508 969 472 969 q 569 946 544 969 q 593 886 593 922 q 569 826 593 850 z "},"å":{"ha":693,"x_min":60,"x_max":606,"o":"m 329 715 q 606 447 606 715 l 606 0 l 471 0 l 471 83 q 281 -6 417 -6 q 120 52 181 -6 q 60 205 60 110 q 136 356 60 300 q 350 413 213 413 l 467 413 l 467 453 q 432 562 467 525 q 317 599 397 599 q 113 536 204 599 l 113 668 q 329 715 194 715 m 467 314 l 361 314 q 244 283 283 314 q 204 205 204 253 q 235 129 204 157 q 328 101 265 101 q 428 138 390 101 q 467 235 467 175 l 467 314 m 517 920 q 517 887 517 920 q 469 808 517 854 q 356 761 422 761 q 244 808 290 761 q 197 920 197 854 q 244 1033 197 986 q 356 1081 290 1081 q 469 1033 422 1081 q 517 920 517 986 m 431 922 q 431 938 431 922 q 409 975 431 953 q 356 997 388 997 q 303 975 325 997 q 282 922 282 953 q 303 869 282 892 q 356 846 325 846 q 409 869 388 846 q 431 922 431 892 z "},"æ":{"ha":1133,"x_min":67,"x_max":1078,"o":"m 610 296 q 688 156 625 204 q 853 107 751 107 q 1029 160 954 107 l 1029 38 q 847 -7 951 -7 q 666 30 743 -7 q 549 133 589 67 q 459 33 522 72 q 294 -7 396 -7 q 130 49 193 -7 q 67 202 67 104 q 144 357 67 300 q 360 414 221 414 l 474 414 l 474 453 q 439 562 474 525 q 308 599 404 599 q 119 538 213 599 l 119 667 q 331 715 200 715 q 553 597 504 715 q 789 713 631 713 q 1002 628 926 713 q 1078 382 1078 543 q 1069 296 1078 343 l 610 296 m 946 403 l 946 428 q 903 555 944 510 q 791 600 861 600 q 670 550 721 600 q 607 403 619 500 l 946 403 m 474 243 l 474 313 l 381 313 q 210 204 210 313 q 240 130 210 157 q 331 103 271 103 q 433 141 392 103 q 474 243 474 179 z "},"ç":{"ha":654,"x_min":57,"x_max":593,"o":"m 458 -71 q 483 -177 483 -106 q 426 -302 483 -249 q 263 -357 369 -356 l 263 -262 q 376 -167 376 -256 q 342 -71 376 -122 l 458 -71 m 438 104 q 593 150 521 104 l 593 28 q 419 -14 525 -14 q 156 90 254 -14 q 57 348 57 194 q 156 609 57 501 q 425 717 256 717 q 593 678 517 717 l 593 553 q 427 596 525 596 q 263 526 329 596 q 197 349 197 457 q 263 173 200 242 q 438 104 325 104 z "},"è":{"ha":729,"x_min":57,"x_max":665,"o":"m 415 -7 q 154 92 251 -7 q 57 355 57 190 q 146 616 57 519 q 371 713 235 713 q 586 628 507 713 q 665 386 665 544 q 657 296 665 343 l 194 296 q 272 156 208 204 q 441 107 336 107 q 621 160 546 107 l 621 38 q 415 -7 543 -7 m 533 403 l 533 428 q 490 553 531 507 q 378 600 450 600 q 256 549 306 600 q 193 403 206 499 l 533 403 m 450 775 l 333 775 l 167 1000 l 318 1000 l 450 775 z "},"é":{"ha":729,"x_min":57,"x_max":665,"o":"m 415 -7 q 154 92 251 -7 q 57 355 57 190 q 146 616 57 519 q 371 713 235 713 q 586 628 507 713 q 665 386 665 544 q 657 296 665 343 l 194 296 q 272 156 208 204 q 441 107 336 107 q 621 160 546 107 l 621 38 q 415 -7 543 -7 m 533 403 l 533 428 q 490 553 531 507 q 378 600 450 600 q 256 549 306 600 q 193 403 206 499 l 533 403 m 622 1000 l 456 775 l 339 775 l 471 1000 l 622 1000 z "},"ê":{"ha":729,"x_min":57,"x_max":665,"o":"m 415 -7 q 154 92 251 -7 q 57 355 57 190 q 146 616 57 519 q 371 713 235 713 q 586 628 507 713 q 665 386 665 544 q 657 296 665 343 l 194 296 q 272 156 208 204 q 441 107 336 107 q 621 160 546 107 l 621 38 q 415 -7 543 -7 m 533 403 l 533 428 q 490 553 531 507 q 378 600 450 600 q 256 549 306 600 q 193 403 206 499 l 533 403 m 385 917 l 271 775 l 136 775 l 324 1000 l 449 1000 l 636 775 l 501 775 l 385 917 z "},"ë":{"ha":729,"x_min":57,"x_max":665,"o":"m 415 -7 q 154 92 251 -7 q 57 355 57 190 q 146 616 57 519 q 371 713 235 713 q 586 628 507 713 q 665 386 665 544 q 657 296 665 343 l 194 296 q 272 156 208 204 q 441 107 336 107 q 621 160 546 107 l 621 38 q 415 -7 543 -7 m 533 403 l 533 428 q 490 553 531 507 q 378 600 450 600 q 256 549 306 600 q 193 403 206 499 l 533 403 m 322 889 q 322 871 322 889 q 299 829 322 853 q 238 806 275 806 q 178 829 201 806 q 154 889 154 853 q 178 949 154 925 q 238 972 201 972 q 299 949 275 972 q 322 889 322 925 m 605 829 q 593 817 605 829 q 544 806 581 806 q 485 829 508 806 q 461 889 461 853 q 485 949 461 925 q 544 972 508 972 q 605 949 581 972 q 629 889 629 925 q 605 829 629 853 z "},"ì":{"ha":340,"x_min":-64,"x_max":239,"o":"m 88 1000 l 219 775 l 103 775 l -64 1000 l 88 1000 m 101 0 l 101 704 l 239 704 l 239 0 l 101 0 z "},"í":{"ha":340,"x_min":101,"x_max":406,"o":"m 122 775 l 254 1000 l 406 1000 l 239 775 l 122 775 m 101 0 l 101 704 l 239 704 l 239 0 l 101 0 z "},"î":{"ha":340,"x_min":-78,"x_max":422,"o":"m 101 0 l 101 704 l 239 704 l 239 0 l 101 0 m 110 1000 l 235 1000 l 422 775 l 288 775 l 171 917 l 57 775 l -78 775 l 110 1000 z "},"ï":{"ha":340,"x_min":-67,"x_max":408,"o":"m 265 831 q 252 843 265 831 q 240 890 240 856 q 265 949 240 925 q 324 974 289 974 q 384 950 360 974 q 408 890 408 926 q 384 831 408 854 q 324 807 360 807 q 265 831 289 807 m -43 831 q -55 842 -43 831 q -67 890 -67 854 q -43 950 -67 926 q 17 974 -19 974 q 77 949 53 974 q 101 890 101 925 q 77 831 101 856 q 17 807 53 807 q -43 831 -19 807 m 101 0 l 101 704 l 239 704 l 239 0 l 101 0 z "},"ð":{"ha":733,"x_min":51,"x_max":671,"o":"m 671 382 q 588 91 671 194 q 361 -12 504 -12 q 135 74 218 -12 q 51 285 51 160 q 131 488 51 411 q 330 564 211 564 q 531 478 449 564 q 418 735 507 615 l 222 636 l 222 729 l 361 799 q 181 936 282 879 l 378 936 q 474 856 429 901 l 640 939 l 640 846 l 529 790 q 671 382 671 604 m 193 277 q 193 239 193 277 q 238 156 193 200 q 356 111 283 111 q 479 167 429 111 q 536 347 529 222 q 349 443 461 443 q 236 399 279 443 q 193 277 193 354 z "},"ñ":{"ha":765,"x_min":96,"x_max":678,"o":"m 232 704 l 232 583 q 451 714 294 714 q 617 650 556 714 q 678 476 678 586 l 678 0 l 542 0 l 542 444 q 505 557 542 518 q 401 596 468 596 q 283 540 335 596 q 232 382 232 483 l 232 0 l 96 0 l 96 704 l 232 704 m 488 813 q 391 841 447 813 q 308 869 335 869 q 215 806 258 869 l 147 868 q 206 941 167 911 q 292 971 246 971 q 396 942 338 971 q 481 914 454 914 q 561 974 532 914 l 639 915 q 488 813 590 813 z "},"ò":{"ha":783,"x_min":57,"x_max":726,"o":"m 325 1000 l 457 775 l 340 775 l 174 1000 l 325 1000 m 583 350 q 583 404 583 350 q 536 528 583 458 q 394 599 489 599 q 249 527 299 599 q 199 351 199 456 q 250 174 199 246 q 393 103 301 103 q 534 172 485 103 q 583 350 583 242 m 726 351 q 726 272 726 351 q 637 90 726 193 q 391 -12 547 -12 q 146 89 235 -12 q 57 347 57 190 q 149 609 57 504 q 396 714 240 714 q 639 612 551 714 q 726 351 726 510 z "},"ó":{"ha":783,"x_min":57,"x_max":726,"o":"m 583 350 q 583 404 583 350 q 536 528 583 458 q 394 599 489 599 q 249 527 299 599 q 199 351 199 456 q 250 174 199 246 q 393 103 301 103 q 534 172 485 103 q 583 350 583 242 m 726 351 q 726 272 726 351 q 637 90 726 193 q 391 -12 547 -12 q 146 89 235 -12 q 57 347 57 190 q 149 609 57 504 q 396 714 240 714 q 639 612 551 714 q 726 351 726 510 m 350 775 l 482 1000 l 633 1000 l 467 775 l 350 775 z "},"ô":{"ha":783,"x_min":57,"x_max":726,"o":"m 333 999 l 458 999 l 646 774 l 511 774 l 394 915 l 281 774 l 146 774 l 333 999 m 726 351 q 726 272 726 351 q 637 90 726 193 q 391 -12 547 -12 q 146 89 235 -12 q 57 347 57 190 q 149 609 57 504 q 396 714 240 714 q 639 612 551 714 q 726 351 726 510 m 583 350 q 583 404 583 350 q 536 528 583 458 q 394 599 489 599 q 249 527 299 599 q 199 351 199 456 q 250 174 199 246 q 393 103 301 103 q 534 172 485 103 q 583 350 583 242 z "},"õ":{"ha":783,"x_min":57,"x_max":726,"o":"m 490 813 q 394 841 450 813 q 311 869 338 869 q 218 806 261 869 l 150 868 q 209 941 169 911 q 294 971 249 971 q 399 942 340 971 q 483 914 457 914 q 564 974 535 914 l 642 915 q 490 813 593 813 m 583 350 q 583 404 583 350 q 536 528 583 458 q 394 599 489 599 q 249 527 299 599 q 199 351 199 456 q 250 174 199 246 q 393 103 301 103 q 534 172 485 103 q 583 350 583 242 m 726 351 q 726 272 726 351 q 637 90 726 193 q 391 -12 547 -12 q 146 89 235 -12 q 57 347 57 190 q 149 609 57 504 q 396 714 240 714 q 639 612 551 714 q 726 351 726 510 z "},"ö":{"ha":783,"x_min":57,"x_max":726,"o":"m 583 350 q 583 404 583 350 q 536 528 583 458 q 394 599 489 599 q 249 527 299 599 q 199 351 199 456 q 250 174 199 246 q 393 103 301 103 q 534 172 485 103 q 583 350 583 242 m 726 351 q 726 272 726 351 q 637 90 726 193 q 391 -12 547 -12 q 146 89 235 -12 q 57 347 57 190 q 149 609 57 504 q 396 714 240 714 q 639 612 551 714 q 726 351 726 510 m 498 828 q 486 841 498 828 q 474 888 474 853 q 498 947 474 922 q 558 971 522 971 q 617 947 593 971 q 642 888 642 924 q 617 828 642 851 q 558 804 593 804 q 498 828 522 804 m 190 828 q 178 840 190 828 q 167 888 167 851 q 190 947 167 924 q 250 971 214 971 q 310 947 286 971 q 335 888 335 922 q 310 828 335 853 q 250 804 286 804 q 190 828 214 804 z "},"÷":{"ha":783,"x_min":74,"x_max":708,"o":"m 331 167 q 319 180 331 167 q 307 225 307 192 q 331 283 307 258 q 389 308 356 308 q 447 283 422 308 q 471 225 471 258 q 447 167 471 192 q 389 143 422 143 q 331 167 356 143 m 74 411 l 74 533 l 708 533 l 708 411 l 74 411 m 331 661 q 319 674 331 661 q 307 719 307 686 q 331 777 307 753 q 389 801 356 801 q 447 777 422 801 q 471 719 471 753 q 447 661 471 686 q 389 636 422 636 q 331 661 356 636 z "},"ø":{"ha":782,"x_min":69,"x_max":740,"o":"m 658 604 q 740 349 740 506 q 650 90 740 193 q 403 -12 560 -12 q 231 31 304 -12 l 199 -12 l 69 -12 l 151 97 q 69 350 69 196 q 161 609 69 504 q 403 714 253 714 q 578 671 504 714 l 610 714 l 740 714 l 658 604 m 403 611 q 252 536 306 611 q 199 365 199 461 q 231 204 199 268 l 511 582 q 403 611 467 611 m 404 90 q 557 163 504 90 q 610 338 610 236 q 581 500 610 440 l 299 122 q 404 90 343 90 z "},"ù":{"ha":765,"x_min":88,"x_max":669,"o":"m 533 704 l 669 704 l 669 0 l 533 0 l 533 121 q 314 -8 478 -8 q 149 53 210 -8 q 88 224 88 115 l 88 704 l 225 704 l 225 257 q 260 147 225 185 q 367 108 296 108 q 485 164 438 108 q 533 321 533 219 l 533 704 m 442 774 l 325 774 l 158 999 l 310 999 l 442 774 z "},"ú":{"ha":765,"x_min":88,"x_max":669,"o":"m 533 704 l 669 704 l 669 0 l 533 0 l 533 121 q 314 -8 478 -8 q 149 53 210 -8 q 88 224 88 115 l 88 704 l 225 704 l 225 257 q 260 147 225 185 q 367 108 296 108 q 485 164 438 108 q 533 321 533 219 l 533 704 m 617 1000 l 450 775 l 333 775 l 465 1000 l 617 1000 z "},"û":{"ha":765,"x_min":88,"x_max":669,"o":"m 533 704 l 669 704 l 669 0 l 533 0 l 533 121 q 314 -8 478 -8 q 149 53 210 -8 q 88 224 88 115 l 88 704 l 225 704 l 225 257 q 260 147 225 185 q 367 108 296 108 q 485 164 438 108 q 533 321 533 219 l 533 704 m 381 917 l 267 775 l 132 775 l 319 1000 l 444 1000 l 632 775 l 497 775 l 381 917 z "},"ü":{"ha":765,"x_min":88,"x_max":669,"o":"m 533 704 l 669 704 l 669 0 l 533 0 l 533 121 q 314 -8 478 -8 q 149 53 210 -8 q 88 224 88 115 l 88 704 l 225 704 l 225 257 q 260 147 225 185 q 367 108 296 108 q 485 164 438 108 q 533 321 533 219 l 533 704 m 313 888 q 313 870 313 888 q 288 828 313 853 q 228 804 264 804 q 168 828 192 804 q 144 888 144 851 q 168 947 144 924 q 228 971 192 971 q 288 947 264 971 q 313 888 313 922 m 619 888 q 619 869 619 888 q 595 828 619 851 q 535 804 571 804 q 476 828 500 804 q 451 888 451 853 q 476 947 451 922 q 535 971 500 971 q 595 947 571 971 q 619 888 619 924 z "},"ý":{"ha":700,"x_min":10,"x_max":682,"o":"m 118 -251 q 54 -244 81 -251 l 54 -128 q 101 -133 76 -133 q 290 15 236 -133 l 10 704 l 161 704 l 249 475 l 358 178 q 538 704 376 236 l 682 704 l 428 19 q 118 -251 326 -251 m 310 775 l 442 1000 l 593 1000 l 426 775 l 310 775 z "},"þ":{"ha":806,"x_min":96,"x_max":749,"o":"m 232 982 l 232 596 q 446 714 304 714 q 668 613 588 714 q 749 355 749 513 q 666 94 749 197 q 444 -10 583 -10 q 232 107 306 -10 l 232 -269 l 96 -269 l 96 982 l 232 982 m 232 356 q 232 294 232 356 q 290 171 232 232 q 425 110 347 110 q 556 174 503 110 q 608 352 608 239 q 557 530 608 465 q 426 594 506 594 q 290 537 347 594 q 232 356 232 479 z "},"ÿ":{"ha":700,"x_min":10,"x_max":682,"o":"m 118 -251 q 54 -244 81 -251 l 54 -128 q 101 -133 76 -133 q 290 15 236 -133 l 10 704 l 161 704 l 249 475 l 358 178 q 538 704 376 236 l 682 704 l 428 19 q 118 -251 326 -251 m 149 828 q 137 840 149 828 q 125 888 125 851 q 149 947 125 924 q 208 971 172 971 q 269 947 244 971 q 293 888 293 922 q 269 828 293 853 q 208 804 244 804 q 149 828 172 804 m 456 828 q 444 841 456 828 q 432 888 432 853 q 456 947 432 922 q 516 971 481 971 q 576 947 551 971 q 600 888 600 924 q 576 828 600 851 q 516 804 551 804 q 456 828 481 804 z "},"Ā":{"ha":917,"x_min":43,"x_max":874,"o":"m 721 0 l 647 229 l 269 229 l 194 0 l 43 0 l 367 936 l 554 936 l 874 0 l 721 0 m 308 349 l 608 349 q 460 828 488 722 q 308 349 450 788 m 675 1168 l 675 1074 l 253 1074 l 253 1168 l 675 1168 z "},"ā":{"ha":693,"x_min":60,"x_max":606,"o":"m 329 715 q 606 447 606 715 l 606 0 l 471 0 l 471 83 q 281 -6 417 -6 q 120 52 181 -6 q 60 205 60 110 q 136 356 60 300 q 350 413 213 413 l 467 413 l 467 453 q 432 562 467 525 q 317 599 397 599 q 113 536 204 599 l 113 668 q 329 715 194 715 m 467 314 l 361 314 q 244 283 283 314 q 204 205 204 253 q 235 129 204 157 q 328 101 265 101 q 428 138 390 101 q 467 235 467 175 l 467 314 m 560 935 l 560 840 l 138 840 l 138 935 l 560 935 z "},"Ă":{"ha":917,"x_min":43,"x_max":874,"o":"m 721 0 l 647 229 l 269 229 l 194 0 l 43 0 l 367 936 l 554 936 l 874 0 l 721 0 m 308 349 l 608 349 q 460 828 488 722 q 308 349 450 788 m 592 1232 l 700 1232 q 638 1063 700 1122 q 458 1003 575 1003 q 279 1063 342 1003 q 217 1232 217 1122 l 325 1232 q 358 1133 325 1171 q 458 1096 392 1096 q 558 1133 525 1096 q 592 1232 592 1171 z "},"ă":{"ha":693,"x_min":60,"x_max":606,"o":"m 329 715 q 606 447 606 715 l 606 0 l 471 0 l 471 83 q 281 -6 417 -6 q 120 52 181 -6 q 60 205 60 110 q 136 356 60 300 q 350 413 213 413 l 467 413 l 467 453 q 432 562 467 525 q 317 599 397 599 q 113 536 204 599 l 113 668 q 329 715 194 715 m 467 314 l 361 314 q 244 283 283 314 q 204 205 204 253 q 235 129 204 157 q 328 101 265 101 q 428 138 390 101 q 467 235 467 175 l 467 314 m 482 999 l 590 999 q 528 829 590 889 q 349 769 465 769 q 169 829 232 769 q 107 999 107 889 l 215 999 q 249 900 215 938 q 349 863 282 863 q 449 900 415 863 q 482 999 482 938 z "},"Ą":{"ha":911,"x_min":40,"x_max":896,"o":"m 713 -176 q 793 -247 713 -247 q 896 -214 847 -247 l 896 -314 q 767 -343 846 -343 q 642 -299 688 -343 q 597 -187 597 -256 q 714 11 597 -75 l 644 229 l 265 229 l 192 0 l 40 0 l 363 936 l 551 936 l 871 0 q 713 -176 713 -83 m 304 349 l 606 349 l 456 828 q 319 396 442 763 l 304 349 z "},"ą":{"ha":690,"x_min":60,"x_max":631,"o":"m 606 447 l 606 0 q 447 -176 447 -85 q 528 -247 447 -247 q 631 -214 582 -247 l 631 -314 q 501 -343 581 -343 q 377 -299 422 -343 q 332 -187 332 -256 q 471 21 332 -67 l 471 88 q 281 -6 406 -6 q 120 51 181 -6 q 60 203 60 107 q 137 357 60 300 q 353 414 214 414 l 467 414 l 467 453 q 432 562 467 525 q 301 599 397 599 q 113 538 206 599 l 113 667 q 329 715 193 715 q 606 447 606 715 m 467 313 l 374 313 q 203 204 203 313 q 233 130 203 157 q 326 103 264 103 q 427 140 388 103 q 467 229 467 176 l 467 313 z "},"Ć":{"ha":840,"x_min":64,"x_max":779,"o":"m 449 1007 l 581 1232 l 732 1232 l 565 1007 l 449 1007 m 542 817 q 308 722 401 817 q 214 468 214 626 q 307 215 214 310 q 544 121 400 121 q 779 190 688 121 l 779 46 q 540 -11 693 -11 q 197 119 331 -11 q 64 466 64 250 q 198 815 64 682 q 538 949 332 949 q 778 897 688 949 l 778 757 q 667 803 717 790 q 542 817 618 817 z "},"ć":{"ha":654,"x_min":57,"x_max":635,"o":"m 438 104 q 593 150 521 104 l 593 28 q 419 -14 525 -14 q 156 90 254 -14 q 57 348 57 194 q 156 609 57 501 q 425 717 256 717 q 593 678 517 717 l 593 553 q 427 596 525 596 q 263 526 329 596 q 197 349 197 457 q 263 173 200 242 q 438 104 325 104 m 351 774 l 483 999 l 635 999 l 468 774 l 351 774 z "},"Ĉ":{"ha":840,"x_min":64,"x_max":779,"o":"m 436 1232 l 561 1232 l 749 1007 l 614 1007 l 497 1149 l 383 1007 l 249 1007 l 436 1232 m 542 817 q 308 722 401 817 q 214 468 214 626 q 307 215 214 310 q 544 121 400 121 q 779 190 688 121 l 779 46 q 540 -11 693 -11 q 197 119 331 -11 q 64 466 64 250 q 198 815 64 682 q 538 949 332 949 q 778 897 688 949 l 778 757 q 667 803 717 790 q 542 817 618 817 z "},"ĉ":{"ha":654,"x_min":57,"x_max":624,"o":"m 311 1000 l 436 1000 l 624 775 l 489 775 l 372 917 l 258 775 l 124 775 l 311 1000 m 593 553 q 427 596 525 596 q 263 526 329 596 q 197 349 197 457 q 263 173 200 242 q 438 104 325 104 q 593 150 521 104 l 593 28 q 419 -14 525 -14 q 156 90 254 -14 q 57 348 57 194 q 156 609 57 501 q 425 717 256 717 q 593 678 517 717 l 593 553 z "},"Ċ":{"ha":840,"x_min":64,"x_max":779,"o":"m 542 817 q 308 722 401 817 q 214 468 214 626 q 307 215 214 310 q 544 121 400 121 q 779 190 688 121 l 779 46 q 540 -11 693 -11 q 197 119 331 -11 q 64 466 64 250 q 198 815 64 682 q 538 949 332 949 q 778 897 688 949 l 778 757 q 667 803 717 790 q 542 817 618 817 m 458 1064 q 445 1076 458 1064 q 433 1124 433 1088 q 458 1183 433 1160 q 518 1207 482 1207 q 578 1183 554 1207 q 601 1124 601 1160 q 578 1064 601 1088 q 518 1040 554 1040 q 458 1064 482 1040 z "},"ċ":{"ha":654,"x_min":57,"x_max":593,"o":"m 351 829 q 339 841 351 829 q 326 889 326 853 q 351 949 326 925 q 411 972 375 972 q 471 949 447 972 q 494 889 494 925 q 471 829 494 853 q 411 806 447 806 q 351 829 375 806 m 438 104 q 593 150 521 104 l 593 28 q 419 -14 525 -14 q 156 90 254 -14 q 57 348 57 194 q 156 609 57 501 q 425 717 256 717 q 593 678 517 717 l 593 553 q 427 596 525 596 q 263 526 329 596 q 197 349 197 457 q 263 173 200 242 q 438 104 325 104 z "},"Č":{"ha":840,"x_min":64,"x_max":779,"o":"m 581 1007 l 456 1007 l 268 1232 l 403 1232 l 518 1090 l 633 1232 l 768 1232 l 581 1007 m 542 817 q 308 722 401 817 q 214 468 214 626 q 307 215 214 310 q 544 121 400 121 q 779 190 688 121 l 779 46 q 540 -11 693 -11 q 197 119 331 -11 q 64 466 64 250 q 198 815 64 682 q 538 949 332 949 q 778 897 688 949 l 778 757 q 667 803 717 790 q 542 817 618 817 z "},"č":{"ha":654,"x_min":57,"x_max":633,"o":"m 446 775 l 321 775 l 133 1000 l 268 1000 l 383 858 l 499 1000 l 633 1000 l 446 775 m 593 553 q 427 596 525 596 q 263 526 329 596 q 197 349 197 457 q 263 173 200 242 q 438 104 325 104 q 593 150 521 104 l 593 28 q 419 -14 525 -14 q 156 90 254 -14 q 57 348 57 194 q 156 609 57 501 q 425 717 256 717 q 593 678 517 717 l 593 553 z "},"Ď":{"ha":926,"x_min":101,"x_max":868,"o":"m 101 936 l 393 936 q 735 807 601 936 q 868 474 868 678 q 742 135 868 269 q 396 0 617 0 l 101 0 l 101 936 m 247 121 l 394 121 q 638 221 554 121 q 721 472 721 321 q 631 718 721 622 q 390 814 540 814 l 247 814 l 247 121 m 493 1007 l 368 1007 l 181 1232 l 315 1232 l 431 1090 l 546 1232 l 681 1232 l 493 1007 z "},"ď":{"ha":951,"x_min":57,"x_max":1049,"o":"m 897 982 l 1049 982 l 892 708 l 785 708 l 897 982 m 572 982 l 710 982 l 710 0 l 572 0 l 572 107 q 358 -10 499 -10 q 138 95 218 -10 q 57 357 57 200 q 142 614 57 514 q 362 714 226 714 q 572 597 497 714 l 572 982 m 197 353 q 197 297 197 353 q 249 175 197 240 q 381 110 301 110 q 517 171 461 110 q 572 355 572 232 q 515 536 572 478 q 380 594 457 594 q 250 530 303 594 q 197 353 197 465 z "},"Đ":{"ha":1022,"x_min":86,"x_max":963,"o":"m 197 936 l 488 936 q 829 807 696 936 q 963 474 963 678 q 837 135 963 269 q 490 0 711 0 l 197 0 l 197 408 l 86 408 l 86 525 l 197 525 l 197 936 m 342 121 l 489 121 q 733 221 650 121 q 817 472 817 321 q 726 718 817 622 q 485 814 635 814 l 342 814 l 342 525 l 569 525 l 569 408 l 342 408 l 342 121 z "},"đ":{"ha":806,"x_min":57,"x_max":803,"o":"m 803 893 l 803 806 l 710 806 l 710 0 l 572 0 l 572 107 q 358 -10 499 -10 q 138 95 218 -10 q 57 357 57 200 q 142 614 57 514 q 362 714 226 714 q 572 597 497 714 l 572 806 l 321 806 l 321 893 l 572 893 l 572 982 l 710 982 l 710 893 l 803 893 m 197 353 q 197 297 197 353 q 249 175 197 240 q 381 110 301 110 q 517 171 461 110 q 572 355 572 232 q 515 536 572 478 q 380 594 457 594 q 250 530 303 594 q 197 353 197 465 z "},"Ē":{"ha":714,"x_min":101,"x_max":642,"o":"m 244 119 l 642 119 l 642 0 l 101 0 l 101 936 l 635 936 l 635 817 l 244 817 l 244 528 l 590 528 l 590 408 l 244 408 l 244 119 m 581 1169 l 581 1075 l 158 1075 l 158 1169 l 581 1169 z "},"ē":{"ha":729,"x_min":57,"x_max":665,"o":"m 415 -7 q 154 92 251 -7 q 57 355 57 190 q 146 616 57 519 q 371 713 235 713 q 586 628 507 713 q 665 386 665 544 q 657 296 665 343 l 194 296 q 272 156 208 204 q 441 107 336 107 q 621 160 546 107 l 621 38 q 415 -7 543 -7 m 533 403 l 533 428 q 490 553 531 507 q 378 600 450 600 q 256 549 306 600 q 193 403 206 499 l 533 403 m 592 935 l 592 840 l 169 840 l 169 935 l 592 935 z "},"Ĕ":{"ha":714,"x_min":101,"x_max":642,"o":"m 244 119 l 642 119 l 642 0 l 101 0 l 101 936 l 635 936 l 635 817 l 244 817 l 244 528 l 590 528 l 590 408 l 244 408 l 244 119 m 513 1232 l 621 1232 q 558 1063 621 1122 q 379 1003 496 1003 q 200 1063 263 1003 q 138 1232 138 1122 l 246 1232 q 279 1133 246 1171 q 379 1096 313 1096 q 479 1133 446 1096 q 513 1232 513 1171 z "},"ĕ":{"ha":729,"x_min":57,"x_max":665,"o":"m 415 -7 q 154 92 251 -7 q 57 355 57 190 q 146 616 57 519 q 371 713 235 713 q 586 628 507 713 q 665 386 665 544 q 657 296 665 343 l 194 296 q 272 156 208 204 q 441 107 336 107 q 621 160 546 107 l 621 38 q 415 -7 543 -7 m 533 403 l 533 428 q 490 553 531 507 q 378 600 450 600 q 256 549 306 600 q 193 403 206 499 l 533 403 m 513 1000 l 621 1000 q 558 831 621 890 q 379 771 496 771 q 200 831 263 771 q 138 1000 138 890 l 246 1000 q 279 901 246 939 q 379 864 313 864 q 479 901 446 864 q 513 1000 513 939 z "},"Ė":{"ha":714,"x_min":101,"x_max":642,"o":"m 244 119 l 642 119 l 642 0 l 101 0 l 101 936 l 635 936 l 635 817 l 244 817 l 244 528 l 590 528 l 590 408 l 244 408 l 244 119 m 444 1063 q 433 1051 444 1063 q 385 1039 421 1039 q 324 1063 349 1039 q 300 1122 300 1086 q 324 1182 300 1158 q 385 1206 349 1206 q 444 1182 421 1206 q 468 1122 468 1158 q 444 1063 468 1086 z "},"ė":{"ha":729,"x_min":57,"x_max":665,"o":"m 415 -7 q 154 92 251 -7 q 57 355 57 190 q 146 616 57 519 q 371 713 235 713 q 586 628 507 713 q 665 386 665 544 q 657 296 665 343 l 194 296 q 272 156 208 204 q 441 107 336 107 q 621 160 546 107 l 621 38 q 415 -7 543 -7 m 533 403 l 533 428 q 490 553 531 507 q 378 600 450 600 q 256 549 306 600 q 193 403 206 499 l 533 403 m 450 829 q 438 817 450 829 q 390 806 426 806 q 330 829 354 806 q 306 889 306 853 q 330 949 306 925 q 390 972 354 972 q 450 949 426 972 q 474 889 474 925 q 450 829 474 853 z "},"Ę":{"ha":714,"x_min":101,"x_max":642,"o":"m 642 0 l 554 0 q 396 -176 396 -85 q 476 -247 396 -247 q 579 -214 533 -247 l 579 -314 q 451 -343 529 -343 q 327 -299 372 -343 q 282 -187 282 -256 q 390 0 282 -85 l 101 0 l 101 936 l 635 936 l 635 817 l 244 817 l 244 528 l 590 528 l 590 408 l 244 408 l 244 119 l 642 119 l 642 0 z "},"ę":{"ha":729,"x_min":57,"x_max":665,"o":"m 565 -301 q 437 -331 515 -331 q 313 -287 358 -331 q 268 -175 268 -243 q 357 -3 268 -82 q 138 111 218 15 q 57 363 57 207 q 146 616 57 519 q 371 713 235 713 q 586 628 507 713 q 665 386 665 544 q 657 296 665 343 l 194 296 q 272 156 208 204 q 441 107 336 107 q 621 160 546 107 l 621 38 q 526 6 583 17 q 382 -164 382 -76 q 463 -235 382 -235 q 565 -201 519 -235 l 565 -301 m 533 403 l 533 428 q 490 553 531 507 q 378 600 450 600 q 256 549 306 600 q 193 403 206 499 l 533 403 z "},"Ě":{"ha":714,"x_min":101,"x_max":642,"o":"m 244 119 l 642 119 l 642 0 l 101 0 l 101 936 l 635 936 l 635 817 l 244 817 l 244 528 l 590 528 l 590 408 l 244 408 l 244 119 m 443 1007 l 318 1007 l 131 1232 l 265 1232 l 381 1090 l 496 1232 l 631 1232 l 443 1007 z "},"ě":{"ha":729,"x_min":57,"x_max":665,"o":"m 415 -7 q 154 92 251 -7 q 57 355 57 190 q 146 616 57 519 q 371 713 235 713 q 586 628 507 713 q 665 386 665 544 q 657 296 665 343 l 194 296 q 272 156 208 204 q 441 107 336 107 q 621 160 546 107 l 621 38 q 415 -7 543 -7 m 533 403 l 533 428 q 490 553 531 507 q 378 600 450 600 q 256 549 306 600 q 193 403 206 499 l 533 403 m 443 775 l 318 775 l 131 1000 l 265 1000 l 381 858 l 496 1000 l 631 1000 l 443 775 z "},"Ĝ":{"ha":946,"x_min":64,"x_max":854,"o":"m 854 535 l 854 86 l 853 86 l 854 76 q 551 -11 733 -11 q 198 118 332 -11 q 64 466 64 247 q 199 819 64 685 q 543 953 335 953 q 815 890 706 953 l 815 743 q 547 818 696 818 q 306 722 399 818 q 214 467 214 626 q 305 215 214 308 q 556 122 396 122 q 714 153 639 122 l 714 411 l 524 411 l 524 535 l 854 535 m 515 1149 l 401 1007 l 267 1007 l 454 1232 l 579 1232 l 767 1007 l 632 1007 l 515 1149 z "},"ĝ":{"ha":776,"x_min":60,"x_max":689,"o":"m 553 704 l 689 704 l 689 60 q 597 -185 689 -103 q 364 -268 504 -268 q 131 -222 224 -268 l 131 -85 q 346 -143 219 -143 q 553 61 553 -143 l 553 133 q 357 19 485 19 q 144 108 229 19 q 60 354 60 196 q 139 613 60 513 q 353 714 218 714 q 553 594 489 714 l 553 704 m 203 358 q 203 304 203 358 q 253 193 203 250 q 375 136 304 136 q 499 192 446 136 q 553 362 553 249 q 502 535 553 475 q 374 594 451 594 q 250 530 297 594 q 203 358 203 465 m 397 917 l 283 775 l 149 775 l 336 1000 l 461 1000 l 649 775 l 514 775 l 397 917 z "},"Ğ":{"ha":946,"x_min":64,"x_max":854,"o":"m 854 535 l 854 86 l 853 86 l 854 76 q 551 -11 733 -11 q 198 118 332 -11 q 64 466 64 247 q 199 819 64 685 q 543 953 335 953 q 815 890 706 953 l 815 743 q 547 818 696 818 q 306 722 399 818 q 214 467 214 626 q 305 215 214 308 q 556 122 396 122 q 714 153 639 122 l 714 411 l 524 411 l 524 535 l 854 535 m 649 1232 l 757 1232 q 694 1063 757 1122 q 515 1003 632 1003 q 336 1063 399 1003 q 274 1232 274 1122 l 382 1232 q 415 1133 382 1171 q 515 1096 449 1096 q 615 1133 582 1096 q 649 1232 649 1171 z "},"ğ":{"ha":776,"x_min":60,"x_max":689,"o":"m 553 704 l 689 704 l 689 60 q 597 -185 689 -103 q 364 -268 504 -268 q 131 -222 224 -268 l 131 -85 q 346 -143 219 -143 q 553 61 553 -143 l 553 133 q 357 19 485 19 q 144 108 229 19 q 60 354 60 196 q 139 613 60 513 q 353 714 218 714 q 553 594 489 714 l 553 704 m 203 358 q 203 304 203 358 q 253 193 203 250 q 375 136 304 136 q 499 192 446 136 q 553 362 553 249 q 502 535 553 475 q 374 594 451 594 q 250 530 297 594 q 203 358 203 465 m 546 1000 l 654 1000 q 592 831 654 890 q 413 771 529 771 q 233 831 296 771 q 171 1000 171 890 l 279 1000 q 313 901 279 939 q 413 864 346 864 q 513 901 479 864 q 546 1000 546 939 z "},"Ġ":{"ha":946,"x_min":64,"x_max":854,"o":"m 854 535 l 854 86 l 853 86 l 854 76 q 551 -11 733 -11 q 198 118 332 -11 q 64 466 64 247 q 199 819 64 685 q 543 953 335 953 q 815 890 706 953 l 815 743 q 547 818 696 818 q 306 722 399 818 q 214 467 214 626 q 305 215 214 308 q 556 122 396 122 q 714 153 639 122 l 714 411 l 524 411 l 524 535 l 854 535 m 585 1061 q 573 1049 585 1061 q 525 1038 561 1038 q 465 1061 489 1038 q 440 1121 440 1085 q 465 1181 440 1157 q 525 1204 489 1204 q 585 1181 561 1204 q 608 1121 608 1157 q 585 1061 608 1085 z "},"ġ":{"ha":776,"x_min":60,"x_max":689,"o":"m 553 704 l 689 704 l 689 60 q 597 -185 689 -103 q 364 -268 504 -268 q 131 -222 224 -268 l 131 -85 q 346 -143 219 -143 q 553 61 553 -143 l 553 133 q 357 19 485 19 q 144 108 229 19 q 60 354 60 196 q 139 613 60 513 q 353 714 218 714 q 553 594 489 714 l 553 704 m 203 358 q 203 304 203 358 q 253 193 203 250 q 375 136 304 136 q 499 192 446 136 q 553 362 553 249 q 502 535 553 475 q 374 594 451 594 q 250 530 297 594 q 203 358 203 465 m 489 829 q 477 817 489 829 q 429 806 465 806 q 369 829 393 806 q 344 889 344 853 q 369 949 344 925 q 429 972 393 972 q 489 949 465 972 q 513 889 513 925 q 489 829 513 853 z "},"Ģ":{"ha":946,"x_min":64,"x_max":854,"o":"m 854 535 l 854 86 l 853 86 l 854 76 q 551 -11 733 -11 q 198 118 332 -11 q 64 466 64 247 q 199 819 64 685 q 543 953 335 953 q 815 890 706 953 l 815 743 q 547 818 696 818 q 306 722 399 818 q 214 467 214 626 q 305 215 214 308 q 556 122 396 122 q 714 153 639 122 l 714 411 l 524 411 l 524 535 l 854 535 m 333 -346 l 446 -71 l 597 -71 l 440 -346 l 333 -346 z "},"ģ":{"ha":776,"x_min":60,"x_max":689,"o":"m 553 704 l 689 704 l 689 60 q 597 -185 689 -103 q 364 -268 504 -268 q 131 -222 224 -268 l 131 -85 q 346 -143 219 -143 q 553 61 553 -143 l 553 133 q 357 19 485 19 q 144 108 229 19 q 60 354 60 196 q 139 613 60 513 q 353 714 218 714 q 553 594 489 714 l 553 704 m 203 358 q 203 304 203 358 q 253 193 203 250 q 375 136 304 136 q 499 192 446 136 q 553 362 553 249 q 502 535 553 475 q 374 594 451 594 q 250 530 297 594 q 203 358 203 465 m 621 1049 l 510 775 l 358 775 l 515 1049 l 621 1049 z "},"Ĥ":{"ha":911,"x_min":101,"x_max":808,"o":"m 665 936 l 808 936 l 808 0 l 665 0 l 665 410 l 244 410 l 244 0 l 101 0 l 101 936 l 244 936 l 244 533 l 665 533 l 665 936 m 457 1149 l 343 1007 l 208 1007 l 396 1232 l 521 1232 l 708 1007 l 574 1007 l 457 1149 z "},"ĥ":{"ha":765,"x_min":-83,"x_max":678,"o":"m 232 982 l 232 583 q 450 714 292 714 q 615 650 553 714 q 678 472 678 586 l 678 0 l 542 0 l 542 444 q 505 556 542 517 q 403 596 468 596 q 285 543 339 596 q 232 382 232 490 l 232 0 l 96 0 l 96 982 l 232 982 m 282 1053 l 165 1194 l 51 1053 l -83 1053 l 104 1278 l 229 1278 l 417 1053 l 282 1053 z "},"Ħ":{"ha":1015,"x_min":51,"x_max":965,"o":"m 965 794 l 965 706 l 861 706 l 861 0 l 718 0 l 718 410 l 297 410 l 297 0 l 154 0 l 154 706 l 51 706 l 51 794 l 154 794 l 154 936 l 297 936 l 297 794 l 718 794 l 718 936 l 861 936 l 861 794 l 965 794 m 718 533 l 718 706 l 297 706 l 297 533 l 718 533 z "},"ħ":{"ha":765,"x_min":3,"x_max":678,"o":"m 232 806 l 232 583 q 450 714 292 714 q 615 650 553 714 q 678 472 678 586 l 678 0 l 542 0 l 542 444 q 505 556 542 517 q 403 596 468 596 q 285 543 339 596 q 232 382 232 490 l 232 0 l 96 0 l 96 806 l 3 806 l 3 893 l 96 893 l 96 982 l 232 982 l 232 893 l 476 893 l 476 806 l 232 806 z "},"Ĩ":{"ha":367,"x_min":-65,"x_max":426,"o":"m 275 1043 q 178 1072 235 1043 q 94 1100 122 1100 q 3 1036 46 1100 l -65 1099 q -6 1172 -46 1142 q 79 1201 33 1201 q 183 1173 125 1201 q 268 1144 242 1144 q 349 1204 319 1144 l 426 1146 q 275 1043 378 1043 m 113 0 l 113 936 l 254 936 l 254 0 l 113 0 z "},"ĩ":{"ha":340,"x_min":-75,"x_max":417,"o":"m 265 808 q 169 837 225 808 q 86 865 113 865 q -7 801 36 865 l -75 864 q -16 937 -56 907 q 69 967 24 967 q 174 938 115 967 q 258 910 232 910 q 339 969 310 910 l 417 911 q 265 808 368 808 m 101 0 l 101 704 l 239 704 l 239 0 l 101 0 z "},"Ī":{"ha":367,"x_min":-28,"x_max":394,"o":"m 394 1072 l -28 1072 l -28 1167 l 394 1167 l 394 1072 m 113 0 l 113 936 l 254 936 l 254 0 l 113 0 z "},"ī":{"ha":340,"x_min":-40,"x_max":382,"o":"m 382 840 l -40 840 l -40 935 l 382 935 l 382 840 m 101 0 l 101 704 l 239 704 l 239 0 l 101 0 z "},"Ĭ":{"ha":367,"x_min":-57,"x_max":426,"o":"m 113 0 l 113 936 l 254 936 l 254 0 l 113 0 m -57 1232 l 51 1232 q 85 1133 51 1171 q 185 1096 118 1096 q 285 1133 251 1096 q 318 1232 318 1171 l 426 1232 q 364 1063 426 1122 q 185 1003 301 1003 q 6 1063 68 1003 q -57 1232 -57 1122 z "},"ĭ":{"ha":340,"x_min":-71,"x_max":413,"o":"m 101 0 l 101 704 l 239 704 l 239 0 l 101 0 m -71 1000 l 38 1000 q 71 901 38 939 q 171 864 104 864 q 271 901 238 864 q 304 1000 304 939 l 413 1000 q 350 831 413 890 q 171 771 288 771 q -8 831 54 771 q -71 1000 -71 890 z "},"Į":{"ha":367,"x_min":-18,"x_max":279,"o":"m 254 936 l 254 0 q 96 -176 96 -85 q 176 -247 96 -247 q 279 -214 233 -247 l 279 -314 q 151 -343 229 -343 q 27 -299 72 -343 q -18 -187 -18 -256 q 113 15 -18 -72 l 113 936 l 254 936 z "},"į":{"ha":340,"x_min":-33,"x_max":264,"o":"m 239 704 l 239 0 q 81 -176 81 -85 q 161 -247 81 -247 q 264 -214 218 -247 l 264 -314 q 135 -343 214 -343 q 12 -299 57 -343 q -33 -187 -33 -256 q 101 18 -33 -69 l 101 704 l 239 704 m 231 860 q 218 847 231 860 q 169 835 206 835 q 109 859 133 835 q 85 919 85 883 q 109 981 85 956 q 169 1006 133 1006 q 231 981 206 1006 q 256 920 256 956 q 231 860 256 885 z "},"İ":{"ha":367,"x_min":100,"x_max":268,"o":"m 124 1063 q 112 1074 124 1063 q 100 1122 100 1086 q 124 1182 100 1158 q 185 1206 149 1206 q 244 1182 221 1206 q 268 1122 268 1158 q 244 1063 268 1086 q 185 1039 221 1039 q 124 1063 149 1039 m 113 0 l 113 936 l 254 936 l 254 0 l 113 0 z "},"ı":{"ha":340,"x_min":101,"x_max":239,"o":"m 101 0 l 101 704 l 239 704 l 239 0 l 101 0 z "},"Ĳ":{"ha":826,"x_min":113,"x_max":728,"o":"m 471 126 q 585 247 585 126 l 585 936 l 728 936 l 728 253 q 665 62 728 124 q 505 0 601 0 q 357 29 408 0 l 357 161 q 471 126 414 126 m 113 0 l 113 936 l 254 936 l 254 0 l 113 0 z "},"ĳ":{"ha":664,"x_min":82,"x_max":585,"o":"m 439 859 q 426 871 439 859 q 414 919 414 883 q 438 981 414 956 q 499 1006 463 1006 q 560 981 535 1006 q 585 920 585 956 q 560 860 585 885 q 499 835 535 835 q 439 859 464 835 m 356 -158 q 432 -60 432 -158 l 432 704 l 568 704 l 568 -62 q 516 -217 568 -161 q 368 -272 464 -272 q 267 -251 324 -272 l 267 -136 q 356 -158 311 -158 m 106 859 q 94 871 106 859 q 82 919 82 883 q 106 981 82 956 q 167 1006 131 1006 q 228 981 203 1006 q 253 920 253 956 q 228 860 253 885 q 167 835 203 835 q 106 859 131 835 m 99 0 l 99 704 l 236 704 l 236 0 l 99 0 z "},"Ĵ":{"ha":550,"x_min":42,"x_max":593,"o":"m 281 1232 l 406 1232 l 593 1007 l 458 1007 l 342 1149 l 228 1007 l 93 1007 l 281 1232 m 156 126 q 269 247 269 126 l 269 936 l 413 936 l 413 253 q 349 62 413 124 q 190 0 286 0 q 42 29 93 0 l 42 161 q 156 126 99 126 z "},"ĵ":{"ha":336,"x_min":-76,"x_max":424,"o":"m 28 -158 q 104 -60 104 -158 l 104 704 l 240 704 l 240 -62 q 188 -217 240 -161 q 40 -272 136 -272 q -61 -251 -4 -272 l -61 -136 q 28 -158 -17 -158 m 111 1000 l 236 1000 l 424 775 l 289 775 l 172 917 l 58 775 l -76 775 l 111 1000 z "},"Ķ":{"ha":832,"x_min":101,"x_max":797,"o":"m 433 464 l 797 0 l 617 0 l 263 463 l 603 936 l 776 936 l 433 464 m 239 -346 l 351 -71 l 503 -71 l 346 -346 l 239 -346 m 244 936 l 244 0 l 101 0 l 101 936 l 244 936 z "},"ķ":{"ha":694,"x_min":96,"x_max":671,"o":"m 394 368 l 671 0 l 508 0 l 238 368 l 503 704 l 663 704 l 394 368 m 175 -346 l 288 -71 l 439 -71 l 282 -346 l 175 -346 m 232 972 l 232 0 l 96 0 l 96 972 l 232 972 z "},"ĸ":{"ha":694,"x_min":96,"x_max":671,"o":"m 394 368 l 671 0 l 508 0 l 238 368 l 503 704 l 663 704 l 394 368 m 96 0 l 96 704 l 232 704 l 232 0 l 96 0 z "},"Ĺ":{"ha":667,"x_min":101,"x_max":639,"o":"m 244 936 l 244 126 l 628 126 l 628 0 l 101 0 l 101 936 l 244 936 m 639 1232 l 472 1007 l 356 1007 l 488 1232 l 639 1232 z "},"ĺ":{"ha":340,"x_min":101,"x_max":397,"o":"m 101 0 l 101 982 l 239 982 l 239 0 l 101 0 m 114 1053 l 246 1278 l 397 1278 l 231 1053 l 114 1053 z "},"Ļ":{"ha":667,"x_min":101,"x_max":628,"o":"m 244 126 l 628 126 l 628 0 l 101 0 l 101 936 l 244 936 l 244 126 m 193 -346 l 306 -71 l 457 -71 l 300 -346 l 193 -346 z "},"ļ":{"ha":340,"x_min":-18,"x_max":246,"o":"m -18 -346 l 94 -71 l 246 -71 l 89 -346 l -18 -346 m 101 0 l 101 982 l 239 982 l 239 0 l 101 0 z "},"Ľ":{"ha":667,"x_min":101,"x_max":628,"o":"m 244 126 l 628 126 l 628 0 l 101 0 l 101 936 l 244 936 l 244 126 m 621 974 l 464 699 l 357 699 l 469 974 l 621 974 z "},"ľ":{"ha":367,"x_min":101,"x_max":592,"o":"m 329 708 l 440 983 l 592 983 l 435 708 l 329 708 m 101 0 l 101 982 l 239 982 l 239 0 l 101 0 z "},"Ŀ":{"ha":682,"x_min":101,"x_max":628,"o":"m 244 126 l 628 126 l 628 0 l 101 0 l 101 936 l 244 936 l 244 126 m 535 456 q 523 443 535 456 q 471 431 510 431 q 407 456 432 431 q 382 519 382 482 q 408 583 382 557 q 472 610 433 610 q 535 583 510 610 q 561 519 561 557 q 535 456 561 482 z "},"ŀ":{"ha":579,"x_min":96,"x_max":542,"o":"m 387 442 q 374 455 387 442 q 361 506 361 468 q 387 569 361 543 q 451 594 413 594 q 516 569 490 594 q 542 506 542 543 q 516 442 542 468 q 451 417 490 417 q 387 442 413 417 m 96 0 l 96 982 l 232 982 l 232 0 l 96 0 z "},"Ł":{"ha":719,"x_min":47,"x_max":671,"o":"m 288 126 l 671 126 l 671 0 l 146 0 l 146 324 l 47 260 l 47 385 l 146 449 l 146 936 l 288 936 l 288 540 l 501 678 l 501 553 l 288 415 l 288 126 z "},"ł":{"ha":425,"x_min":43,"x_max":392,"o":"m 278 0 l 140 0 l 140 404 l 43 336 l 43 463 l 140 531 l 140 982 l 278 982 l 278 626 l 392 706 l 392 581 l 278 501 l 278 0 z "},"Ń":{"ha":944,"x_min":101,"x_max":843,"o":"m 101 0 l 101 936 l 271 936 q 708 172 631 325 q 700 543 700 299 l 700 936 l 843 936 l 843 0 l 674 0 q 233 765 319 596 q 244 392 244 626 l 244 0 l 101 0 m 443 1007 l 575 1232 l 726 1232 l 560 1007 l 443 1007 z "},"ń":{"ha":765,"x_min":96,"x_max":678,"o":"m 232 704 l 232 583 q 451 714 294 714 q 617 650 556 714 q 678 476 678 586 l 678 0 l 542 0 l 542 444 q 505 557 542 518 q 401 596 468 596 q 283 540 335 596 q 232 382 232 483 l 232 0 l 96 0 l 96 704 l 232 704 m 650 1000 l 483 775 l 367 775 l 499 1000 l 650 1000 z "},"Ņ":{"ha":944,"x_min":101,"x_max":843,"o":"m 101 0 l 101 936 l 271 936 q 708 172 631 325 q 700 543 700 299 l 700 936 l 843 936 l 843 0 l 674 0 q 233 765 319 596 q 244 392 244 626 l 244 0 l 101 0 m 299 -346 l 411 -71 l 563 -71 l 406 -346 l 299 -346 z "},"ņ":{"ha":765,"x_min":96,"x_max":678,"o":"m 232 704 l 232 583 q 451 714 294 714 q 617 650 556 714 q 678 476 678 586 l 678 0 l 542 0 l 542 444 q 505 557 542 518 q 401 596 468 596 q 283 540 335 596 q 232 382 232 483 l 232 0 l 96 0 l 96 704 l 232 704 m 207 -346 l 319 -71 l 471 -71 l 314 -346 l 207 -346 z "},"Ň":{"ha":944,"x_min":101,"x_max":843,"o":"m 553 1007 l 428 1007 l 240 1232 l 375 1232 l 490 1090 l 606 1232 l 740 1232 l 553 1007 m 101 0 l 101 936 l 271 936 q 708 172 631 325 q 700 543 700 299 l 700 936 l 843 936 l 843 0 l 674 0 q 233 765 319 596 q 244 392 244 626 l 244 0 l 101 0 z "},"ň":{"ha":765,"x_min":96,"x_max":678,"o":"m 232 704 l 232 583 q 451 714 294 714 q 617 650 556 714 q 678 476 678 586 l 678 0 l 542 0 l 542 444 q 505 557 542 518 q 401 596 468 596 q 283 540 335 596 q 232 382 232 483 l 232 0 l 96 0 l 96 704 l 232 704 m 467 775 l 342 775 l 154 1000 l 289 1000 l 404 858 l 519 1000 l 654 1000 l 467 775 z "},"ŉ":{"ha":838,"x_min":-29,"x_max":750,"o":"m 304 704 l 304 583 q 524 714 367 714 q 689 650 628 714 q 750 476 750 586 l 750 0 l 614 0 l 614 444 q 577 557 614 518 q 474 596 540 596 q 356 540 407 596 q 304 382 304 483 l 304 0 l 168 0 l 168 704 l 304 704 m 78 965 l 219 965 l 68 679 l -29 679 l 78 965 z "},"Ŋ":{"ha":944,"x_min":101,"x_max":843,"o":"m 700 936 l 843 936 l 843 -22 q 780 -215 843 -153 q 622 -276 717 -276 q 472 -246 526 -276 l 472 -114 q 586 -149 525 -149 q 700 -28 700 -149 l 700 0 l 674 0 q 233 765 319 596 q 244 392 244 626 l 244 0 l 101 0 l 101 936 l 271 936 q 708 172 631 325 q 700 543 700 299 l 700 936 z "},"ŋ":{"ha":765,"x_min":96,"x_max":679,"o":"m 678 324 l 679 324 l 679 -62 q 626 -216 679 -160 q 479 -272 574 -272 q 378 -251 433 -272 l 378 -136 q 467 -158 422 -158 q 542 -60 542 -158 l 542 444 q 505 557 542 518 q 401 596 468 596 q 283 540 335 596 q 232 382 232 483 l 232 0 l 96 0 l 96 704 l 232 704 l 232 583 q 451 714 294 714 q 617 650 556 714 q 678 476 678 586 l 678 324 z "},"Ō":{"ha":988,"x_min":64,"x_max":924,"o":"m 288 727 q 251 680 288 727 q 214 472 214 633 q 290 217 214 311 q 497 122 367 122 q 700 215 626 122 q 774 472 774 308 q 699 728 774 635 q 494 821 625 821 q 288 727 363 821 m 495 -11 q 397 -11 495 -11 q 181 121 299 -11 q 64 472 64 253 q 181 822 64 690 q 495 954 297 954 q 808 823 693 954 q 924 472 924 692 q 808 121 924 253 q 495 -11 692 -11 m 706 1072 l 283 1072 l 283 1167 l 706 1167 l 706 1072 z "},"ō":{"ha":783,"x_min":57,"x_max":726,"o":"m 583 350 q 583 404 583 350 q 536 528 583 458 q 394 599 489 599 q 249 527 299 599 q 199 351 199 456 q 250 174 199 246 q 393 103 301 103 q 534 172 485 103 q 583 350 583 242 m 726 351 q 726 272 726 351 q 637 90 726 193 q 391 -12 547 -12 q 146 89 235 -12 q 57 347 57 190 q 149 609 57 504 q 396 714 240 714 q 639 612 551 714 q 726 351 726 510 m 606 840 l 183 840 l 183 935 l 606 935 l 606 840 z "},"Ŏ":{"ha":988,"x_min":64,"x_max":924,"o":"m 495 -11 q 397 -11 495 -11 q 181 121 299 -11 q 64 472 64 253 q 181 822 64 690 q 495 954 297 954 q 808 823 693 954 q 924 472 924 692 q 808 121 924 253 q 495 -11 692 -11 m 288 727 q 251 680 288 727 q 214 472 214 633 q 290 217 214 311 q 497 122 367 122 q 700 215 626 122 q 774 472 774 308 q 699 728 774 635 q 494 821 625 821 q 288 727 363 821 m 263 1232 l 371 1232 q 404 1133 371 1171 q 504 1096 438 1096 q 604 1133 571 1096 q 638 1232 638 1171 l 746 1232 q 683 1063 746 1122 q 504 1003 621 1003 q 325 1063 388 1003 q 263 1232 263 1122 z "},"ŏ":{"ha":783,"x_min":57,"x_max":726,"o":"m 726 351 q 726 272 726 351 q 637 90 726 193 q 391 -12 547 -12 q 146 89 235 -12 q 57 347 57 190 q 149 609 57 504 q 396 714 240 714 q 639 612 551 714 q 726 351 726 510 m 583 350 q 583 404 583 350 q 536 528 583 458 q 394 599 489 599 q 249 527 299 599 q 199 351 199 456 q 250 174 199 246 q 393 103 301 103 q 534 172 485 103 q 583 350 583 242 m 163 1000 l 271 1000 q 304 901 271 939 q 404 864 338 864 q 504 901 471 864 q 538 1000 538 939 l 646 1000 q 583 831 646 890 q 404 771 521 771 q 225 831 288 771 q 163 1000 163 890 z "},"Ő":{"ha":988,"x_min":64,"x_max":924,"o":"m 288 727 q 251 680 288 727 q 214 472 214 633 q 290 217 214 311 q 497 122 367 122 q 700 215 626 122 q 774 472 774 308 q 699 728 774 635 q 494 821 625 821 q 288 727 363 821 m 495 -11 q 397 -11 495 -11 q 181 121 299 -11 q 64 472 64 253 q 181 822 64 690 q 495 954 297 954 q 808 823 693 954 q 924 472 924 692 q 808 121 924 253 q 495 -11 692 -11 m 344 1007 l 475 1232 l 618 1232 l 449 1007 l 344 1007 m 574 1007 l 713 1232 l 864 1232 l 678 1007 l 574 1007 z "},"ő":{"ha":783,"x_min":57,"x_max":769,"o":"m 583 350 q 583 404 583 350 q 536 528 583 458 q 394 599 489 599 q 249 527 299 599 q 199 351 199 456 q 250 174 199 246 q 393 103 301 103 q 534 172 485 103 q 583 350 583 242 m 726 351 q 726 272 726 351 q 637 90 726 193 q 391 -12 547 -12 q 146 89 235 -12 q 57 347 57 190 q 149 609 57 504 q 396 714 240 714 q 639 612 551 714 q 726 351 726 510 m 250 775 l 381 1000 l 524 1000 l 354 775 l 250 775 m 479 775 l 618 1000 l 769 1000 l 583 775 l 479 775 z "},"Œ":{"ha":1372,"x_min":64,"x_max":1301,"o":"m 897 119 l 1301 119 l 1301 0 l 761 0 l 761 100 q 488 -11 653 -11 q 178 121 293 -11 q 64 472 64 253 q 177 823 64 692 q 486 954 290 954 q 761 844 654 954 l 761 936 l 1294 936 l 1294 817 l 897 817 l 897 528 l 1250 528 l 1250 408 l 897 408 l 897 119 m 214 472 q 214 391 214 472 q 288 216 214 310 q 490 122 361 122 q 690 215 618 122 q 761 472 761 308 q 690 728 761 636 q 488 821 618 821 q 285 728 357 821 q 214 472 214 635 z "},"œ":{"ha":1235,"x_min":57,"x_max":1176,"o":"m 925 -7 q 642 122 740 -7 q 390 -12 553 -12 q 142 89 228 -12 q 57 348 57 190 q 145 610 57 506 q 382 714 233 714 q 638 588 551 714 q 888 713 729 713 q 1101 628 1025 713 q 1176 382 1176 543 q 1168 296 1176 343 l 707 296 q 786 156 722 206 q 952 107 850 107 q 1129 160 1054 107 l 1129 38 q 925 -7 1049 -7 m 199 351 q 199 298 199 351 q 247 174 199 244 q 385 103 294 103 q 522 172 475 103 q 568 350 568 240 q 524 529 568 460 q 386 599 481 599 q 245 528 292 599 q 199 351 199 457 m 1044 403 l 1044 433 q 1000 556 1042 513 q 889 600 958 600 q 769 550 819 600 q 706 403 718 500 l 1044 403 z "},"Ŕ":{"ha":789,"x_min":101,"x_max":758,"o":"m 244 356 l 244 0 l 101 0 l 101 936 l 363 936 q 611 858 524 936 q 699 644 699 779 q 649 477 697 546 q 514 378 600 408 l 758 0 l 588 0 l 368 356 l 244 356 m 244 817 l 244 475 l 374 475 q 508 522 463 475 q 554 646 554 568 q 367 817 554 817 l 244 817 m 611 1232 l 444 1007 l 328 1007 l 460 1232 l 611 1232 z "},"ŕ":{"ha":471,"x_min":96,"x_max":514,"o":"m 232 704 l 232 581 q 417 711 283 711 q 460 707 436 711 l 460 574 q 394 586 431 586 q 278 524 324 586 q 232 375 232 461 l 232 0 l 96 0 l 96 704 l 232 704 m 514 1000 l 347 775 l 231 775 l 363 1000 l 514 1000 z "},"Ŗ":{"ha":789,"x_min":101,"x_max":758,"o":"m 244 356 l 244 0 l 101 0 l 101 936 l 363 936 q 611 858 524 936 q 699 644 699 779 q 649 477 697 546 q 514 378 600 408 l 758 0 l 588 0 l 368 356 l 244 356 m 244 817 l 244 475 l 374 475 q 508 522 463 475 q 554 646 554 568 q 367 817 554 817 l 244 817 m 221 -346 l 333 -71 l 485 -71 l 328 -346 l 221 -346 z "},"ŗ":{"ha":471,"x_min":-28,"x_max":460,"o":"m 232 704 l 232 581 q 417 711 283 711 q 460 707 436 711 l 460 574 q 394 586 431 586 q 278 524 324 586 q 232 375 232 461 l 232 0 l 96 0 l 96 704 l 232 704 m -28 -346 l 85 -71 l 236 -71 l 79 -346 l -28 -346 z "},"Ř":{"ha":789,"x_min":101,"x_max":758,"o":"m 244 356 l 244 0 l 101 0 l 101 936 l 363 936 q 611 858 524 936 q 699 644 699 779 q 649 477 697 546 q 514 378 600 408 l 758 0 l 588 0 l 368 356 l 244 356 m 244 817 l 244 475 l 374 475 q 508 522 463 475 q 554 646 554 568 q 367 817 554 817 l 244 817 m 465 1007 l 340 1007 l 153 1232 l 288 1232 l 403 1090 l 518 1232 l 653 1232 l 465 1007 z "},"ř":{"ha":471,"x_min":35,"x_max":535,"o":"m 232 704 l 232 581 q 417 711 283 711 q 460 707 436 711 l 460 574 q 394 586 431 586 q 278 524 324 586 q 232 375 232 461 l 232 0 l 96 0 l 96 704 l 232 704 m 347 775 l 222 775 l 35 1000 l 169 1000 l 285 858 l 400 1000 l 535 1000 l 347 775 z "},"Ś":{"ha":724,"x_min":81,"x_max":656,"o":"m 396 815 q 276 781 319 815 q 232 692 232 747 q 275 603 232 636 q 392 538 318 569 q 498 488 465 506 q 572 436 531 469 q 656 253 656 374 q 568 61 656 132 q 334 -10 481 -10 q 86 50 188 -10 l 86 199 q 340 117 196 117 q 461 152 417 117 q 506 250 506 188 q 479 319 506 288 q 422 366 453 350 q 343 404 392 382 q 280 433 294 426 q 232 458 265 440 q 183 489 199 476 q 143 524 167 501 q 108 568 119 546 q 81 685 81 629 q 167 874 81 804 q 386 943 254 943 q 607 899 518 943 l 607 757 q 396 815 514 815 m 325 1007 l 457 1232 l 608 1232 l 442 1007 l 325 1007 z "},"ś":{"ha":582,"x_min":76,"x_max":542,"o":"m 322 597 q 245 575 274 597 q 217 517 217 553 q 253 451 217 474 q 270 440 264 444 q 291 428 276 435 q 313 417 306 421 q 388 383 333 407 q 490 315 443 360 q 536 185 536 269 q 469 47 536 100 q 283 -7 403 -7 q 81 35 164 -7 l 81 164 q 282 104 178 104 q 366 126 336 104 q 396 182 396 149 q 372 240 396 215 q 324 276 349 264 q 242 313 300 288 q 76 513 76 381 q 146 658 76 606 q 324 711 215 711 q 497 681 433 711 l 497 557 q 322 597 429 597 m 258 775 l 390 1000 l 542 1000 l 375 775 l 258 775 z "},"Ŝ":{"ha":724,"x_min":81,"x_max":656,"o":"m 300 1232 l 425 1232 l 613 1007 l 478 1007 l 361 1149 l 247 1007 l 113 1007 l 300 1232 m 396 815 q 276 781 319 815 q 232 692 232 747 q 275 603 232 636 q 392 538 318 569 q 498 488 465 506 q 572 436 531 469 q 656 253 656 374 q 568 61 656 132 q 334 -10 481 -10 q 86 50 188 -10 l 86 199 q 340 117 196 117 q 461 152 417 117 q 506 250 506 188 q 479 319 506 288 q 422 366 453 350 q 343 404 392 382 q 280 433 294 426 q 232 458 265 440 q 183 489 199 476 q 143 524 167 501 q 108 568 119 546 q 81 685 81 629 q 167 874 81 804 q 386 943 254 943 q 607 899 518 943 l 607 757 q 396 815 514 815 z "},"ŝ":{"ha":582,"x_min":68,"x_max":568,"o":"m 256 1000 l 381 1000 l 568 775 l 433 775 l 317 917 l 203 775 l 68 775 l 256 1000 m 322 597 q 245 575 274 597 q 217 517 217 553 q 253 451 217 474 q 270 440 264 444 q 291 428 276 435 q 313 417 306 421 q 388 383 333 407 q 490 315 443 360 q 536 185 536 269 q 469 47 536 100 q 283 -7 403 -7 q 81 35 164 -7 l 81 164 q 282 104 178 104 q 366 126 336 104 q 396 182 396 149 q 372 240 396 215 q 324 276 349 264 q 242 313 300 288 q 76 513 76 381 q 146 658 76 606 q 324 711 215 711 q 497 681 433 711 l 497 557 q 322 597 429 597 z "},"Ş":{"ha":724,"x_min":81,"x_max":656,"o":"m 421 -71 q 446 -177 446 -106 q 389 -302 446 -249 q 225 -357 332 -356 l 225 -262 q 339 -167 339 -256 q 304 -71 339 -122 l 421 -71 m 396 815 q 276 781 319 815 q 232 692 232 747 q 275 603 232 636 q 392 538 318 569 q 498 488 465 506 q 572 436 531 469 q 656 253 656 374 q 568 61 656 132 q 334 -10 481 -10 q 86 50 188 -10 l 86 199 q 340 117 196 117 q 461 152 417 117 q 506 250 506 188 q 479 319 506 288 q 422 366 453 350 q 343 404 392 382 q 280 433 294 426 q 232 458 265 440 q 183 489 199 476 q 143 524 167 501 q 108 568 119 546 q 81 685 81 629 q 167 874 81 804 q 386 943 254 943 q 607 899 518 943 l 607 757 q 396 815 514 815 z "},"ş":{"ha":582,"x_min":76,"x_max":536,"o":"m 368 -71 q 393 -177 393 -106 q 336 -302 393 -249 q 172 -357 279 -356 l 172 -262 q 286 -167 286 -256 q 251 -71 286 -122 l 368 -71 m 322 597 q 245 575 274 597 q 217 517 217 553 q 253 451 217 474 q 270 440 264 444 q 291 428 276 435 q 313 417 306 421 q 388 383 333 407 q 490 315 443 360 q 536 185 536 269 q 469 47 536 100 q 283 -7 403 -7 q 81 35 164 -7 l 81 164 q 282 104 178 104 q 366 126 336 104 q 396 182 396 149 q 372 240 396 215 q 324 276 349 264 q 242 313 300 288 q 76 513 76 381 q 146 658 76 606 q 324 711 215 711 q 497 681 433 711 l 497 557 q 322 597 429 597 z "},"Š":{"ha":724,"x_min":81,"x_max":656,"o":"m 429 1007 l 304 1007 l 117 1232 l 251 1232 l 367 1090 l 482 1232 l 617 1232 l 429 1007 m 396 815 q 276 781 319 815 q 232 692 232 747 q 275 603 232 636 q 392 538 318 569 q 498 488 465 506 q 572 436 531 469 q 656 253 656 374 q 568 61 656 132 q 334 -10 481 -10 q 86 50 188 -10 l 86 199 q 340 117 196 117 q 461 152 417 117 q 506 250 506 188 q 479 319 506 288 q 422 366 453 350 q 343 404 392 382 q 280 433 294 426 q 232 458 265 440 q 183 489 199 476 q 143 524 167 501 q 108 568 119 546 q 81 685 81 629 q 167 874 81 804 q 386 943 254 943 q 607 899 518 943 l 607 757 q 396 815 514 815 z "},"š":{"ha":582,"x_min":74,"x_max":574,"o":"m 386 775 l 261 775 l 74 1000 l 208 1000 l 324 858 l 439 1000 l 574 1000 l 386 775 m 322 597 q 245 575 274 597 q 217 517 217 553 q 253 451 217 474 q 270 440 264 444 q 291 428 276 435 q 313 417 306 421 q 388 383 333 407 q 490 315 443 360 q 536 185 536 269 q 469 47 536 100 q 283 -7 403 -7 q 81 35 164 -7 l 81 164 q 282 104 178 104 q 366 126 336 104 q 396 182 396 149 q 372 240 396 215 q 324 276 349 264 q 242 313 300 288 q 76 513 76 381 q 146 658 76 606 q 324 711 215 711 q 497 681 433 711 l 497 557 q 322 597 429 597 z "},"Ţ":{"ha":694,"x_min":31,"x_max":664,"o":"m 664 936 l 664 817 l 418 817 l 418 0 l 275 0 l 275 817 l 31 817 l 31 936 l 664 936 m 153 -346 l 264 -71 l 415 -71 l 260 -346 l 153 -346 z "},"ţ":{"ha":519,"x_min":25,"x_max":465,"o":"m 272 599 l 272 211 q 369 110 272 110 q 465 140 426 110 l 465 18 q 353 -7 419 -7 q 135 214 135 -7 l 135 599 l 25 599 l 25 704 l 135 704 l 135 876 l 272 876 l 272 704 l 457 704 l 457 599 l 272 599 m 90 -346 l 201 -71 l 353 -71 l 197 -346 l 90 -346 z "},"Ť":{"ha":694,"x_min":31,"x_max":664,"o":"m 664 936 l 664 817 l 418 817 l 418 0 l 275 0 l 275 817 l 31 817 l 31 936 l 664 936 m 411 1007 l 286 1007 l 99 1232 l 233 1232 l 349 1090 l 464 1232 l 599 1232 l 411 1007 z "},"ť":{"ha":519,"x_min":25,"x_max":614,"o":"m 272 599 l 272 211 q 369 110 272 110 q 465 140 426 110 l 465 18 q 353 -7 419 -7 q 135 214 135 -7 l 135 599 l 25 599 l 25 704 l 135 704 l 135 876 l 272 876 l 272 704 l 457 704 l 457 599 l 272 599 m 614 1071 l 457 796 l 351 796 l 463 1071 l 614 1071 z "},"Ŧ":{"ha":694,"x_min":31,"x_max":664,"o":"m 664 817 l 418 817 l 418 513 l 579 513 l 579 403 l 418 403 l 418 0 l 275 0 l 275 403 l 115 403 l 115 513 l 275 513 l 275 817 l 31 817 l 31 936 l 664 936 l 664 817 z "},"ŧ":{"ha":543,"x_min":38,"x_max":478,"o":"m 285 346 l 285 211 q 382 110 285 110 q 478 140 436 110 l 478 18 q 365 -7 432 -7 q 147 214 147 -7 l 147 346 l 38 346 l 38 444 l 147 444 l 147 601 l 38 601 l 38 704 l 147 704 l 147 876 l 285 876 l 285 704 l 469 704 l 469 601 l 285 601 l 285 444 l 469 444 l 469 346 l 285 346 z "},"Ũ":{"ha":906,"x_min":99,"x_max":807,"o":"m 557 1043 q 460 1072 517 1043 q 378 1100 404 1100 q 285 1036 328 1100 l 217 1099 q 276 1172 236 1142 q 361 1201 315 1201 q 465 1173 407 1201 q 550 1144 524 1144 q 631 1204 601 1144 l 708 1146 q 557 1043 660 1043 m 664 356 l 664 936 l 807 936 l 807 358 q 713 82 807 176 q 453 -12 618 -12 q 193 80 288 -12 q 99 347 99 172 l 99 936 l 242 936 l 242 349 q 299 174 242 229 q 451 119 357 119 q 664 356 664 119 z "},"ũ":{"ha":765,"x_min":88,"x_max":669,"o":"m 533 704 l 669 704 l 669 0 l 533 0 l 533 121 q 314 -8 478 -8 q 149 53 210 -8 q 88 224 88 115 l 88 704 l 225 704 l 225 257 q 260 147 225 185 q 367 108 296 108 q 485 164 438 108 q 533 321 533 219 l 533 704 m 481 807 q 384 835 440 807 q 300 864 328 864 q 208 800 251 864 l 140 863 q 199 935 160 906 q 285 965 239 965 q 389 937 331 965 q 474 908 447 908 q 554 968 525 908 l 632 910 q 481 807 583 807 z "},"Ū":{"ha":906,"x_min":99,"x_max":807,"o":"m 671 1072 l 249 1072 l 249 1167 l 671 1167 l 671 1072 m 664 356 l 664 936 l 807 936 l 807 358 q 713 82 807 176 q 453 -12 618 -12 q 193 80 288 -12 q 99 347 99 172 l 99 936 l 242 936 l 242 349 q 299 174 242 229 q 451 119 357 119 q 664 356 664 119 z "},"ū":{"ha":765,"x_min":88,"x_max":669,"o":"m 533 704 l 669 704 l 669 0 l 533 0 l 533 121 q 314 -8 478 -8 q 149 53 210 -8 q 88 224 88 115 l 88 704 l 225 704 l 225 257 q 260 147 225 185 q 367 108 296 108 q 485 164 438 108 q 533 321 533 219 l 533 704 m 590 935 l 590 840 l 168 840 l 168 935 l 590 935 z "},"Ŭ":{"ha":906,"x_min":99,"x_max":807,"o":"m 664 356 l 664 936 l 807 936 l 807 358 q 713 82 807 176 q 453 -12 618 -12 q 193 80 288 -12 q 99 347 99 172 l 99 936 l 242 936 l 242 349 q 299 174 242 229 q 451 119 357 119 q 664 356 664 119 m 213 1232 l 321 1232 q 354 1133 321 1171 q 454 1096 388 1096 q 554 1133 521 1096 q 588 1232 588 1171 l 696 1232 q 633 1063 696 1122 q 454 1003 571 1003 q 275 1063 338 1003 q 213 1232 213 1122 z "},"ŭ":{"ha":765,"x_min":88,"x_max":669,"o":"m 533 704 l 669 704 l 669 0 l 533 0 l 533 121 q 314 -8 478 -8 q 149 53 210 -8 q 88 224 88 115 l 88 704 l 225 704 l 225 257 q 260 147 225 185 q 367 108 296 108 q 485 164 438 108 q 533 321 533 219 l 533 704 m 519 1000 l 628 1000 q 565 831 628 890 q 386 771 503 771 q 207 831 269 771 q 144 1000 144 890 l 253 1000 q 286 901 253 939 q 386 864 319 864 q 486 901 453 864 q 519 1000 519 939 z "},"Ů":{"ha":906,"x_min":99,"x_max":807,"o":"m 664 356 l 664 936 l 807 936 l 807 358 q 713 82 807 176 q 453 -12 618 -12 q 193 80 288 -12 q 99 347 99 172 l 99 936 l 242 936 l 242 349 q 299 174 242 229 q 451 119 357 119 q 664 356 664 119 m 403 1207 q 393 1196 403 1207 q 382 1154 382 1185 q 403 1101 382 1124 q 456 1078 425 1078 q 509 1101 488 1078 q 531 1154 531 1124 q 509 1207 531 1185 q 456 1229 488 1229 q 403 1207 425 1229 m 456 993 q 423 993 456 993 q 344 1040 390 993 q 297 1152 297 1086 q 344 1265 297 1218 q 456 1313 390 1313 q 569 1265 522 1313 q 617 1152 617 1218 q 569 1040 617 1086 q 456 993 522 993 z "},"ů":{"ha":765,"x_min":88,"x_max":669,"o":"m 533 704 l 669 704 l 669 0 l 533 0 l 533 121 q 314 -8 478 -8 q 149 53 210 -8 q 88 224 88 115 l 88 704 l 225 704 l 225 257 q 260 147 225 185 q 367 108 296 108 q 485 164 438 108 q 533 321 533 219 l 533 704 m 549 920 q 549 887 549 920 q 501 808 549 854 q 388 761 454 761 q 276 808 322 761 q 229 920 229 854 q 276 1033 229 986 q 388 1081 322 1081 q 501 1033 454 1081 q 549 920 549 986 m 463 922 q 463 938 463 922 q 441 975 463 953 q 388 997 419 997 q 335 975 357 997 q 314 922 314 953 q 335 869 314 892 q 388 846 357 846 q 441 869 419 846 q 463 922 463 892 z "},"Ű":{"ha":906,"x_min":99,"x_max":807,"o":"m 283 1007 l 414 1232 l 557 1232 l 388 1007 l 283 1007 m 513 1007 l 651 1232 l 803 1232 l 617 1007 l 513 1007 m 664 356 l 664 936 l 807 936 l 807 358 q 713 82 807 176 q 453 -12 618 -12 q 193 80 288 -12 q 99 347 99 172 l 99 936 l 242 936 l 242 349 q 299 174 242 229 q 451 119 357 119 q 664 356 664 119 z "},"ű":{"ha":765,"x_min":88,"x_max":739,"o":"m 533 321 l 533 704 l 669 704 l 669 0 l 533 0 l 533 121 q 314 -8 478 -8 q 149 53 210 -8 q 88 224 88 115 l 88 704 l 225 704 l 225 257 q 260 147 225 185 q 367 108 296 108 q 485 164 438 108 q 533 321 533 219 m 493 1000 l 324 775 l 219 775 l 350 1000 l 493 1000 m 553 775 l 449 775 l 588 1000 l 739 1000 l 553 775 z "},"Ų":{"ha":906,"x_min":99,"x_max":807,"o":"m 664 936 l 807 936 l 807 358 q 593 8 807 82 q 436 -167 436 -75 q 517 -237 436 -237 q 619 -204 574 -237 l 619 -304 q 491 -333 569 -333 q 367 -290 413 -333 q 322 -178 322 -246 q 407 -11 322 -86 q 181 93 263 1 q 99 347 99 185 l 99 936 l 242 936 l 242 349 q 299 174 242 229 q 451 119 357 119 q 664 356 664 119 l 664 936 z "},"ų":{"ha":765,"x_min":88,"x_max":694,"o":"m 669 704 l 669 0 q 511 -176 511 -85 q 592 -247 511 -247 q 694 -214 649 -247 l 694 -314 q 566 -343 644 -343 q 442 -299 488 -343 q 397 -187 397 -256 q 533 19 397 -68 l 533 121 q 314 -8 478 -8 q 149 53 210 -8 q 88 224 88 115 l 88 704 l 225 704 l 225 257 q 260 147 225 185 q 367 108 296 108 q 485 164 438 108 q 533 321 533 219 l 533 704 l 669 704 z "},"Ŵ":{"ha":1315,"x_min":43,"x_max":1274,"o":"m 604 1232 l 729 1232 l 917 1007 l 782 1007 l 665 1149 l 551 1007 l 417 1007 l 604 1232 m 600 922 l 726 922 l 825 589 l 951 149 q 1129 936 1001 396 l 1274 936 l 1044 0 l 874 0 l 785 296 l 664 714 q 461 0 639 611 l 289 0 l 43 936 l 192 936 l 279 590 l 382 151 q 600 922 440 367 z "},"ŵ":{"ha":1106,"x_min":26,"x_max":1079,"o":"m 489 1000 l 614 1000 l 801 775 l 667 775 l 550 917 l 436 775 l 301 775 l 489 1000 m 247 0 l 26 704 l 171 704 q 324 132 308 214 q 483 704 343 226 l 615 704 q 778 131 750 254 q 942 704 794 213 l 1079 704 l 856 0 l 700 0 q 550 556 575 440 q 401 0 532 469 l 247 0 z "},"Ŷ":{"ha":844,"x_min":32,"x_max":813,"o":"m 492 0 l 349 0 l 349 349 l 32 936 l 196 936 q 419 465 394 525 q 581 799 432 507 l 649 936 l 813 936 l 492 349 l 492 0 m 421 1149 l 307 1007 l 172 1007 l 360 1232 l 485 1232 l 672 1007 l 538 1007 l 421 1149 z "},"ŷ":{"ha":700,"x_min":10,"x_max":682,"o":"m 118 -251 q 54 -244 81 -251 l 54 -128 q 101 -133 76 -133 q 290 15 236 -133 l 10 704 l 161 704 l 249 475 l 358 178 q 538 704 376 236 l 682 704 l 428 19 q 118 -251 326 -251 m 288 1000 l 413 1000 l 600 775 l 465 775 l 349 917 l 235 775 l 100 775 l 288 1000 z "},"Ÿ":{"ha":844,"x_min":32,"x_max":813,"o":"m 492 0 l 349 0 l 349 349 l 32 936 l 196 936 q 419 465 394 525 q 581 799 432 507 l 649 936 l 813 936 l 492 349 l 492 0 m 357 1119 q 357 1101 357 1119 q 333 1060 357 1083 q 272 1036 308 1036 q 213 1060 236 1036 q 189 1119 189 1083 q 213 1179 189 1156 q 272 1203 236 1203 q 333 1179 308 1203 q 357 1119 357 1156 m 664 1119 q 664 1101 664 1119 q 640 1060 664 1083 q 580 1036 615 1036 q 520 1060 544 1036 q 496 1119 496 1083 q 520 1179 496 1156 q 580 1203 544 1203 q 640 1179 615 1203 q 664 1119 664 1156 z "},"Ź":{"ha":811,"x_min":75,"x_max":736,"o":"m 717 936 l 717 826 l 243 118 l 736 118 l 736 0 l 75 0 l 75 113 l 547 818 l 82 818 l 82 936 l 717 936 m 369 1007 l 501 1232 l 653 1232 l 486 1007 l 369 1007 z "},"ź":{"ha":640,"x_min":60,"x_max":581,"o":"m 563 704 l 563 607 l 217 115 l 581 115 l 581 0 l 60 0 l 60 104 l 401 590 l 72 590 l 72 704 l 563 704 m 278 775 l 410 1000 l 561 1000 l 394 775 l 278 775 z "},"Ż":{"ha":811,"x_min":75,"x_max":736,"o":"m 360 1063 q 348 1074 360 1063 q 336 1122 336 1086 q 360 1182 336 1158 q 421 1206 385 1206 q 481 1182 457 1206 q 504 1122 504 1158 q 481 1063 504 1086 q 421 1039 457 1039 q 360 1063 385 1039 m 717 936 l 717 826 l 243 118 l 736 118 l 736 0 l 75 0 l 75 113 l 547 818 l 82 818 l 82 936 l 717 936 z "},"ż":{"ha":640,"x_min":60,"x_max":581,"o":"m 280 828 q 268 840 280 828 q 256 888 256 851 q 280 947 256 924 q 340 971 304 971 q 400 947 376 971 q 424 888 424 924 q 400 828 424 851 q 340 804 376 804 q 280 828 304 804 m 563 704 l 563 607 l 217 115 l 581 115 l 581 0 l 60 0 l 60 104 l 401 590 l 72 590 l 72 704 l 563 704 z "},"Ž":{"ha":811,"x_min":75,"x_max":736,"o":"m 471 1007 l 346 1007 l 158 1232 l 293 1232 l 408 1090 l 524 1232 l 658 1232 l 471 1007 m 717 936 l 717 826 l 243 118 l 736 118 l 736 0 l 75 0 l 75 113 l 547 818 l 82 818 l 82 936 l 717 936 z "},"ž":{"ha":640,"x_min":60,"x_max":593,"o":"m 406 775 l 281 775 l 93 1000 l 228 1000 l 343 858 l 458 1000 l 593 1000 l 406 775 m 563 704 l 563 607 l 217 115 l 581 115 l 581 0 l 60 0 l 60 104 l 401 590 l 72 590 l 72 704 l 563 704 z "},"ſ":{"ha":361,"x_min":99,"x_max":403,"o":"m 336 951 q 235 831 235 951 l 235 0 l 99 0 l 99 832 q 158 1005 99 942 q 324 1068 217 1068 q 403 1057 369 1068 l 403 939 q 336 951 369 951 z "},"ƒ":{"ha":597,"x_min":-78,"x_max":606,"o":"m 506 944 q 606 932 569 944 l 606 814 q 526 828 567 828 q 400 672 425 828 l 374 521 l 510 521 l 510 415 l 357 415 l 269 -96 q 29 -357 226 -357 q -78 -340 -35 -357 l -78 -222 q 14 -240 -35 -240 q 135 -85 110 -240 l 219 415 l 89 415 l 89 521 l 236 521 l 264 683 q 506 944 307 944 z "},"Ș":{"ha":724,"x_min":81,"x_max":656,"o":"m 182 -346 l 293 -71 l 444 -71 l 289 -346 l 182 -346 m 396 815 q 276 781 319 815 q 232 692 232 747 q 275 603 232 636 q 392 538 318 569 q 498 488 465 506 q 572 436 531 469 q 656 253 656 374 q 568 61 656 132 q 334 -10 481 -10 q 86 50 188 -10 l 86 199 q 340 117 196 117 q 461 152 417 117 q 506 250 506 188 q 479 319 506 288 q 422 366 453 350 q 343 404 392 382 q 280 433 294 426 q 232 458 265 440 q 183 489 199 476 q 143 524 167 501 q 108 568 119 546 q 81 685 81 629 q 167 874 81 804 q 386 943 254 943 q 607 899 518 943 l 607 757 q 396 815 514 815 z "},"ș":{"ha":582,"x_min":76,"x_max":536,"o":"m 322 597 q 245 575 274 597 q 217 517 217 553 q 253 451 217 474 q 270 440 264 444 q 291 428 276 435 q 313 417 306 421 q 388 383 333 407 q 490 315 443 360 q 536 185 536 269 q 469 47 536 100 q 283 -7 403 -7 q 81 35 164 -7 l 81 164 q 282 104 178 104 q 366 126 336 104 q 396 182 396 149 q 372 240 396 215 q 324 276 349 264 q 242 313 300 288 q 76 513 76 381 q 146 658 76 606 q 324 711 215 711 q 497 681 433 711 l 497 557 q 322 597 429 597 m 118 -346 l 229 -71 l 381 -71 l 224 -346 l 118 -346 z "},"Ț":{"ha":694,"x_min":31,"x_max":664,"o":"m 31 936 l 664 936 l 664 817 l 418 817 l 418 0 l 275 0 l 275 817 l 31 817 l 31 936 m 157 -346 l 268 -71 l 419 -71 l 264 -346 l 157 -346 z "},"ț":{"ha":519,"x_min":25,"x_max":465,"o":"m 272 599 l 272 211 q 369 110 272 110 q 465 140 426 110 l 465 18 q 353 -7 419 -7 q 135 214 135 -7 l 135 599 l 25 599 l 25 704 l 135 704 l 135 876 l 272 876 l 272 704 l 457 704 l 457 599 l 272 599 m 154 -346 l 265 -71 l 417 -71 l 261 -346 l 154 -346 z "},"ȷ":{"ha":336,"x_min":-61,"x_max":240,"o":"m 28 -158 q 104 -60 104 -158 l 104 704 l 240 704 l 240 -62 q 188 -217 240 -161 q 40 -272 136 -272 q -61 -251 -4 -272 l -61 -136 q 28 -158 -17 -158 z "},"ʼ":{"ha":283,"x_min":28,"x_max":313,"o":"m 28 639 l 151 965 l 313 965 l 140 639 l 28 639 z "},"ˆ":{"ha":617,"x_min":58,"x_max":558,"o":"m 246 1108 l 371 1108 l 558 883 l 424 883 l 307 1025 l 193 883 l 58 883 l 246 1108 z "},"ˇ":{"ha":617,"x_min":58,"x_max":558,"o":"m 371 883 l 246 883 l 58 1108 l 193 1108 l 308 967 l 424 1108 l 558 1108 l 371 883 z "},"ˉ":{"ha":617,"x_min":97,"x_max":519,"o":"m 519 946 l 97 946 l 97 1040 l 519 1040 l 519 946 z "},"˘":{"ha":617,"x_min":67,"x_max":550,"o":"m 67 1108 l 175 1108 q 208 1010 175 1047 q 308 972 242 972 q 408 1010 375 972 q 442 1108 442 1047 l 550 1108 q 488 939 550 999 q 308 879 425 879 q 129 939 192 879 q 67 1108 67 999 z "},"˙":{"ha":617,"x_min":224,"x_max":392,"o":"m 248 940 q 236 952 248 940 q 224 1000 224 964 q 248 1060 224 1036 q 308 1083 272 1083 q 368 1060 344 1083 q 392 1000 392 1036 q 368 940 392 964 q 308 917 344 917 q 248 940 272 917 z "},"˚":{"ha":617,"x_min":149,"x_max":468,"o":"m 255 1051 q 244 1040 255 1051 q 233 999 233 1029 q 255 945 233 968 q 308 922 276 922 q 360 945 339 922 q 382 999 382 968 q 360 1051 382 1029 q 308 1074 339 1074 q 255 1051 276 1074 m 308 838 q 275 838 308 838 q 195 884 242 838 q 149 997 149 931 q 195 1110 149 1063 q 308 1157 242 1157 q 421 1110 374 1157 q 468 997 468 1063 q 421 884 468 931 q 308 838 374 838 z "},"˛":{"ha":617,"x_min":160,"x_max":457,"o":"m 457 -297 q 328 -326 407 -326 q 205 -283 250 -326 q 160 -162 160 -239 q 229 -18 160 -85 q 382 79 299 49 l 432 17 q 274 -160 274 -68 q 354 -231 274 -231 q 457 -197 411 -231 l 457 -297 z "},"˜":{"ha":617,"x_min":71,"x_max":563,"o":"m 411 899 q 315 927 371 899 q 231 956 258 956 q 139 892 182 956 l 71 954 q 130 1027 90 997 q 215 1057 169 1057 q 319 1028 261 1057 q 404 1000 378 1000 q 485 1060 456 1000 l 563 1001 q 411 899 514 899 z "},"˝":{"ha":617,"x_min":49,"x_max":568,"o":"m 49 883 l 179 1108 l 322 1108 l 153 883 l 49 883 m 278 883 l 417 1108 l 568 1108 l 382 883 l 278 883 z "},"π":{"ha":818,"x_min":32,"x_max":797,"o":"m 797 704 l 797 599 l 669 599 l 669 0 l 533 0 l 533 599 l 294 599 l 294 250 q 235 56 294 111 q 56 0 176 0 l 56 117 q 135 142 113 117 q 158 240 158 167 l 158 599 l 32 599 l 32 704 l 797 704 z "},"ँ":{"ha":0,"x_min":-462,"x_max":82,"o":"m -190 1253 q -207 1253 -190 1253 q -246 1275 -224 1253 q -268 1331 -268 1297 q -246 1388 -268 1365 q -190 1411 -224 1411 q -133 1388 -156 1411 q -110 1331 -110 1364 q -133 1275 -110 1297 q -190 1253 -156 1253 m 82 1256 q 3 1085 82 1146 q -193 1024 -76 1024 q -386 1083 -310 1024 q -462 1256 -462 1142 l -332 1256 q -294 1163 -332 1199 q -191 1126 -257 1126 q -87 1163 -125 1126 q -50 1256 -50 1199 l 82 1256 z "},"ं":{"ha":0,"x_min":-275,"x_max":-103,"o":"m -251 1041 q -263 1053 -251 1041 q -275 1101 -275 1065 q -251 1163 -275 1138 q -190 1189 -226 1189 q -128 1163 -153 1189 q -103 1101 -103 1138 q -128 1041 -103 1065 q -190 1017 -153 1017 q -251 1041 -226 1017 z "},"ः":{"ha":410,"x_min":94,"x_max":268,"o":"m 180 129 q 161 129 180 129 q 119 154 143 129 q 94 216 94 179 q 119 278 94 253 q 180 303 143 303 q 242 277 217 303 q 268 215 268 251 q 242 154 268 179 q 180 129 217 129 m 119 611 q 107 624 119 611 q 94 672 94 636 q 119 733 94 708 q 180 758 143 758 q 242 733 217 758 q 268 672 268 708 q 242 611 268 636 q 180 586 217 586 q 119 611 143 586 z "},"अ":{"ha":932,"x_min":42,"x_max":967,"o":"m 967 903 l 967 792 l 811 792 l 811 0 l 678 0 l 678 350 l 497 350 q 499 325 499 342 q 425 154 499 219 q 217 89 351 89 q 42 122 122 89 l 42 247 q 202 203 128 203 q 322 235 276 203 q 368 340 368 268 q 207 458 368 458 l 156 458 l 156 575 l 200 575 q 303 604 268 575 q 339 685 339 633 q 218 789 339 789 q 81 756 142 789 l 81 879 q 224 906 147 906 q 408 850 343 906 q 474 700 474 794 q 438 582 474 629 q 340 518 401 535 q 451 463 408 510 l 678 463 l 678 792 l 557 792 l 557 903 l 967 903 z "},"आ":{"ha":1307,"x_min":42,"x_max":1340,"o":"m 1340 903 l 1340 792 l 1186 792 l 1186 0 l 1051 0 l 1051 792 l 811 792 l 811 0 l 678 0 l 678 350 l 497 350 q 499 325 499 342 q 425 154 499 219 q 217 89 351 89 q 42 122 122 89 l 42 247 q 202 203 128 203 q 322 235 276 203 q 368 340 368 268 q 207 458 368 458 l 156 458 l 156 575 l 200 575 q 303 604 268 575 q 339 685 339 633 q 218 789 339 789 q 81 756 142 789 l 81 879 q 224 906 147 906 q 408 850 343 906 q 474 700 474 794 q 438 582 474 629 q 340 518 401 535 q 451 463 408 510 l 678 463 l 678 792 l 557 792 l 557 903 l 1340 903 z "},"इ":{"ha":688,"x_min":-33,"x_max":721,"o":"m 572 792 l 572 582 l 333 582 q 253 563 283 582 q 224 506 224 543 q 259 451 224 468 q 376 428 294 433 q 580 372 514 422 q 646 226 646 322 q 578 68 646 131 q 403 6 510 6 q 217 63 296 6 l 217 -87 l 85 -87 l 85 239 l 207 239 q 280 147 229 182 q 388 111 331 111 q 479 142 446 111 q 513 219 513 172 q 476 289 513 267 q 363 315 440 311 q 228 333 285 318 q 131 389 172 347 q 89 500 89 431 q 156 643 89 593 q 333 693 224 693 l 439 693 l 439 792 l -33 792 l -33 903 l 721 903 l 721 792 l 572 792 z "},"ई":{"ha":688,"x_min":-33,"x_max":721,"o":"m 567 792 l 567 582 l 333 582 q 253 563 283 582 q 224 506 224 543 q 259 451 224 468 q 376 428 294 433 q 580 372 514 422 q 646 226 646 322 q 578 68 646 131 q 403 6 510 6 q 217 63 296 6 l 217 -87 l 85 -87 l 85 239 l 207 239 q 280 147 229 182 q 388 111 331 111 q 479 142 446 111 q 513 219 513 172 q 476 289 513 267 q 363 315 440 311 q 228 333 285 318 q 131 389 172 347 q 89 500 89 431 q 156 643 89 593 q 333 693 224 693 l 432 693 l 432 792 l -33 792 l -33 903 l 400 903 q 354 1040 354 954 q 415 1183 354 1126 q 558 1240 475 1240 q 690 1217 642 1240 l 690 1094 q 592 1121 644 1121 q 515 1094 539 1121 q 490 1017 490 1068 q 540 903 490 967 l 721 903 l 721 792 l 567 792 z "},"उ":{"ha":610,"x_min":-33,"x_max":643,"o":"m 643 903 l 643 792 l 465 792 q 510 666 510 740 q 468 544 510 592 q 354 481 426 497 q 499 418 440 472 q 557 274 557 364 q 473 91 557 158 q 236 24 389 24 q 42 57 139 24 l 42 181 q 228 136 128 136 q 422 283 422 136 q 368 386 422 349 q 215 424 314 424 l 154 424 l 154 538 l 213 538 q 375 672 375 538 q 319 792 375 739 l -33 792 l -33 903 l 643 903 z "},"ऊ":{"ha":975,"x_min":-33,"x_max":1008,"o":"m 1008 903 l 1008 792 l 465 792 q 510 666 510 740 q 468 544 510 592 q 354 481 426 497 q 488 428 433 474 q 563 531 508 492 q 689 569 617 569 q 875 499 810 569 q 940 310 940 429 q 871 113 940 190 q 682 36 801 36 q 646 40 663 36 l 646 149 q 669 146 663 146 q 807 311 807 146 q 776 419 807 378 q 685 460 746 460 q 592 408 625 460 q 557 279 558 356 l 557 274 q 473 91 557 158 q 236 24 389 24 q 42 57 139 24 l 42 181 q 228 136 128 136 q 422 283 422 136 q 368 386 422 349 q 215 424 314 424 l 154 424 l 154 538 l 213 538 q 375 672 375 538 q 319 792 375 739 l -33 792 l -33 903 l 1008 903 z "},"ऋ":{"ha":1174,"x_min":-33,"x_max":1208,"o":"m 646 792 l 646 501 l 818 600 l 818 682 l 943 682 l 943 558 q 1057 442 943 442 l 1079 442 l 1079 332 l 1019 332 q 894 236 894 332 q 924 176 894 197 q 1015 156 953 156 q 1128 189 1078 156 l 1128 76 q 991 47 1078 47 q 833 94 904 47 q 763 229 763 142 q 798 332 763 288 q 894 396 833 376 q 828 479 846 422 l 646 375 l 646 0 l 510 0 l 510 307 l 81 53 l 81 186 l 368 353 q 311 483 351 436 q 201 529 271 529 q 68 503 132 529 l 68 625 q 213 650 124 650 q 374 592 301 650 q 475 415 447 535 l 510 436 l 510 792 l -33 792 l -33 903 l 1208 903 l 1208 792 l 646 792 z "},"ऌ":{"ha":1082,"x_min":-33,"x_max":1117,"o":"m 950 792 l 950 238 q 833 205 872 236 q 794 128 794 174 q 826 56 794 82 q 919 31 857 31 q 1040 56 982 31 l 1040 -53 q 913 -76 979 -76 q 731 -25 801 -76 q 661 122 661 26 q 701 237 661 188 q 815 306 742 286 l 815 536 q 728 554 769 554 q 585 389 585 554 l 585 292 l 450 292 l 450 392 q 336 544 450 544 q 245 499 281 544 q 210 352 210 453 q 268 182 210 251 q 443 113 326 113 q 507 121 478 113 l 507 10 q 426 0 465 0 q 172 103 268 0 q 76 367 76 206 q 143 576 76 496 q 322 656 210 656 q 453 621 401 656 q 518 528 506 586 q 719 663 553 663 q 815 644 767 663 l 815 792 l -33 792 l -33 903 l 1117 903 l 1117 792 l 950 792 z "},"ऍ":{"ha":779,"x_min":-33,"x_max":814,"o":"m 814 903 l 814 792 l 697 792 l 697 600 q 636 438 697 496 q 468 379 575 379 q 396 388 426 379 l 396 496 q 447 489 421 489 q 564 608 564 489 l 564 792 l 244 792 l 244 361 q 475 158 244 158 q 676 203 590 158 l 676 81 q 465 43 585 43 q 206 121 303 43 q 110 361 110 199 l 110 792 l -33 792 l -33 903 l 814 903 m 550 1256 l 681 1256 q 605 1085 681 1146 q 413 1024 529 1024 q 222 1083 296 1024 q 149 1256 149 1142 l 281 1256 q 315 1162 281 1197 q 415 1126 350 1126 q 515 1163 479 1126 q 550 1256 550 1199 z "},"ऎ":{"ha":779,"x_min":-33,"x_max":814,"o":"m 814 903 l 814 792 l 697 792 l 697 600 q 636 438 697 496 q 468 379 575 379 q 396 388 426 379 l 396 496 q 447 489 421 489 q 564 608 564 489 l 564 792 l 244 792 l 244 361 q 475 158 244 158 q 676 203 590 158 l 676 81 q 465 43 585 43 q 206 121 303 43 q 110 361 110 199 l 110 792 l -33 792 l -33 903 l 563 903 q 541 990 563 960 q 465 1019 519 1019 l 399 1019 q 224 1069 289 1019 q 160 1250 160 1118 l 294 1250 q 321 1156 294 1182 q 411 1131 347 1131 l 474 1131 q 697 903 696 1131 l 814 903 z "},"ए":{"ha":779,"x_min":-33,"x_max":814,"o":"m 814 903 l 814 792 l 697 792 l 697 600 q 636 438 697 496 q 468 379 575 379 q 396 388 426 379 l 396 496 q 447 489 421 489 q 564 608 564 489 l 564 792 l 244 792 l 244 361 q 475 158 244 158 q 676 203 590 158 l 676 81 q 465 43 585 43 q 206 121 303 43 q 110 361 110 199 l 110 792 l -33 792 l -33 903 l 814 903 z "},"ऐ":{"ha":779,"x_min":-33,"x_max":814,"o":"m 814 903 l 814 792 l 697 792 l 697 600 q 636 438 697 496 q 468 379 575 379 q 396 388 426 379 l 396 496 q 447 489 421 489 q 564 608 564 489 l 564 792 l 244 792 l 244 361 q 475 158 244 158 q 676 203 590 158 l 676 81 q 465 43 585 43 q 206 121 303 43 q 110 361 110 199 l 110 792 l -33 792 l -33 903 l 547 903 l 440 1065 q 319 1135 394 1135 q 244 1124 278 1135 l 244 1239 q 328 1247 294 1247 q 454 1217 401 1247 q 550 1122 507 1188 l 693 903 l 814 903 z "},"ऑ":{"ha":1307,"x_min":42,"x_max":1342,"o":"m 1342 903 l 1342 792 l 1188 792 l 1188 0 l 1053 0 l 1053 792 l 811 792 l 811 0 l 678 0 l 678 350 l 497 350 q 499 325 499 342 q 425 154 499 219 q 217 89 351 89 q 42 122 122 89 l 42 247 q 202 203 128 203 q 322 235 276 203 q 368 340 368 268 q 207 458 368 458 l 156 458 l 156 575 l 200 575 q 303 604 268 575 q 339 685 339 633 q 218 789 339 789 q 81 756 142 789 l 81 879 q 224 906 147 906 q 408 850 343 906 q 474 700 474 794 q 438 582 474 629 q 340 518 401 535 q 451 463 408 510 l 678 463 l 678 792 l 557 792 l 557 903 l 1342 903 m 1082 1256 l 1214 1256 q 1138 1085 1214 1146 q 945 1024 1061 1024 q 755 1083 829 1024 q 681 1256 681 1142 l 813 1256 q 848 1163 813 1199 q 948 1126 883 1126 q 1047 1163 1013 1126 q 1082 1256 1082 1199 z "},"ऒ":{"ha":1308,"x_min":42,"x_max":1342,"o":"m 1342 903 l 1342 792 l 1188 792 l 1188 0 l 1053 0 l 1053 792 l 811 792 l 811 0 l 678 0 l 678 350 l 497 350 q 499 325 499 342 q 425 154 499 219 q 217 89 351 89 q 42 122 122 89 l 42 247 q 202 203 128 203 q 322 235 276 203 q 368 340 368 268 q 207 458 368 458 l 156 458 l 156 575 l 200 575 q 303 604 268 575 q 339 685 339 633 q 218 789 339 789 q 81 756 142 789 l 81 879 q 224 906 147 906 q 408 850 343 906 q 474 700 474 794 q 438 582 474 629 q 340 518 401 535 q 451 463 408 510 l 678 463 l 678 792 l 557 792 l 557 903 l 1053 903 q 1031 990 1053 960 q 956 1019 1010 1019 l 889 1019 q 715 1069 779 1019 q 650 1250 650 1118 l 785 1250 q 811 1156 785 1182 q 901 1131 838 1131 l 964 1131 q 1188 903 1186 1131 l 1342 903 z "},"ओ":{"ha":1308,"x_min":42,"x_max":1335,"o":"m 1335 903 l 1335 792 l 1181 792 l 1181 0 l 1046 0 l 1046 792 l 811 792 l 811 0 l 678 0 l 678 350 l 497 350 q 499 325 499 342 q 425 154 499 219 q 217 89 351 89 q 42 122 122 89 l 42 247 q 202 203 128 203 q 322 235 276 203 q 368 340 368 268 q 207 458 368 458 l 156 458 l 156 575 l 200 575 q 303 604 268 575 q 339 685 339 633 q 218 789 339 789 q 81 756 142 789 l 81 879 q 224 906 147 906 q 408 850 343 906 q 474 700 474 794 q 438 582 474 629 q 340 518 401 535 q 451 463 408 510 l 678 463 l 678 792 l 557 792 l 557 903 l 1040 903 l 933 1065 q 813 1135 888 1135 q 738 1124 771 1135 l 738 1239 q 821 1247 788 1247 q 947 1217 894 1247 q 1043 1122 1000 1188 l 1186 903 l 1335 903 z "},"औ":{"ha":1308,"x_min":42,"x_max":1342,"o":"m 1342 903 l 1342 792 l 1188 792 l 1188 0 l 1053 0 l 1053 792 l 811 792 l 811 0 l 678 0 l 678 350 l 497 350 q 499 325 499 342 q 425 154 499 219 q 217 89 351 89 q 42 122 122 89 l 42 247 q 202 203 128 203 q 322 235 276 203 q 368 340 368 268 q 207 458 368 458 l 156 458 l 156 575 l 200 575 q 303 604 268 575 q 339 685 339 633 q 218 789 339 789 q 81 756 142 789 l 81 879 q 224 906 147 906 q 408 850 343 906 q 474 700 474 794 q 438 582 474 629 q 340 518 401 535 q 451 463 408 510 l 678 463 l 678 792 l 557 792 l 557 903 l 1014 903 q 781 997 881 997 q 701 986 735 997 l 701 1096 q 791 1107 740 1107 q 894 1081 842 1107 q 1032 979 947 1054 l 1085 932 l 957 1093 q 788 1175 890 1175 q 701 1164 735 1175 l 701 1274 q 796 1283 735 1283 q 1042 1140 951 1283 l 1192 903 l 1342 903 z "},"क":{"ha":1086,"x_min":-33,"x_max":1121,"o":"m 1121 792 l 611 792 l 611 607 q 780 669 674 669 q 958 599 886 669 q 1029 408 1029 528 q 948 215 1029 289 q 744 142 867 142 q 713 144 729 142 l 713 256 q 739 254 721 254 q 851 297 808 254 q 894 408 894 339 q 855 519 894 476 q 753 561 815 561 q 651 520 692 561 q 611 418 611 479 l 611 0 l 476 0 l 476 190 q 306 128 411 128 q 129 199 201 128 q 57 390 57 271 q 138 582 57 508 q 342 656 219 656 q 374 653 364 656 l 374 542 q 347 544 360 544 q 235 501 279 544 q 192 390 192 458 q 232 278 192 321 q 333 236 272 236 q 435 277 394 236 q 476 379 476 318 l 476 792 l -33 792 l -33 903 l 1121 903 l 1121 792 z "},"ख":{"ha":1107,"x_min":-33,"x_max":1142,"o":"m 1142 903 l 1142 792 l 988 792 l 988 0 l 851 0 l 851 229 q 693 174 790 174 q 526 240 596 174 q 457 414 457 307 q 528 587 457 521 q 701 653 599 653 q 760 647 729 653 l 760 542 q 719 546 747 546 q 624 508 661 546 q 586 410 586 469 q 623 314 586 350 q 717 278 660 278 q 813 315 775 278 q 851 415 851 351 l 851 792 l 432 792 l 432 603 q 375 447 432 506 q 203 379 315 389 l 500 0 l 338 0 l 44 378 l 44 486 l 142 486 q 299 613 299 486 l 299 792 l -33 792 l -33 903 l 1142 903 z "},"ग":{"ha":801,"x_min":-33,"x_max":836,"o":"m -33 903 l 836 903 l 836 792 l 681 792 l 681 0 l 549 0 l 549 792 l 332 792 l 332 475 q 283 335 332 383 q 163 288 235 288 q 42 306 92 288 l 42 419 q 121 400 81 400 q 199 485 199 400 l 199 792 l -33 792 l -33 903 z "},"घ":{"ha":890,"x_min":-33,"x_max":924,"o":"m 924 903 l 924 792 l 769 792 l 769 0 l 636 0 l 636 239 q 523 153 597 186 q 361 119 449 119 q 160 178 238 119 q 83 338 83 238 q 131 460 83 413 q 261 519 179 507 q 142 563 190 524 q 94 673 94 603 q 147 792 94 743 l -33 792 l -33 903 l 924 903 m 636 463 l 636 792 l 296 792 q 229 681 229 751 q 389 578 229 578 l 453 578 l 453 463 l 375 463 q 260 431 303 463 q 218 344 218 400 q 263 260 218 289 q 374 232 308 232 q 561 298 486 232 q 636 463 636 364 z "},"ङ":{"ha":831,"x_min":-33,"x_max":864,"o":"m -33 903 l 864 903 l 864 792 l 568 792 l 568 581 l 313 581 q 208 503 208 581 q 249 442 208 460 q 389 421 290 424 q 646 222 646 414 q 566 61 646 124 q 342 -1 486 -1 q 76 63 199 -1 l 76 192 q 351 111 204 111 q 469 140 426 111 q 511 217 511 168 q 472 286 511 267 q 340 308 433 306 q 75 500 75 318 q 142 643 75 594 q 310 692 208 692 l 435 692 l 435 792 l -33 792 l -33 903 m 664 545 q 676 557 664 545 q 722 569 688 569 q 781 545 757 569 q 806 486 806 521 q 782 428 806 451 q 722 404 758 404 q 663 427 686 404 q 640 485 640 450 q 664 545 640 521 z "},"च":{"ha":892,"x_min":-33,"x_max":925,"o":"m 925 903 l 925 792 l 771 792 l 771 0 l 636 0 l 636 253 q 383 135 560 136 q 196 197 268 135 q 124 367 124 258 q 222 526 124 475 l 36 526 l 36 639 l 517 639 l 517 526 q 316 483 378 526 q 254 375 254 440 q 296 276 254 310 q 408 243 338 243 q 575 309 514 243 q 636 453 636 375 l 636 792 l -33 792 l -33 903 l 925 903 z "},"छ":{"ha":888,"x_min":-33,"x_max":921,"o":"m 921 792 l 714 792 l 714 643 q 819 427 819 578 q 704 176 819 276 q 413 76 589 76 q 176 139 269 76 q 82 311 82 201 q 128 433 82 386 q 251 488 174 481 q 147 541 190 494 q 104 664 104 588 q 161 792 104 740 l -33 792 l -33 903 l 921 903 l 921 792 m 589 792 l 315 792 q 238 658 238 742 q 274 573 238 606 q 367 540 311 540 l 410 540 l 410 426 l 358 426 q 253 397 289 426 q 217 313 217 368 q 272 222 217 257 q 413 188 328 188 q 608 251 533 188 q 683 428 683 315 q 647 533 683 494 q 542 571 610 571 q 479 563 507 571 l 479 671 q 544 681 507 681 q 589 679 581 681 l 589 792 z "},"ज":{"ha":906,"x_min":-33,"x_max":940,"o":"m -33 903 l 940 903 l 940 792 l 786 792 l 786 0 l 651 0 l 651 519 l 394 519 q 490 342 490 463 q 414 153 490 221 q 213 85 338 85 q 42 115 118 85 l 42 235 q 190 199 111 199 q 315 238 269 199 q 360 353 360 276 q 299 475 360 431 q 131 519 239 519 l 131 632 l 651 632 l 651 792 l -33 792 l -33 903 z "},"झ":{"ha":1063,"x_min":-33,"x_max":1097,"o":"m 1097 903 l 1097 792 l 943 792 l 943 0 l 807 0 l 807 340 l 617 340 q 644 233 644 296 q 578 77 644 138 q 402 17 511 17 q 214 76 293 17 l 214 -68 l 82 -68 l 82 250 l 204 250 q 280 158 228 194 q 389 122 332 122 q 478 151 446 122 q 511 229 511 179 q 358 335 511 326 q 167 378 236 339 q 97 510 97 417 q 165 652 97 604 q 342 700 232 700 l 450 700 l 450 792 l -33 792 l -33 903 l 1097 903 m 807 447 l 807 792 l 583 792 l 583 589 l 349 589 q 232 517 232 589 q 264 467 232 481 q 394 447 293 453 l 807 447 z "},"ञ":{"ha":943,"x_min":-33,"x_max":978,"o":"m 978 903 l 978 792 l 824 792 l 824 0 l 688 0 l 688 349 l 549 349 q 456 171 536 239 q 247 99 375 103 q 33 149 133 99 l 33 272 q 227 214 132 214 q 368 261 322 214 q 414 381 414 308 q 372 498 414 454 q 261 542 329 542 q 143 519 193 542 l 143 633 q 263 654 193 654 q 449 603 376 654 q 542 460 521 551 l 688 460 l 688 792 l -33 792 l -33 903 l 978 903 z "},"ट":{"ha":697,"x_min":-33,"x_max":731,"o":"m 583 792 l 583 526 q 475 535 544 535 q 283 482 354 535 q 211 334 211 429 q 276 189 211 239 q 449 139 342 139 q 558 156 501 139 q 647 193 614 172 l 647 71 q 442 25 558 25 q 174 108 274 25 q 74 330 74 190 q 169 556 74 469 q 422 643 265 642 l 450 643 l 450 792 l -33 792 l -33 903 l 731 903 l 731 792 l 583 792 z "},"ठ":{"ha":788,"x_min":-33,"x_max":822,"o":"m 822 792 l 490 792 l 490 629 q 658 538 594 606 q 721 355 721 469 q 631 163 721 240 q 395 84 542 85 q 158 160 249 83 q 68 363 68 238 q 152 558 68 488 q 357 638 236 628 l 357 792 l -33 792 l -33 903 l 822 903 l 822 792 m 395 193 q 438 193 395 193 q 532 240 481 193 q 583 366 583 288 q 533 487 583 444 q 399 530 482 529 q 260 489 315 531 q 204 367 204 447 q 257 240 204 288 q 395 193 310 193 z "},"ड":{"ha":728,"x_min":-33,"x_max":763,"o":"m 568 792 l 568 581 l 313 581 q 208 503 208 581 q 249 442 208 460 q 389 421 290 424 q 646 222 646 414 q 566 61 646 124 q 342 -1 486 -1 q 76 63 199 -1 l 76 192 q 351 111 204 111 q 469 140 426 111 q 511 217 511 168 q 472 286 511 267 q 340 308 433 306 q 75 500 75 318 q 142 643 75 594 q 310 692 208 692 l 435 692 l 435 792 l -33 792 l -33 903 l 763 903 l 763 792 l 568 792 z "},"ढ":{"ha":775,"x_min":-33,"x_max":810,"o":"m 369 393 q 513 424 426 424 q 653 375 599 424 q 707 238 707 326 q 628 86 707 149 q 407 24 550 24 q 165 113 264 24 q 65 342 65 201 q 166 569 65 483 q 431 658 267 656 q 479 656 446 658 l 479 792 l -33 792 l -33 903 l 810 903 l 810 792 l 613 792 l 613 535 q 471 549 533 549 q 276 493 350 549 q 203 344 203 438 q 263 192 203 250 q 421 133 324 133 q 533 163 489 133 q 578 244 578 192 q 552 300 578 278 q 471 322 526 322 q 369 289 415 322 l 369 393 z "},"ण":{"ha":1036,"x_min":-33,"x_max":1071,"o":"m 1071 903 l 1071 792 l 915 792 l 915 0 l 782 0 l 782 792 l 575 792 l 575 488 q 510 299 575 364 q 324 233 444 233 q 81 486 81 233 l 81 792 l -33 792 l -33 903 l 1071 903 m 442 481 l 442 792 l 214 792 l 214 481 q 326 347 214 347 q 442 481 442 347 z "},"त":{"ha":824,"x_min":-33,"x_max":858,"o":"m 858 903 l 858 792 l 704 792 l 704 0 l 569 0 l 569 524 l 449 524 q 218 321 218 524 q 264 170 218 225 q 401 115 310 115 q 431 117 424 115 l 431 3 q 385 0 406 0 q 163 90 244 0 q 82 323 82 181 q 172 551 82 465 q 438 636 263 636 l 569 636 l 569 792 l -33 792 l -33 903 l 858 903 z "},"थ":{"ha":901,"x_min":36,"x_max":929,"o":"m 521 704 q 192 408 521 493 q 266 297 211 335 q 411 258 321 258 q 574 321 501 258 q 647 506 647 383 l 647 903 l 929 903 l 929 792 l 782 792 l 782 0 l 647 0 l 647 263 q 549 180 619 217 q 392 143 478 143 q 152 232 253 143 q 36 485 51 321 q 307 577 222 528 q 392 706 392 626 q 371 774 392 747 q 309 801 350 801 q 247 776 268 801 q 225 717 225 751 q 243 635 225 682 l 113 635 q 96 725 96 679 q 153 858 96 804 q 309 913 211 913 q 464 854 407 913 q 521 704 521 796 z "},"द":{"ha":775,"x_min":-33,"x_max":810,"o":"m -33 903 l 810 903 l 810 792 l 646 792 l 646 557 l 389 557 q 249 510 301 557 q 197 383 197 464 q 243 254 197 301 q 365 207 289 207 q 487 249 440 207 q 539 363 533 292 l 668 363 l 668 -14 l 536 -14 l 536 168 q 458 114 510 133 q 349 94 406 94 q 137 176 217 94 q 57 383 57 258 q 142 587 57 507 q 379 667 226 667 l 511 667 l 511 792 l -33 792 l -33 903 z "},"ध":{"ha":885,"x_min":-33,"x_max":918,"o":"m 918 903 l 918 792 l 764 792 l 764 0 l 631 0 l 631 210 q 526 124 594 157 q 371 92 457 92 q 158 153 239 92 q 78 315 78 215 q 129 442 78 394 q 267 497 181 489 q 136 544 183 504 q 89 658 89 585 q 168 792 89 751 l -33 792 l -33 903 l 403 903 l 403 792 l 401 792 q 270 757 317 792 q 224 665 224 722 q 270 581 224 608 q 393 553 317 553 l 460 553 l 460 440 l 382 440 q 258 409 303 440 q 214 323 214 378 q 259 236 214 268 q 381 204 304 204 q 562 269 493 204 q 631 428 631 335 l 631 903 l 918 903 z "},"न":{"ha":697,"x_min":-33,"x_max":731,"o":"m -33 903 l 731 903 l 731 792 l 576 792 l 576 0 l 442 0 l 442 451 l 217 451 q 181 438 192 451 q 171 388 171 425 q 188 294 171 351 l 78 294 q 36 450 36 365 q 68 531 36 501 q 165 561 100 561 l 442 561 l 442 792 l -33 792 l -33 903 z "},"ऩ":{"ha":697,"x_min":-33,"x_max":731,"o":"m -33 903 l 731 903 l 731 792 l 576 792 l 576 0 l 442 0 l 442 451 l 217 451 q 181 438 192 451 q 171 388 171 425 q 188 294 171 351 l 78 294 q 36 450 36 365 q 68 531 36 501 q 165 561 100 561 l 442 561 l 442 792 l -33 792 l -33 903 m 128 127 q 140 139 128 127 q 186 151 151 151 q 245 127 221 151 q 269 68 269 103 q 245 10 269 33 q 185 -14 221 -14 q 127 10 150 -14 q 104 68 104 33 q 128 127 104 103 z "},"प":{"ha":778,"x_min":-33,"x_max":813,"o":"m 813 903 l 813 792 l 657 792 l 657 0 l 522 0 l 522 317 q 344 242 456 243 q 92 521 92 242 l 92 792 l -33 792 l -33 903 l 813 903 m 522 528 l 522 792 l 226 792 l 226 517 q 260 390 226 429 q 361 351 293 351 q 476 399 429 351 q 522 528 522 446 z "},"फ":{"ha":1119,"x_min":-33,"x_max":1154,"o":"m 1154 792 l 657 792 l 657 615 q 829 679 721 679 q 1006 607 938 679 q 1075 415 1075 535 q 994 223 1075 294 q 792 151 913 151 q 758 154 778 151 l 758 265 q 785 263 775 263 q 899 304 856 263 q 942 416 942 346 q 903 528 942 486 q 802 569 864 569 q 699 529 740 569 q 657 425 657 489 l 657 0 l 522 0 l 522 318 q 338 246 457 246 q 156 310 219 246 q 92 517 92 374 l 92 792 l -33 792 l -33 903 l 1154 903 l 1154 792 m 522 528 l 522 792 l 226 792 l 226 517 q 260 392 226 429 q 361 354 293 354 q 476 400 429 354 q 522 528 522 446 z "},"ब":{"ha":861,"x_min":-33,"x_max":896,"o":"m 896 903 l 896 792 l 740 792 l 740 0 l 607 0 l 607 213 q 368 110 518 110 q 156 192 244 110 q 68 401 68 274 q 155 612 68 529 q 378 694 242 694 q 492 681 433 694 l 492 564 q 386 581 438 581 q 293 561 335 581 l 569 306 q 607 419 607 357 l 607 792 l -33 792 l -33 903 l 896 903 m 235 513 q 201 392 201 465 q 252 268 201 318 q 380 218 303 218 q 513 254 457 218 l 235 513 z "},"भ":{"ha":785,"x_min":3,"x_max":819,"o":"m 532 494 l 532 903 l 819 903 l 819 792 l 664 792 l 664 0 l 532 0 l 532 385 l 276 385 l 276 199 l 160 199 l 121 285 q 83 401 83 364 q 100 461 83 439 q 143 489 117 483 l 143 714 q 79 797 143 797 q 3 778 36 797 l 3 886 q 106 910 46 910 q 276 733 276 910 l 276 494 l 532 494 z "},"म":{"ha":800,"x_min":-33,"x_max":833,"o":"m 547 792 l 276 792 l 276 492 l 547 492 l 547 792 m -33 792 l -33 903 l 833 903 l 833 792 l 679 792 l 679 0 l 547 0 l 547 381 l 276 381 l 276 197 l 161 197 l 122 286 q 83 411 83 374 q 144 486 83 471 l 144 792 l -33 792 z "},"य":{"ha":872,"x_min":-33,"x_max":906,"o":"m 215 436 q 285 325 232 368 q 423 282 339 282 q 563 333 507 282 q 618 475 618 385 l 618 792 l 382 792 q 414 667 414 740 q 215 436 414 503 m 618 260 q 410 165 553 165 q 173 257 267 165 q 58 513 79 349 q 224 572 168 529 q 281 680 281 615 q 239 792 281 744 l -33 792 l -33 903 l 906 903 l 906 792 l 751 792 l 751 0 l 618 0 l 618 260 z "},"र":{"ha":539,"x_min":-33,"x_max":572,"o":"m 44 486 l 142 486 q 299 613 299 486 l 299 792 l -33 792 l -33 903 l 572 903 l 572 792 l 432 792 l 432 601 q 375 447 432 504 q 219 382 318 389 q 203 381 217 381 l 496 0 l 333 0 l 44 378 l 44 486 z "},"ऱ":{"ha":539,"x_min":-42,"x_max":572,"o":"m 44 486 l 142 486 q 299 613 299 486 l 299 792 l -33 792 l -33 903 l 572 903 l 572 792 l 432 792 l 432 601 q 375 447 432 504 q 219 382 318 389 q 203 381 217 381 l 496 0 l 333 0 l 44 378 l 44 486 m -18 -35 q -30 -23 -18 -35 q -42 24 -42 -11 q -18 83 -42 58 q 40 107 6 107 q 100 83 75 107 q 125 24 125 58 q 101 -35 125 -11 q 41 -58 76 -58 q -18 -35 6 -58 z "},"ल":{"ha":1031,"x_min":-33,"x_max":1064,"o":"m 1064 903 l 1064 792 l 910 792 l 910 0 l 775 0 l 775 544 q 714 554 743 554 q 571 389 571 554 l 571 292 l 436 292 l 436 392 q 328 544 436 544 q 237 499 272 544 q 201 352 201 453 q 260 182 201 251 q 435 113 318 113 q 478 115 463 113 l 478 6 q 418 0 454 0 q 163 103 258 0 q 68 367 68 206 q 135 576 68 496 q 314 656 201 656 q 442 621 392 656 q 504 528 492 586 q 704 663 539 663 q 775 651 742 663 l 775 792 l -33 792 l -33 903 l 1064 903 z "},"ळ":{"ha":1110,"x_min":-33,"x_max":1144,"o":"m 1144 792 l 843 792 l 843 650 q 997 561 940 629 q 1053 383 1053 493 q 972 199 1053 274 q 761 125 892 125 q 538 221 631 125 q 340 125 468 125 q 135 197 213 125 q 57 390 57 269 q 135 584 57 510 q 340 658 213 658 q 561 568 468 658 q 715 653 621 640 l 715 792 l -33 792 l -33 903 l 1144 903 l 1144 792 m 232 277 q 251 256 232 277 q 338 235 271 235 q 439 292 404 235 q 482 394 465 336 q 504 469 499 453 q 338 550 429 550 q 232 505 271 550 q 193 390 193 460 q 232 277 193 319 m 768 235 q 876 278 836 235 q 917 393 917 322 q 876 506 917 464 q 767 549 836 549 q 686 519 714 549 q 659 492 669 503 q 638 451 649 481 q 624 411 628 422 q 597 321 606 364 q 768 235 671 235 z "},"ऴ":{"ha":1110,"x_min":-33,"x_max":1144,"o":"m 1144 792 l 843 792 l 843 650 q 997 561 940 629 q 1053 383 1053 493 q 972 199 1053 274 q 761 125 892 125 q 538 221 631 125 q 340 125 468 125 q 135 197 213 125 q 57 390 57 269 q 135 584 57 510 q 340 658 213 658 q 561 568 468 658 q 715 653 621 640 l 715 792 l -33 792 l -33 903 l 1144 903 l 1144 792 m 232 277 q 251 256 232 277 q 338 235 271 235 q 439 292 404 235 q 482 394 465 336 q 504 469 499 453 q 338 550 429 550 q 232 505 271 550 q 193 390 193 460 q 232 277 193 319 m 768 235 q 876 278 836 235 q 917 393 917 322 q 876 506 917 464 q 767 549 836 549 q 686 519 714 549 q 659 492 669 503 q 638 451 649 481 q 624 411 628 422 q 597 321 606 364 q 768 235 671 235 m 242 -3 q 255 9 242 -3 q 301 21 267 21 q 360 -3 336 21 q 385 -62 385 -28 q 360 -121 385 -97 q 301 -144 336 -144 q 242 -121 267 -144 q 218 -62 218 -97 q 242 -3 218 -28 z "},"व":{"ha":808,"x_min":-33,"x_max":843,"o":"m 843 903 l 843 792 l 688 792 l 688 0 l 554 0 l 554 215 q 351 124 479 124 q 142 197 224 124 q 60 392 60 269 q 139 592 60 514 q 344 669 218 669 q 436 660 394 669 l 436 542 q 343 554 399 554 q 242 511 288 554 q 196 395 196 468 q 242 278 196 322 q 366 233 288 233 q 499 290 444 233 q 554 426 554 347 l 554 792 l -33 792 l -33 903 l 843 903 z "},"श":{"ha":949,"x_min":42,"x_max":982,"o":"m 693 903 l 982 903 l 982 792 l 828 792 l 828 0 l 693 0 l 693 903 m 94 706 q 153 848 94 789 q 317 907 213 907 q 489 835 422 907 q 556 656 556 763 q 457 429 556 510 q 226 349 358 349 l 203 349 l 524 0 l 349 0 l 42 343 l 42 460 l 183 460 q 360 511 297 460 q 422 656 422 563 q 313 793 422 793 q 246 765 268 793 q 224 695 224 736 q 244 613 224 654 l 115 613 q 94 706 94 658 z "},"ष":{"ha":818,"x_min":-33,"x_max":851,"o":"m 851 903 l 851 792 l 697 792 l 697 0 l 564 0 l 564 310 q 370 235 493 235 q 173 305 247 235 q 99 517 99 375 l 99 792 l -33 792 l -33 903 l 851 903 m 229 517 q 273 386 229 429 q 396 343 317 343 q 526 406 475 343 l 229 699 l 229 517 m 564 517 l 564 792 l 251 792 l 561 481 q 564 517 564 506 z "},"स":{"ha":901,"x_min":-33,"x_max":935,"o":"m 935 903 l 935 792 l 781 792 l 781 0 l 647 0 l 647 360 l 421 360 q 203 372 288 360 l 460 0 l 297 0 l 36 386 l 36 488 l 129 488 q 233 518 204 488 q 263 611 263 549 l 263 792 l -33 792 l -33 903 l 935 903 m 647 471 l 647 792 l 396 792 l 396 606 q 363 471 396 522 l 647 471 z "},"ह":{"ha":744,"x_min":-33,"x_max":779,"o":"m 629 574 l 289 574 q 218 518 218 574 q 275 425 218 457 q 406 442 333 442 q 589 385 522 442 q 656 250 656 329 q 642 171 656 203 l 510 171 q 528 240 528 200 q 496 306 528 281 q 390 332 464 332 q 269 295 317 332 q 222 200 222 258 q 277 102 222 142 q 431 63 332 63 q 628 88 529 63 l 628 -25 q 440 -47 526 -47 q 179 29 271 -47 q 88 208 88 106 q 178 378 88 311 q 82 535 82 435 q 133 644 82 606 q 265 682 183 682 l 496 682 l 496 792 l -33 792 l -33 903 l 779 903 l 779 792 l 629 792 l 629 574 z "},"़":{"ha":0,"x_min":-467,"x_max":-301,"o":"m -443 -237 q -455 -226 -443 -237 q -467 -179 -467 -214 q -443 -120 -467 -144 q -385 -96 -419 -96 q -326 -120 -350 -96 q -301 -179 -301 -144 q -326 -237 -301 -214 q -385 -261 -350 -261 q -443 -237 -419 -261 z "},"ऽ":{"ha":682,"x_min":44,"x_max":638,"o":"m 638 236 q 563 66 638 136 q 333 -4 488 -4 q 44 72 178 -4 l 44 214 q 192 144 110 172 q 347 117 274 117 q 460 150 421 117 q 500 231 500 183 q 453 325 500 279 q 341 412 407 371 q 208 497 275 453 q 95 601 142 542 q 49 734 49 660 q 102 856 49 808 q 251 903 156 903 l 596 903 l 596 782 l 265 782 q 190 719 190 782 q 236 643 190 683 q 348 562 282 603 q 480 475 414 521 q 592 367 546 429 q 638 236 638 304 z "},"ा":{"ha":375,"x_min":-33,"x_max":410,"o":"m -33 792 l -33 903 l 410 903 l 410 792 l 256 792 l 256 0 l 121 0 l 121 792 l -33 792 z "},"ि":{"ha":375,"x_min":-33,"x_max":918,"o":"m 918 997 q 645 1103 792 1064 q 414 1142 499 1142 q 254 1003 254 1142 l 254 903 l 408 903 l 408 792 l 254 792 l 254 0 l 121 0 l 121 792 l -33 792 l -33 903 l 121 903 l 121 1004 q 194 1190 121 1119 q 396 1260 267 1260 q 918 1121 621 1260 l 918 997 z "},"ी":{"ha":375,"x_min":-261,"x_max":408,"o":"m 253 903 l 408 903 l 408 792 l 254 792 l 254 0 l 121 0 l 121 792 l -33 792 l -33 903 l 118 903 l 118 1011 q 84 1107 118 1074 q -6 1140 50 1140 q -94 1108 -62 1140 q -126 1011 -126 1076 l -126 982 l -261 982 l -261 1014 q -189 1196 -261 1135 q -6 1257 -117 1257 q 178 1196 104 1257 q 253 1015 253 1135 l 253 903 z "},"ु":{"ha":0,"x_min":-594,"x_max":31,"o":"m -225 -272 q -133 -246 -165 -272 q -100 -179 -100 -219 q -128 -117 -100 -139 q -206 -94 -156 -94 q -342 -137 -256 -94 l -342 -18 q -200 15 -275 15 q -28 -37 -87 15 q 31 -178 31 -89 q -37 -326 31 -268 q -214 -383 -106 -383 q -426 -335 -322 -383 q -594 -229 -531 -287 l -594 -79 q -426 -210 -532 -149 q -225 -272 -319 -272 z "},"ू":{"ha":0,"x_min":-412,"x_max":144,"o":"m -194 -368 q -351 -317 -289 -368 q -412 -179 -412 -267 q -352 -36 -412 -92 q -199 19 -292 19 q -37 -22 -106 19 q 69 -128 32 -62 q 144 -399 144 -256 l 19 -399 q -36 -182 19 -274 q -190 -90 -92 -90 q -258 -114 -232 -90 q -283 -177 -283 -137 q -254 -240 -283 -217 q -189 -262 -225 -262 q -128 -254 -153 -262 l -128 -358 q -194 -368 -154 -368 z "},"ृ":{"ha":0,"x_min":-446,"x_max":-100,"o":"m -219 -401 q -383 -346 -321 -401 q -446 -206 -446 -290 q -392 -69 -446 -121 q -256 -10 -339 -17 l -256 14 l -121 14 l -121 -110 l -187 -110 q -281 -135 -247 -110 q -314 -203 -314 -160 q -288 -272 -314 -247 q -207 -296 -262 -296 q -100 -262 -151 -296 l -100 -369 q -219 -401 -154 -401 z "},"ॅ":{"ha":0,"x_min":-454,"x_max":79,"o":"m 79 1256 q 3 1085 79 1146 q -190 1024 -74 1024 q -380 1083 -306 1024 q -454 1256 -454 1142 l -322 1256 q -287 1163 -322 1199 q -187 1126 -251 1126 q -87 1162 -122 1126 q -53 1256 -53 1197 l 79 1256 z "},"ॆ":{"ha":0,"x_min":-658,"x_max":-121,"o":"m -407 1131 l -344 1131 q -121 900 -121 1131 l -256 900 q -276 989 -256 958 q -353 1019 -297 1019 l -419 1019 q -594 1069 -529 1019 q -658 1250 -658 1118 l -524 1250 q -497 1156 -524 1182 q -407 1131 -471 1131 z "},"े":{"ha":0,"x_min":-572,"x_max":-117,"o":"m -489 1247 q -362 1217 -415 1247 q -267 1122 -310 1188 l -117 893 l -262 893 l -376 1065 q -497 1135 -422 1135 q -572 1124 -539 1135 l -572 1239 q -489 1247 -522 1247 z "},"ै":{"ha":0,"x_min":-608,"x_max":-112,"o":"m -282 893 q -412 972 -357 946 q -522 997 -468 997 q -608 986 -575 997 l -608 1096 q -519 1107 -569 1107 q -415 1081 -468 1107 q -278 979 -362 1054 l -225 932 l -353 1093 q -522 1175 -419 1175 q -608 1164 -575 1175 l -608 1274 q -514 1283 -574 1283 q -268 1140 -358 1283 l -112 893 l -282 893 z "},"ॉ":{"ha":375,"x_min":-83,"x_max":449,"o":"m 449 1256 q 372 1085 449 1146 q 180 1024 296 1024 q -10 1083 64 1024 q -83 1256 -83 1142 l 47 1256 q 83 1163 47 1199 q 183 1126 118 1126 q 282 1163 247 1126 q 317 1256 317 1199 l 449 1256 m -33 792 l -33 903 l 408 903 l 408 792 l 254 792 l 254 0 l 121 0 l 121 792 l -33 792 z "},"ॊ":{"ha":374,"x_min":-283,"x_max":408,"o":"m 408 903 l 408 792 l 254 792 l 254 0 l 121 0 l 121 792 l -33 792 l -33 903 l 119 903 q 98 990 119 960 q 22 1019 76 1019 l -44 1019 q -219 1069 -154 1019 q -283 1250 -283 1118 l -149 1250 q -122 1156 -149 1182 q -32 1131 -96 1131 l 31 1131 q 254 903 253 1131 l 408 903 z "},"ो":{"ha":374,"x_min":-197,"x_max":408,"o":"m 408 903 l 408 792 l 254 792 l 254 0 l 121 0 l 121 792 l -33 792 l -33 903 l 106 903 l -1 1065 q -122 1135 -47 1135 q -197 1124 -164 1135 l -197 1239 q -114 1247 -147 1247 q 13 1217 -40 1247 q 108 1122 65 1188 l 251 903 l 408 903 z "},"ौ":{"ha":375,"x_min":-233,"x_max":408,"o":"m 408 903 l 408 792 l 254 792 l 254 0 l 121 0 l 121 792 l -33 792 l -33 903 l 79 903 q -154 997 -54 997 q -233 986 -200 997 l -233 1096 q -144 1107 -194 1107 q -40 1081 -93 1107 q 97 979 13 1054 l 150 932 l 22 1093 q -147 1175 -44 1175 q -233 1164 -200 1175 l -233 1274 q -139 1283 -200 1283 q 107 1140 17 1283 l 257 903 l 408 903 z "},"्":{"ha":0,"x_min":-243,"x_max":90,"o":"m 90 -326 l -72 -326 l -243 -93 l -106 -93 l 90 -326 z "},"ॐ":{"ha":1715,"x_min":147,"x_max":1581,"o":"m 1229 944 q 1150 775 1229 836 q 954 714 1071 714 q 761 773 838 714 q 685 944 685 832 l 815 944 q 854 852 815 889 q 958 815 893 815 q 1060 852 1024 815 q 1097 944 1097 889 l 1229 944 m 901 965 q 890 976 901 965 q 879 1021 879 988 q 902 1078 879 1054 q 958 1101 925 1101 q 1015 1078 992 1101 q 1038 1021 1038 1054 q 1015 965 1038 988 q 958 943 992 943 q 901 965 924 943 m 1083 247 q 981 116 1036 164 q 852 68 926 68 q 731 100 778 68 q 663 176 685 132 q 569 51 643 103 q 390 0 494 0 q 147 60 247 0 l 147 189 q 388 114 263 114 q 504 151 461 114 q 547 251 547 189 q 383 367 547 367 l 297 367 l 297 478 l 344 478 q 465 515 426 478 q 503 608 503 551 q 469 699 503 665 q 375 732 435 732 q 190 674 271 732 l 190 792 q 386 844 269 844 q 569 782 503 844 q 636 622 636 719 q 606 511 636 557 q 529 444 576 465 q 678 340 619 439 q 694 312 682 335 q 712 281 707 289 q 729 254 717 272 q 751 228 742 236 q 772 211 760 221 q 838 192 797 192 q 915 233 878 192 q 983 326 953 275 q 1042 426 1014 378 q 1081 490 1069 474 q 1118 545 1092 507 q 1163 599 1144 583 q 1208 636 1181 615 q 1328 674 1258 674 q 1511 592 1442 674 q 1581 378 1581 510 q 1507 155 1581 247 q 1308 63 1433 63 q 1178 86 1235 63 l 1178 207 q 1297 175 1228 175 q 1406 230 1365 175 q 1447 367 1447 285 q 1418 501 1447 450 q 1339 551 1389 551 q 1243 497 1289 551 q 1083 247 1197 443 z "},"॑":{"ha":0,"x_min":-242,"x_max":-129,"o":"m -242 1296 l -129 1296 l -129 974 l -242 974 l -242 1296 z "},"॒":{"ha":0,"x_min":-779,"x_max":-112,"o":"m -112 -312 l -779 -312 l -779 -210 l -112 -210 l -112 -312 z "},"॓":{"ha":0,"x_min":-410,"x_max":-117,"o":"m -410 1224 l -324 1294 l -117 1047 l -203 976 l -410 1224 z "},"॔":{"ha":0,"x_min":-272,"x_max":21,"o":"m -65 1294 l 21 1224 l -186 976 l -272 1047 l -65 1294 z "},"क़":{"ha":1086,"x_min":-33,"x_max":1121,"o":"m 1121 792 l 611 792 l 611 607 q 780 669 674 669 q 958 599 886 669 q 1029 408 1029 528 q 948 215 1029 289 q 744 142 867 142 q 713 144 729 142 l 713 256 q 739 254 721 254 q 851 297 808 254 q 894 408 894 339 q 855 519 894 476 q 753 561 815 561 q 651 520 692 561 q 611 418 611 479 l 611 0 l 476 0 l 476 190 q 306 128 411 128 q 129 199 201 128 q 57 390 57 271 q 138 582 57 508 q 342 656 219 656 q 374 653 364 656 l 374 542 q 347 544 360 544 q 235 501 279 544 q 192 390 192 458 q 232 278 192 321 q 333 236 272 236 q 435 277 394 236 q 476 379 476 318 l 476 792 l -33 792 l -33 903 l 1121 903 l 1121 792 m 165 -1 q 177 11 165 -1 q 224 24 189 24 q 283 -1 258 24 q 307 -60 307 -25 q 283 -118 307 -94 q 224 -142 258 -142 q 165 -118 189 -142 q 142 -60 142 -94 q 165 -1 142 -25 z "},"ख़":{"ha":1107,"x_min":-33,"x_max":1142,"o":"m 1142 903 l 1142 792 l 988 792 l 988 0 l 851 0 l 851 229 q 693 174 790 174 q 526 240 596 174 q 457 414 457 307 q 528 587 457 521 q 701 653 599 653 q 760 647 729 653 l 760 542 q 719 546 747 546 q 624 508 661 546 q 586 410 586 469 q 623 314 586 350 q 717 278 660 278 q 813 315 775 278 q 851 415 851 351 l 851 792 l 432 792 l 432 603 q 375 447 432 506 q 203 379 315 389 l 500 0 l 338 0 l 44 378 l 44 486 l 142 486 q 299 613 299 486 l 299 792 l -33 792 l -33 903 l 1142 903 m 54 1 q 66 13 54 1 q 113 25 78 25 q 172 1 147 25 q 196 -58 196 -24 q 172 -117 196 -93 q 113 -140 147 -140 q 54 -117 78 -140 q 31 -59 31 -94 q 54 1 31 -24 z "},"ग़":{"ha":801,"x_min":-33,"x_max":836,"o":"m -33 903 l 836 903 l 836 792 l 681 792 l 681 0 l 549 0 l 549 792 l 332 792 l 332 475 q 283 335 332 383 q 163 288 235 288 q 42 306 92 288 l 42 419 q 121 400 81 400 q 199 485 199 400 l 199 792 l -33 792 l -33 903 m 135 97 q 147 109 135 97 q 193 121 158 121 q 252 97 228 121 q 276 38 276 72 q 252 -21 276 3 q 193 -44 228 -44 q 135 -21 158 -44 q 111 38 111 3 q 135 97 111 72 z "},"ज़":{"ha":906,"x_min":-33,"x_max":940,"o":"m -33 903 l 940 903 l 940 792 l 786 792 l 786 0 l 651 0 l 651 519 l 394 519 q 490 342 490 463 q 414 153 490 221 q 213 85 338 85 q 42 115 118 85 l 42 235 q 190 199 111 199 q 315 238 269 199 q 360 353 360 276 q 299 475 360 431 q 131 519 239 519 l 131 632 l 651 632 l 651 792 l -33 792 l -33 903 m 164 -59 q 176 -47 164 -59 q 222 -35 188 -35 q 281 -59 257 -35 q 306 -118 306 -83 q 281 -176 306 -153 q 222 -200 257 -200 q 163 -176 186 -200 q 140 -118 140 -153 q 164 -59 140 -83 z "},"ड़":{"ha":728,"x_min":-33,"x_max":763,"o":"m 568 792 l 568 581 l 313 581 q 208 503 208 581 q 249 442 208 460 q 389 421 290 424 q 646 222 646 414 q 566 61 646 124 q 342 -1 486 -1 q 76 63 199 -1 l 76 192 q 351 111 204 111 q 469 140 426 111 q 511 217 511 168 q 472 286 511 267 q 340 308 433 306 q 75 500 75 318 q 142 643 75 594 q 310 692 208 692 l 435 692 l 435 792 l -33 792 l -33 903 l 763 903 l 763 792 l 568 792 m 285 -128 q 297 -116 285 -128 q 343 -104 308 -104 q 402 -128 378 -104 q 426 -187 426 -153 q 402 -246 426 -222 q 343 -269 378 -269 q 285 -246 308 -269 q 261 -187 261 -222 q 285 -128 261 -153 z "},"ढ़":{"ha":775,"x_min":-33,"x_max":810,"o":"m 352 -237 q 341 -226 352 -237 q 329 -179 329 -214 q 353 -120 329 -144 q 411 -96 376 -96 q 470 -120 446 -96 q 494 -179 494 -144 q 470 -237 494 -214 q 410 -261 446 -261 q 352 -237 375 -261 m 369 393 q 513 424 426 424 q 653 375 599 424 q 707 238 707 326 q 628 86 707 149 q 407 24 550 24 q 165 113 264 24 q 65 342 65 201 q 166 569 65 483 q 431 658 267 656 q 479 656 446 658 l 479 792 l -33 792 l -33 903 l 810 903 l 810 792 l 613 792 l 613 535 q 471 549 533 549 q 276 493 350 549 q 203 344 203 438 q 263 192 203 250 q 421 133 324 133 q 533 163 489 133 q 578 244 578 192 q 552 300 578 278 q 471 322 526 322 q 369 289 415 322 l 369 393 z "},"फ़":{"ha":1119,"x_min":-33,"x_max":1154,"o":"m 1154 792 l 657 792 l 657 615 q 829 679 721 679 q 1006 607 938 679 q 1075 415 1075 535 q 994 223 1075 294 q 792 151 913 151 q 758 154 778 151 l 758 265 q 785 263 775 263 q 899 304 856 263 q 942 416 942 346 q 903 528 942 486 q 802 569 864 569 q 699 529 740 569 q 657 425 657 489 l 657 0 l 522 0 l 522 318 q 338 246 457 246 q 156 310 219 246 q 92 517 92 374 l 92 792 l -33 792 l -33 903 l 1154 903 l 1154 792 m 522 528 l 522 792 l 226 792 l 226 517 q 260 392 226 429 q 361 354 293 354 q 476 400 429 354 q 522 528 522 446 m 139 84 q 151 96 139 84 q 197 108 163 108 q 256 84 232 108 q 281 25 281 60 q 256 -33 281 -10 q 197 -57 232 -57 q 138 -34 161 -57 q 115 24 115 -11 q 139 84 115 60 z "},"य़":{"ha":872,"x_min":-33,"x_max":906,"o":"m 194 -99 q 176 -99 194 -99 q 135 -76 158 -99 q 113 -17 113 -53 q 136 42 113 18 q 194 67 160 67 q 253 42 229 67 q 278 -17 278 18 q 253 -75 278 -51 q 194 -99 229 -99 m 215 436 q 285 325 232 368 q 423 282 339 282 q 563 333 507 282 q 618 475 618 385 l 618 792 l 382 792 q 414 667 414 740 q 215 436 414 503 m 618 260 q 410 165 553 165 q 173 257 267 165 q 58 513 79 349 q 224 572 168 529 q 281 680 281 615 q 239 792 281 744 l -33 792 l -33 903 l 906 903 l 906 792 l 751 792 l 751 0 l 618 0 l 618 260 z "},"ॠ":{"ha":1031,"x_min":-33,"x_max":1064,"o":"m 599 792 l 599 479 l 728 547 l 728 658 l 858 658 l 858 581 q 878 470 858 518 q 921 397 897 422 q 986 260 983 333 q 927 109 988 158 q 763 60 867 60 q 706 64 736 60 l 707 183 q 765 176 732 176 q 827 198 799 176 q 856 260 856 219 q 813 350 856 300 q 758 431 771 400 l 599 346 l 599 0 l 467 0 l 467 294 l 83 92 l 83 232 l 332 357 q 269 483 311 440 q 150 525 226 525 q 74 511 111 525 l 74 636 q 161 646 111 646 q 440 413 382 646 l 467 425 l 467 792 l -33 792 l -33 903 l 1064 903 l 1064 792 l 599 792 z "},"ॡ":{"ha":1107,"x_min":-26,"x_max":1110,"o":"m 963 792 l 963 424 q 908 272 963 335 q 861 222 885 246 q 806 128 806 169 q 833 67 806 88 q 908 46 861 46 l 958 46 l 958 -65 l 875 -65 q 806 -90 831 -65 q 782 -153 782 -114 q 809 -220 782 -192 q 885 -249 836 -249 q 1006 -219 935 -249 l 1006 -337 q 882 -360 949 -360 q 711 -302 778 -360 q 644 -147 644 -244 q 735 -1 644 -50 q 672 122 672 43 q 728 244 672 190 q 772 292 750 268 q 828 424 828 349 l 828 578 l 738 578 q 622 538 657 578 q 586 403 586 499 l 586 319 l 453 319 l 453 404 q 329 581 453 581 q 224 532 263 581 q 185 392 185 483 q 411 103 185 147 l 408 -11 q 145 119 240 17 q 50 393 50 222 q 122 607 50 524 q 321 690 194 690 q 521 579 468 690 q 732 688 567 688 l 828 688 l 828 792 l -26 792 l -26 903 l 1110 903 l 1110 792 l 963 792 z "},"।":{"ha":531,"x_min":244,"x_max":379,"o":"m 244 0 l 244 903 l 379 903 l 379 0 l 244 0 z "},"॥":{"ha":844,"x_min":244,"x_max":693,"o":"m 558 0 l 558 903 l 693 903 l 693 0 l 558 0 m 244 0 l 244 903 l 379 903 l 379 0 l 244 0 z "},"०":{"ha":751,"x_min":54,"x_max":697,"o":"m 376 796 q 336 796 376 796 q 245 708 296 796 q 194 458 194 621 q 244 205 194 294 q 377 115 294 115 q 509 204 460 115 q 558 458 558 293 q 508 709 558 622 q 376 796 457 796 m 377 -11 q 301 -11 377 -11 q 140 117 225 -11 q 54 458 54 244 q 140 797 54 671 q 376 922 226 922 q 611 797 525 922 q 697 458 697 672 q 613 117 697 244 q 377 -11 529 -11 z "},"१":{"ha":517,"x_min":60,"x_max":411,"o":"m 411 908 l 411 0 l 275 0 l 275 760 l 60 628 l 60 774 l 286 908 l 411 908 z "},"२":{"ha":706,"x_min":60,"x_max":643,"o":"m 643 118 l 643 0 l 60 0 l 60 113 q 355 377 235 240 q 475 626 475 514 q 429 748 475 706 q 303 790 383 790 q 85 707 194 790 l 85 842 q 317 918 185 918 q 533 847 450 918 q 617 643 617 775 q 249 118 617 397 l 643 118 z "},"३":{"ha":683,"x_min":75,"x_max":615,"o":"m 106 868 q 313 918 189 918 q 514 849 436 918 q 592 676 592 781 q 555 545 592 601 q 447 460 518 489 q 571 386 526 440 q 615 250 615 332 q 534 65 615 138 q 311 -8 453 -8 q 75 39 169 -8 l 75 172 q 300 117 179 117 q 429 157 383 117 q 475 263 475 197 q 271 401 475 401 l 215 401 l 215 518 l 271 518 q 399 556 347 518 q 450 661 450 594 q 408 761 450 728 q 281 794 365 794 q 106 736 196 794 l 106 868 z "},"४":{"ha":796,"x_min":68,"x_max":742,"o":"m 742 331 l 742 213 l 614 213 l 614 0 l 479 0 l 479 213 l 68 213 l 68 331 l 394 910 l 614 910 l 614 331 l 742 331 m 479 331 l 479 829 l 204 331 l 479 331 z "},"५":{"ha":729,"x_min":86,"x_max":661,"o":"m 264 792 l 264 553 q 358 564 315 564 q 581 490 500 564 q 661 284 661 415 q 572 72 661 153 q 331 -10 482 -10 q 86 38 179 -10 l 86 169 q 300 115 175 115 q 519 293 519 115 q 470 403 519 364 q 326 443 421 443 q 129 394 232 443 l 129 910 l 600 910 l 600 792 l 264 792 z "},"६":{"ha":743,"x_min":67,"x_max":688,"o":"m 497 807 q 308 721 379 807 q 215 503 236 635 q 422 585 301 585 q 615 506 543 585 q 688 292 688 426 q 607 70 688 158 q 392 -18 526 -18 q 149 97 231 -18 q 67 406 67 213 q 182 783 67 635 q 490 932 297 932 q 622 911 560 932 l 622 779 q 497 807 568 807 m 207 382 q 262 172 211 239 q 388 106 313 106 q 506 158 464 106 q 547 292 547 211 q 506 419 547 372 q 394 465 464 465 q 207 382 282 465 z "},"७":{"ha":690,"x_min":46,"x_max":644,"o":"m 46 908 l 644 908 l 644 790 l 275 0 l 129 0 l 500 790 l 46 790 l 46 908 z "},"८":{"ha":753,"x_min":67,"x_max":686,"o":"m 686 240 q 597 57 686 126 q 374 -12 508 -12 q 153 54 239 -12 q 67 233 67 121 q 218 454 67 396 q 81 656 81 513 q 166 850 81 779 q 374 921 251 921 q 581 853 496 921 q 665 652 665 785 q 531 457 665 519 q 686 240 686 406 m 528 657 q 528 690 528 657 q 489 763 528 722 q 375 804 450 804 q 260 762 300 804 q 219 654 219 719 q 263 553 219 589 q 375 517 307 517 q 485 554 443 517 q 528 657 528 592 m 204 242 q 204 212 204 242 q 247 143 204 182 q 374 104 290 104 q 503 146 458 104 q 547 249 547 188 q 503 351 547 310 q 374 393 460 392 q 247 347 289 390 q 204 242 204 303 z "},"९":{"ha":728,"x_min":64,"x_max":676,"o":"m 268 115 q 457 185 394 115 q 533 399 519 256 q 344 322 465 322 q 143 402 222 322 q 64 612 64 482 q 141 831 64 742 q 353 919 218 919 q 593 805 510 919 q 676 508 676 690 q 576 124 676 260 q 278 -11 475 -11 q 118 15 190 -11 l 118 147 q 268 115 192 115 m 372 439 q 539 522 471 439 q 491 722 536 647 q 367 796 446 796 q 246 746 288 796 q 204 614 204 696 q 249 485 204 532 q 372 439 294 439 z "},"॰":{"ha":631,"x_min":82,"x_max":547,"o":"m 232 510 q 215 493 232 510 q 197 428 197 476 q 232 344 197 379 q 315 310 267 310 q 398 344 364 310 q 432 427 432 379 q 398 510 432 475 q 315 544 364 544 q 232 510 267 544 m 315 194 q 266 194 315 194 q 150 263 218 194 q 82 427 82 331 q 150 592 82 524 q 315 660 218 660 q 479 592 411 660 q 547 427 547 524 q 479 263 547 331 q 315 194 411 194 z "},"ॽ":{"ha":800,"x_min":154,"x_max":642,"o":"m 371 967 q 568 905 494 967 q 642 732 642 843 q 561 544 642 638 q 492 465 526 506 q 410 260 410 371 l 410 0 l 278 0 l 278 267 q 301 394 278 335 q 356 495 324 454 q 422 572 389 536 q 501 716 501 656 q 465 811 501 776 q 357 846 429 846 q 154 779 251 846 l 154 913 q 253 951 190 935 q 371 967 315 967 z "},"Ẁ":{"ha":1315,"x_min":43,"x_max":1274,"o":"m 600 922 l 726 922 l 825 589 l 951 149 q 1129 936 1001 396 l 1274 936 l 1044 0 l 874 0 l 785 296 l 664 714 q 461 0 639 611 l 289 0 l 43 936 l 192 936 l 279 590 l 382 151 q 600 922 440 367 m 583 1232 l 715 1007 l 599 1007 l 432 1232 l 583 1232 z "},"ẁ":{"ha":1106,"x_min":26,"x_max":1079,"o":"m 247 0 l 26 704 l 171 704 q 324 132 308 214 q 483 704 343 226 l 615 704 q 778 131 750 254 q 942 704 794 213 l 1079 704 l 856 0 l 700 0 q 550 556 575 440 q 401 0 532 469 l 247 0 m 471 1000 l 603 775 l 486 775 l 319 1000 l 471 1000 z "},"Ẃ":{"ha":1315,"x_min":43,"x_max":1274,"o":"m 619 1007 l 751 1232 l 903 1232 l 736 1007 l 619 1007 m 600 922 l 726 922 l 825 589 l 951 149 q 1129 936 1001 396 l 1274 936 l 1044 0 l 874 0 l 785 296 l 664 714 q 461 0 639 611 l 289 0 l 43 936 l 192 936 l 279 590 l 382 151 q 600 922 440 367 z "},"ẃ":{"ha":1106,"x_min":26,"x_max":1079,"o":"m 503 775 l 635 1000 l 786 1000 l 619 775 l 503 775 m 247 0 l 26 704 l 171 704 q 324 132 308 214 q 483 704 343 226 l 615 704 q 778 131 750 254 q 942 704 794 213 l 1079 704 l 856 0 l 700 0 q 550 556 575 440 q 401 0 532 469 l 247 0 z "},"Ẅ":{"ha":1315,"x_min":43,"x_max":1274,"o":"m 450 1060 q 438 1072 450 1060 q 426 1119 426 1083 q 450 1179 426 1156 q 510 1203 474 1203 q 571 1179 547 1203 q 594 1119 594 1156 q 571 1060 594 1083 q 510 1036 547 1036 q 450 1060 474 1036 m 757 1060 q 745 1072 757 1060 q 733 1119 733 1083 q 757 1179 733 1156 q 817 1203 781 1203 q 877 1179 853 1203 q 901 1119 901 1156 q 877 1060 901 1083 q 817 1036 853 1036 q 757 1060 781 1036 m 600 922 l 726 922 l 825 589 l 951 149 q 1129 936 1001 396 l 1274 936 l 1044 0 l 874 0 l 785 296 l 664 714 q 461 0 639 611 l 289 0 l 43 936 l 192 936 l 279 590 l 382 151 q 600 922 440 367 z "},"ẅ":{"ha":1106,"x_min":26,"x_max":1079,"o":"m 336 828 q 324 840 336 828 q 313 888 313 851 q 336 947 313 924 q 397 971 360 971 q 457 947 433 971 q 481 888 481 922 q 457 828 481 853 q 397 804 433 804 q 336 828 360 804 m 643 828 q 631 841 643 828 q 619 888 619 853 q 643 947 619 922 q 703 971 667 971 q 763 947 739 971 q 788 888 788 924 q 763 828 788 851 q 703 804 739 804 q 643 828 667 804 m 247 0 l 26 704 l 171 704 q 324 132 308 214 q 483 704 343 226 l 615 704 q 778 131 750 254 q 942 704 794 213 l 1079 704 l 856 0 l 700 0 q 550 556 575 440 q 401 0 532 469 l 247 0 z "},"Ỳ":{"ha":844,"x_min":32,"x_max":813,"o":"m 492 0 l 349 0 l 349 349 l 32 936 l 196 936 q 419 465 394 525 q 581 799 432 507 l 649 936 l 813 936 l 492 349 l 492 0 m 493 1007 l 376 1007 l 210 1232 l 361 1232 l 493 1007 z "},"ỳ":{"ha":700,"x_min":10,"x_max":682,"o":"m 118 -251 q 54 -244 81 -251 l 54 -128 q 101 -133 76 -133 q 290 15 236 -133 l 10 704 l 161 704 l 249 475 l 358 178 q 538 704 376 236 l 682 704 l 428 19 q 118 -251 326 -251 m 282 1000 l 414 775 l 297 775 l 131 1000 l 282 1000 z "},"​":{"ha":0,"x_min":0,"x_max":0,"o":""},"‌":{"ha":0,"x_min":-32,"x_max":33,"o":"m 33 -319 l -32 -319 l -32 1126 l 33 1126 l 33 -319 z "},"‍":{"ha":0,"x_min":-176,"x_max":179,"o":"m 33 -319 l -32 -319 l -32 882 l -128 781 l -174 826 l -44 956 l -176 1088 l -131 1133 l 1 1001 l 135 1133 l 179 1089 l 46 956 l 179 824 l 133 778 l 33 882 l 33 -319 z "},"–":{"ha":756,"x_min":74,"x_max":682,"o":"m 74 321 l 74 429 l 682 429 l 682 321 l 74 321 z "},"—":{"ha":1147,"x_min":74,"x_max":1074,"o":"m 74 324 l 74 432 l 1074 432 l 1074 324 l 74 324 z "},"‘":{"ha":285,"x_min":22,"x_max":307,"o":"m 307 965 l 183 639 l 22 639 l 194 965 l 307 965 z "},"’":{"ha":286,"x_min":24,"x_max":308,"o":"m 24 639 l 146 965 l 308 965 l 135 639 l 24 639 z "},"‚":{"ha":286,"x_min":-1,"x_max":283,"o":"m -1 -172 l 122 153 l 283 153 l 111 -172 l -1 -172 z "},"“":{"ha":501,"x_min":22,"x_max":524,"o":"m 524 965 l 403 639 l 250 639 l 414 965 l 524 965 m 307 965 l 182 639 l 22 639 l 199 965 l 307 965 z "},"”":{"ha":501,"x_min":24,"x_max":524,"o":"m 24 639 l 143 965 l 296 965 l 132 639 l 24 639 m 239 639 l 364 965 l 524 965 l 349 639 l 239 639 z "},"„":{"ha":501,"x_min":1,"x_max":503,"o":"m 1 -172 l 122 153 l 274 153 l 111 -172 l 1 -172 m 218 -172 l 343 153 l 503 153 l 326 -172 l 218 -172 z "},"†":{"ha":742,"x_min":53,"x_max":688,"o":"m 688 707 l 688 592 l 429 592 l 429 0 l 306 0 l 306 592 l 53 592 l 53 707 l 306 707 l 306 936 l 429 936 l 429 707 l 688 707 z "},"‡":{"ha":760,"x_min":63,"x_max":697,"o":"m 697 592 l 438 592 l 438 356 l 697 356 l 697 239 l 438 239 l 438 0 l 314 0 l 314 239 l 63 239 l 63 356 l 314 356 l 314 592 l 63 592 l 63 707 l 314 707 l 314 936 l 438 936 l 438 707 l 697 707 l 697 592 z "},"•":{"ha":614,"x_min":122,"x_max":490,"o":"m 175 363 q 149 389 175 363 q 122 494 122 415 q 174 626 122 574 q 305 679 226 679 q 437 626 383 679 q 490 494 490 572 q 438 363 490 417 q 306 310 385 310 q 175 363 228 310 z "},"…":{"ha":1088,"x_min":60,"x_max":1028,"o":"m 867 17 q 854 31 867 17 q 840 83 840 44 q 867 149 840 122 q 934 176 894 176 q 1001 149 974 176 q 1028 83 1028 122 q 1001 17 1028 44 q 934 -11 974 -11 q 867 17 894 -11 m 478 17 q 464 31 478 17 q 450 83 450 44 q 477 149 450 122 q 544 176 504 176 q 610 149 583 176 q 638 83 638 122 q 610 17 638 44 q 544 -11 583 -11 q 478 17 506 -11 m 87 17 q 73 31 87 17 q 60 83 60 44 q 87 149 60 122 q 153 176 114 176 q 220 149 193 176 q 247 83 247 122 q 220 17 247 44 q 153 -11 193 -11 q 87 17 114 -11 z "},"‰":{"ha":1764,"x_min":63,"x_max":1718,"o":"m 1402 306 q 1385 288 1402 306 q 1368 222 1368 271 q 1402 139 1368 174 q 1485 104 1436 104 q 1568 139 1533 104 q 1603 222 1603 174 q 1568 306 1603 271 q 1485 340 1533 340 q 1402 306 1436 340 m 1485 -10 q 1437 -10 1485 -10 q 1321 58 1389 -10 q 1253 222 1253 125 q 1321 387 1253 318 q 1485 456 1389 456 q 1649 387 1581 456 q 1718 222 1718 318 q 1649 58 1718 126 q 1485 -10 1581 -10 m 842 306 q 824 288 842 306 q 807 222 807 271 q 842 139 807 174 q 925 104 876 104 q 1008 139 974 104 q 1043 222 1043 174 q 1008 306 1043 271 q 925 340 974 340 q 842 306 876 340 m 213 805 q 195 788 213 805 q 178 722 178 771 q 213 639 178 674 q 296 604 247 604 q 378 639 344 604 q 413 722 413 674 q 378 804 413 769 q 296 839 344 839 q 213 805 247 839 m 295 489 q 247 489 295 489 q 131 557 199 489 q 63 722 63 625 q 131 886 63 818 q 295 954 199 954 q 460 886 392 954 q 528 722 528 818 q 460 557 528 625 q 295 489 392 489 m 924 -10 q 876 -10 924 -10 q 760 58 828 -10 q 692 222 692 125 q 760 387 692 318 q 924 456 828 456 q 1089 387 1021 456 q 1157 222 1157 318 q 1089 58 1157 125 q 924 -10 1021 -10 m 290 -1 l 796 940 l 925 940 l 418 -1 l 290 -1 z "},"‹":{"ha":444,"x_min":39,"x_max":396,"o":"m 396 576 l 193 351 l 396 126 l 249 126 l 39 351 l 249 576 l 396 576 z "},"›":{"ha":442,"x_min":49,"x_max":406,"o":"m 196 576 l 406 351 l 196 126 l 49 126 l 251 351 l 49 576 l 196 576 z "},"⁄":{"ha":414,"x_min":147,"x_max":258,"o":"m 258 554 l 165 435 l 147 435 l 240 554 l 258 554 z "},"⁴":{"ha":542,"x_min":49,"x_max":497,"o":"m 497 765 l 497 678 l 414 678 l 414 544 l 317 544 l 317 678 l 49 678 l 49 765 l 263 1143 l 414 1143 l 414 765 l 497 765 m 317 765 l 317 1069 l 146 765 l 317 765 z "},"€":{"ha":833,"x_min":67,"x_max":778,"o":"m 778 744 q 617 788 711 788 q 456 742 522 788 q 357 610 389 696 l 626 610 l 626 517 l 335 517 q 331 456 331 483 q 333 392 331 428 l 626 392 l 626 299 l 354 299 q 453 164 386 211 q 614 117 519 117 q 778 163 708 117 l 778 26 q 577 -11 706 -11 q 345 72 449 -11 q 204 299 242 156 l 67 299 l 67 392 l 189 392 q 186 450 186 428 q 189 517 186 472 l 67 517 l 67 610 l 206 610 q 350 837 246 756 q 580 918 454 918 q 778 879 706 918 l 778 744 z "},"₹":{"ha":758,"x_min":88,"x_max":694,"o":"m 694 936 l 694 825 l 474 825 q 550 699 531 776 l 694 699 l 694 588 l 557 588 q 465 409 544 475 q 250 339 385 343 l 526 0 l 354 0 l 88 339 l 88 453 l 219 453 q 418 588 396 453 l 88 588 l 88 699 l 411 699 q 217 825 374 825 l 88 825 l 88 936 l 694 936 z "},"™":{"ha":988,"x_min":6,"x_max":951,"o":"m 6 850 l 6 936 l 340 936 l 340 850 l 224 850 l 224 458 l 126 458 l 126 850 l 6 850 m 385 460 l 424 936 l 540 936 q 663 578 650 632 q 793 936 678 628 l 911 936 l 951 460 l 856 460 l 840 658 l 836 824 q 782 657 824 769 l 710 468 l 618 468 l 551 657 l 499 824 q 482 460 501 767 l 385 460 z "},"Ω":{"ha":1088,"x_min":71,"x_max":1018,"o":"m 1018 119 l 1018 0 l 607 0 l 607 119 q 763 238 711 140 q 815 486 815 335 q 744 729 815 638 q 543 821 674 821 q 340 729 413 821 q 268 488 268 638 q 324 240 268 339 q 482 119 379 142 l 482 0 l 71 0 l 71 119 l 278 119 q 118 479 118 236 q 232 824 118 693 q 543 954 346 954 q 853 824 740 954 q 965 479 965 694 q 810 119 965 235 l 1018 119 z "},"∂":{"ha":731,"x_min":53,"x_max":667,"o":"m 667 396 q 583 98 667 208 q 353 -12 499 -12 q 130 76 207 -12 q 53 296 53 164 q 138 509 53 428 q 335 590 224 590 q 518 522 446 590 q 387 758 482 647 q 181 936 292 868 l 371 936 q 578 699 490 854 q 667 396 667 544 m 193 292 q 193 252 193 292 q 235 163 193 213 q 357 113 278 113 q 485 185 436 113 q 536 388 533 258 q 356 471 467 471 q 239 422 285 471 q 193 292 193 372 z "},"∆":{"ha":883,"x_min":44,"x_max":839,"o":"m 839 0 l 44 0 l 44 106 l 350 936 l 539 936 l 839 106 l 839 0 m 197 118 l 686 118 l 603 367 l 443 829 q 197 118 335 521 z "},"∏":{"ha":846,"x_min":-44,"x_max":747,"o":"m 747 936 l 747 -250 l 604 -250 l 604 811 l 272 811 l 272 13 q 214 -190 272 -122 q 47 -257 156 -257 q -44 -240 0 -257 l -44 -112 q 28 -129 -8 -129 q 131 4 131 -129 l 131 936 l 747 936 z "},"∑":{"ha":631,"x_min":42,"x_max":671,"o":"m 671 936 l 671 817 l 197 817 l 429 339 l 196 -158 l 671 -158 l 671 -278 l 42 -278 l 42 -158 l 278 339 l 42 817 l 42 936 l 671 936 z "},"−":{"ha":783,"x_min":74,"x_max":708,"o":"m 74 411 l 74 533 l 708 533 l 708 411 l 74 411 z "},"∕":{"ha":761,"x_min":331,"x_max":442,"o":"m 442 554 l 349 435 l 331 435 l 424 554 l 442 554 z "},"∙":{"ha":365,"x_min":89,"x_max":276,"o":"m 117 401 q 103 414 117 401 q 89 468 89 428 q 117 535 89 508 q 183 563 144 563 q 249 535 222 563 q 276 468 276 507 q 249 401 276 429 q 183 374 222 374 q 117 401 144 374 z "},"√":{"ha":1076,"x_min":43,"x_max":1140,"o":"m 331 601 l 469 208 q 585 -150 561 -56 q 618 -7 585 -135 q 679 214 651 121 l 997 1250 l 1140 1250 l 672 -272 l 494 -272 l 217 489 l 43 489 l 69 601 l 331 601 z "},"∞":{"ha":1157,"x_min":67,"x_max":1092,"o":"m 850 357 q 874 357 850 357 q 932 390 899 357 q 965 478 965 424 q 931 569 965 533 q 838 604 897 604 q 657 476 746 604 q 710 416 689 438 q 767 376 732 394 q 850 357 801 357 m 310 244 q 130 306 193 244 q 67 474 67 368 q 135 646 67 581 q 317 711 203 711 q 459 672 399 711 q 579 560 519 632 q 847 714 700 714 q 1027 651 963 714 q 1092 485 1092 589 q 1023 314 1092 381 q 842 247 954 247 q 698 286 758 247 q 578 397 638 325 q 457 285 519 326 q 310 244 394 244 m 224 568 q 207 551 224 568 q 190 481 190 535 q 225 390 190 426 q 319 354 260 354 q 500 481 411 354 q 319 601 403 601 q 224 568 258 601 z "},"≈":{"ha":846,"x_min":58,"x_max":786,"o":"m 583 508 q 426 553 517 508 q 296 599 335 599 q 146 510 211 599 l 58 583 q 272 714 153 714 q 438 669 347 714 q 567 625 528 625 q 693 704 639 625 l 786 635 q 583 508 704 508 m 583 228 q 426 274 517 228 q 296 319 335 319 q 146 231 211 319 l 58 304 q 272 435 153 435 q 438 390 347 435 q 567 346 528 346 q 693 425 639 346 l 786 356 q 583 228 703 228 z "},"≠":{"ha":783,"x_min":74,"x_max":708,"o":"m 708 563 l 475 563 l 393 383 l 708 383 l 708 268 l 342 268 l 288 150 l 203 150 l 256 268 l 74 268 l 74 383 l 308 383 l 389 563 l 74 563 l 74 676 l 442 676 l 494 794 l 581 794 l 526 676 l 708 676 l 708 563 z "},"≤":{"ha":776,"x_min":67,"x_max":701,"o":"m 701 790 l 701 667 l 131 567 l 701 467 l 701 343 l 67 474 l 67 660 l 701 790 m 67 151 l 67 265 l 701 265 l 701 151 l 67 151 z "},"≥":{"ha":776,"x_min":74,"x_max":708,"o":"m 74 790 l 708 660 l 708 474 l 74 343 l 74 467 l 644 567 l 74 667 l 74 790 m 74 151 l 74 265 l 708 265 l 708 151 l 74 151 z "},"◊":{"ha":799,"x_min":63,"x_max":736,"o":"m 475 936 l 736 468 l 475 0 l 319 0 l 63 468 l 319 936 l 475 936 m 538 368 l 592 468 q 399 825 429 765 q 263 568 357 739 l 210 468 l 399 111 q 538 368 440 197 z "},"◌":{"ha":974,"x_min":100,"x_max":894,"o":"m 413 749 q 405 758 413 749 q 396 793 396 767 q 413 837 396 819 q 457 854 431 854 q 501 837 483 854 q 518 793 518 819 q 501 749 518 767 q 457 732 483 732 q 413 749 431 732 m 633 711 q 620 711 633 711 q 589 729 607 711 q 571 774 571 747 q 588 817 571 800 q 633 835 606 835 q 676 817 660 835 q 693 774 693 800 q 676 729 693 747 q 633 711 658 711 m 720 634 q 711 643 720 634 q 703 678 703 651 q 720 722 703 704 q 764 740 738 740 q 808 723 790 740 q 825 678 825 706 q 808 634 825 651 q 764 617 790 617 q 720 634 738 617 m 789 469 q 781 478 789 469 q 772 514 772 486 q 789 558 772 542 q 833 575 806 575 q 877 558 860 575 q 894 514 894 540 q 877 470 894 488 q 833 453 860 453 q 789 469 806 453 m 820 267 q 807 267 820 267 q 776 284 794 267 q 758 328 758 301 q 776 373 758 356 q 820 390 794 390 q 863 372 846 390 q 881 328 881 354 q 863 284 881 301 q 820 267 846 267 m 674 148 q 666 157 674 148 q 657 192 657 165 q 674 235 657 218 q 718 253 692 253 q 763 235 744 253 q 781 192 781 218 q 763 148 781 165 q 718 131 744 131 q 674 148 692 131 m 506 74 q 497 83 506 74 q 489 118 489 92 q 506 162 489 144 q 550 179 522 179 q 595 162 578 179 q 613 118 613 144 q 595 74 613 92 q 550 57 578 57 q 506 74 522 57 m 375 76 q 362 76 375 76 q 331 94 349 76 q 313 139 313 113 q 331 183 313 165 q 375 201 349 201 q 419 183 401 201 q 436 139 436 165 q 419 94 436 113 q 375 76 401 76 m 233 183 q 219 183 233 183 q 189 200 206 183 q 172 244 172 217 q 190 288 172 271 q 233 306 207 306 q 277 288 260 306 q 294 244 294 271 q 277 201 294 218 q 233 183 260 183 m 117 363 q 109 371 117 363 q 100 406 100 379 q 117 450 100 432 q 161 468 135 468 q 205 451 188 468 q 222 406 222 433 q 205 363 222 379 q 161 346 188 346 q 117 363 135 346 m 136 537 q 127 545 136 537 q 118 581 118 554 q 136 624 118 607 q 181 642 154 642 q 225 624 207 642 q 243 581 243 607 q 225 537 243 554 q 181 519 207 519 q 136 537 154 519 m 293 671 q 280 671 293 671 q 249 688 267 671 q 232 733 232 706 q 249 777 232 760 q 293 794 267 794 q 337 777 319 794 q 354 733 354 760 q 337 688 354 706 q 293 671 319 671 z "},"":{"ha":607,"x_min":169,"x_max":433,"o":"m 169 -346 l 282 -71 l 433 -71 l 276 -346 l 169 -346 z "},"ﬀ":{"ha":826,"x_min":42,"x_max":819,"o":"m 754 878 q 653 757 653 878 l 653 704 l 801 704 l 801 599 l 653 599 l 653 0 l 517 0 l 517 599 l 290 599 l 290 0 l 154 0 l 154 599 l 42 599 l 42 704 l 154 704 l 154 758 q 215 932 154 869 q 384 994 275 994 q 590 946 493 994 q 742 994 647 994 q 819 983 782 994 l 819 864 q 754 878 788 878 m 517 704 l 517 758 q 529 850 517 808 q 400 878 458 878 q 290 757 290 878 l 290 704 l 517 704 z "},"ﬁ":{"ha":739,"x_min":42,"x_max":653,"o":"m 653 704 l 653 0 l 517 0 l 517 599 l 290 599 l 290 0 l 154 0 l 154 599 l 42 599 l 42 704 l 154 704 l 154 758 q 214 932 154 869 q 385 994 274 994 q 596 943 496 994 l 596 825 q 396 878 483 878 q 290 757 290 878 l 290 704 l 653 704 z "},"ﬂ":{"ha":742,"x_min":42,"x_max":646,"o":"m 154 704 l 154 758 q 214 932 154 869 q 391 994 274 994 q 646 921 508 994 l 646 0 l 510 0 l 510 858 q 403 878 454 878 q 290 757 290 878 l 290 704 l 439 704 l 439 599 l 290 599 l 290 0 l 154 0 l 154 599 l 42 599 l 42 704 l 154 704 z "},"ﬃ":{"ha":1165,"x_min":42,"x_max":1015,"o":"m 1015 704 l 1015 0 l 879 0 l 879 599 l 653 599 l 653 0 l 517 0 l 517 599 l 290 599 l 290 0 l 154 0 l 154 599 l 42 599 l 42 704 l 154 704 l 154 758 q 215 932 154 869 q 383 994 275 994 q 592 946 492 994 q 753 994 651 994 q 958 943 856 994 l 958 825 q 758 878 846 878 q 653 757 653 878 l 653 704 l 1015 704 m 517 704 l 517 758 q 529 850 517 808 q 400 878 458 878 q 290 757 290 878 l 290 704 l 517 704 z "},"ﬄ":{"ha":1106,"x_min":42,"x_max":1010,"o":"m 154 704 l 154 758 q 215 932 154 869 q 385 994 275 994 q 592 944 494 994 q 758 994 647 994 q 1010 921 869 994 l 1010 0 l 872 0 l 872 858 q 765 878 817 878 q 683 851 713 878 q 654 757 654 824 l 654 704 l 801 704 l 801 599 l 654 599 l 654 0 l 518 0 l 518 599 l 290 599 l 290 0 l 154 0 l 154 599 l 42 599 l 42 704 l 154 704 m 518 704 l 518 758 q 531 850 518 808 q 400 878 460 878 q 290 757 290 878 l 290 704 l 518 704 z "}}}
